<svg xmlns="http://www.w3.org/2000/svg"  viewBox="0 0 50 50" width="50px" height="50px"><path d="M 14 4 C 8.4886661 4 4 8.4886661 4 14 L 4 36 C 4 41.511334 8.4886661 46 14 46 L 36 46 C 41.511334 46 46 41.511334 46 36 L 46 14 C 46 8.4886661 41.511334 4 36 4 L 14 4 z M 14 6 L 36 6 C 40.430666 6 44 9.5693339 44 14 L 44 36 C 44 40.430666 40.430666 44 36 44 L 14 44 C 9.5693339 44 6 40.430666 6 36 L 6 14 C 6 9.5693339 9.5693339 6 14 6 z M 11.666016 15 L 11.666016 20.529297 C 11.666016 22.643297 13.138781 24.037109 15.050781 24.037109 C 15.942781 24.042109 16.798922 23.683016 17.419922 23.041016 L 17.419922 23.888672 L 18.736328 23.888672 L 18.736328 15 L 17.404297 15 L 17.404297 20.455078 C 17.404297 21.880078 16.443125 22.832031 15.203125 22.832031 C 13.944125 22.832031 13.021484 21.897844 13.021484 20.464844 L 13.021484 15 L 11.666016 15 z M 19.933594 15 L 19.933594 23.888672 L 21.201172 23.888672 L 21.201172 23.060547 C 21.815172 23.682547 22.652344 24.035016 23.527344 24.041016 C 25.409344 24.081016 26.967813 22.588078 27.007812 20.705078 C 27.047812 18.823078 25.554875 17.264609 23.671875 17.224609 C 23.623875 17.223609 23.574344 17.223609 23.527344 17.224609 C 23.527344 17.225609 23.523437 17.226562 23.523438 17.226562 C 22.656437 17.227563 21.826797 17.573453 21.216797 18.189453 L 21.216797 15 L 19.933594 15 z M 30.929688 17.226562 C 29.075688 17.238563 27.58175 18.753422 27.59375 20.607422 L 27.59375 20.626953 C 27.59375 22.570953 29.093781 24.041016 31.050781 24.041016 C 32.159781 24.062016 33.208281 23.542438 33.863281 22.648438 L 32.931641 21.964844 C 32.497641 22.570844 31.793828 22.925062 31.048828 22.914062 C 29.968828 22.908062 29.053484 22.115875 28.896484 21.046875 L 34.189453 21.046875 L 34.1875 20.626953 C 34.1875 18.680953 32.803687 17.226563 30.929688 17.226562 z M 37.873047 17.316406 C 37.248047 17.299406 36.66275 17.622156 36.34375 18.160156 L 36.34375 17.363281 L 35.074219 17.363281 L 35.074219 23.888672 L 36.359375 23.888672 L 36.359375 20.181641 C 36.359375 19.171641 36.955875 18.513672 37.796875 18.513672 L 38.333984 18.513672 L 38.333984 17.316406 L 37.873047 17.316406 z M 30.912109 18.359375 C 31.876109 18.359375 32.671719 19.031344 32.886719 20.027344 L 28.923828 20.027344 C 29.152828 19.031344 29.947109 18.359375 30.912109 18.359375 z M 23.410156 18.373047 C 24.658156 18.367047 25.675641 19.375047 25.681641 20.623047 L 25.681641 20.642578 C 25.683641 21.881578 24.680406 22.886672 23.441406 22.888672 L 23.431641 22.888672 L 23.431641 22.892578 C 22.183641 22.898578 21.168109 21.892531 21.162109 20.644531 C 21.156109 19.396531 22.162156 18.379047 23.410156 18.373047 z M 11.806641 26.111328 L 11.806641 35 L 18.037109 35 L 18.037109 33.474609 L 13.490234 33.474609 L 13.490234 31.273438 L 17.910156 31.273438 L 17.910156 29.800781 L 13.490234 29.800781 L 13.490234 27.634766 L 18.037109 27.634766 L 18.037109 26.111328 L 11.806641 26.111328 z M 27.890625 26.570312 L 27.890625 28.433594 L 26.630859 28.433594 L 26.630859 29.916016 L 27.884766 29.916016 L 27.884766 33.427734 C 27.884766 34.306734 28.504047 35.001953 29.623047 35.001953 L 31.40625 35.001953 L 31.40625 33.519531 L 30.167969 33.519531 C 29.788969 33.519531 29.548828 33.352906 29.548828 33.003906 L 29.548828 29.914062 L 31.40625 29.914062 L 31.40625 28.433594 L 29.548828 28.433594 L 29.548828 26.570312 L 27.890625 26.570312 z M 34.947266 28.261719 C 33.224266 28.261719 32.015625 28.972562 32.015625 30.351562 C 32.015625 31.304562 32.681188 31.925516 34.117188 32.228516 L 35.689453 32.591797 C 36.309453 32.712797 36.474609 32.879719 36.474609 33.136719 C 36.474609 33.545719 36.006047 33.802734 35.248047 33.802734 C 34.297047 33.802734 33.753969 33.592234 33.542969 32.865234 L 31.884766 32.865234 C 32.126766 34.231234 33.140266 35.138672 35.197266 35.138672 C 37.101266 35.138672 38.175781 34.226609 38.175781 32.974609 C 38.175781 32.082609 37.538984 31.415953 36.208984 31.126953 L 34.802734 30.839844 C 33.985734 30.687844 33.728516 30.534469 33.728516 30.230469 C 33.728516 29.837469 34.121656 29.595703 34.847656 29.595703 C 35.633656 29.595703 36.215187 29.806203 36.367188 30.533203 L 38.015625 30.533203 C 37.925625 29.165203 36.942266 28.261719 34.947266 28.261719 z M 22.175781 28.265625 C 20.277781 28.225625 18.707969 29.730906 18.667969 31.628906 C 18.627969 33.526906 20.13325 35.098672 22.03125 35.138672 C 22.07825 35.139672 22.127781 35.139672 22.175781 35.138672 C 22.939781 35.141672 23.678719 34.871906 24.261719 34.378906 L 24.261719 35 L 25.914062 35 L 25.914062 28.433594 L 24.263672 28.433594 L 24.263672 29.025391 C 23.679672 28.532391 22.939781 28.263625 22.175781 28.265625 z M 22.267578 29.705078 C 23.370578 29.692078 24.275109 30.577641 24.287109 31.681641 L 24.287109 31.705078 C 24.297109 32.796078 23.421078 33.689219 22.330078 33.699219 L 22.308594 33.699219 L 22.3125 33.703125 C 21.2095 33.716125 20.303016 32.830562 20.291016 31.726562 C 20.278016 30.623562 21.163578 29.717078 22.267578 29.705078 z"/></svg>