<svg xmlns="http://www.w3.org/2000/svg" xmlns:xlink="http://www.w3.org/1999/xlink" viewBox="0,0,256,256" width="50px" height="50px"><g fill="#d31212" fill-rule="nonzero" stroke="none" stroke-width="1" stroke-linecap="butt" stroke-linejoin="miter" stroke-miterlimit="10" stroke-dasharray="" stroke-dashoffset="0" font-family="none" font-weight="none" font-size="none" text-anchor="none" style="mix-blend-mode: normal"><g transform="scale(5.12,5.12)"><path d="M14,4c-5.51133,0 -10,4.48867 -10,10v22c0,5.51133 4.48867,10 10,10h22c5.51133,0 10,-4.48867 10,-10v-22c0,-5.51133 -4.48867,-10 -10,-10zM14,6h22c4.43067,0 8,3.56933 8,8v22c0,4.43067 -3.56933,8 -8,8h-22c-4.43067,0 -8,-3.56933 -8,-8v-22c0,-4.43067 3.56933,-8 8,-8zM11.66602,15v5.5293c0,2.114 1.47276,3.50781 3.38477,3.50781c0.892,0.005 1.74814,-0.35409 2.36914,-0.99609v0.84766h1.31641v-8.88867h-1.33203v5.45508c0,1.425 -0.96117,2.37695 -2.20117,2.37695c-1.259,0 -2.18164,-0.93419 -2.18164,-2.36719v-5.46484zM19.93359,15v8.88867h1.26758v-0.82812c0.614,0.622 1.45117,0.97447 2.32617,0.98047c1.882,0.04 3.44047,-1.45294 3.48047,-3.33594c0.04,-1.882 -1.45294,-3.44047 -3.33594,-3.48047c-0.048,-0.001 -0.09753,-0.001 -0.14453,0c0,0.001 -0.00391,0.00195 -0.00391,0.00195c-0.867,0.001 -1.69664,0.34689 -2.30664,0.96289v-3.18945zM30.92969,17.22656c-1.854,0.012 -3.34794,1.52686 -3.33594,3.38086v0.01953c0,1.944 1.50003,3.41406 3.45703,3.41406c1.109,0.021 2.1575,-0.49858 2.8125,-1.39258l-0.93164,-0.68359c-0.434,0.606 -1.13781,0.96022 -1.88281,0.94922c-1.08,-0.006 -1.99534,-0.79819 -2.15234,-1.86719h5.29297l-0.00195,-0.41992c0,-1.946 -1.38381,-3.40039 -3.25781,-3.40039zM37.87305,17.31641c-0.625,-0.017 -1.2103,0.30575 -1.5293,0.84375v-0.79687h-1.26953v6.52539h1.28516v-3.70703c0,-1.01 0.5965,-1.66797 1.4375,-1.66797h0.53711v-1.19727zM30.91211,18.35938c0.964,0 1.75961,0.67197 1.97461,1.66797h-3.96289c0.229,-0.996 1.02328,-1.66797 1.98828,-1.66797zM23.41016,18.37305c1.248,-0.006 2.26548,1.002 2.27148,2.25v0.01953c0.002,1.239 -1.00123,2.24409 -2.24023,2.24609h-0.00977v0.00391c-1.248,0.006 -2.26353,-1.00005 -2.26953,-2.24805c-0.006,-1.248 1.00005,-2.26548 2.24805,-2.27148zM11.80664,26.11133v8.88867h6.23047v-1.52539h-4.54688v-2.20117h4.41992v-1.47266h-4.41992v-2.16602h4.54688v-1.52344zM27.89063,26.57031v1.86328h-1.25977v1.48242h1.25391v3.51172c0,0.879 0.61928,1.57422 1.73828,1.57422h1.7832v-1.48242h-1.23828c-0.379,0 -0.61914,-0.16663 -0.61914,-0.51562v-3.08984h1.85742v-1.48047h-1.85742v-1.86328zM34.94727,28.26172c-1.723,0 -2.93164,0.71084 -2.93164,2.08984c0,0.953 0.66556,1.57395 2.10156,1.87695l1.57227,0.36328c0.62,0.121 0.78516,0.28792 0.78516,0.54492c0,0.409 -0.46856,0.66602 -1.22656,0.66602c-0.951,0 -1.49408,-0.2105 -1.70508,-0.9375h-1.6582c0.242,1.366 1.2555,2.27344 3.3125,2.27344c1.904,0 2.97852,-0.91206 2.97852,-2.16406c0,-0.892 -0.6368,-1.55866 -1.9668,-1.84766l-1.40625,-0.28711c-0.817,-0.152 -1.07422,-0.30537 -1.07422,-0.60937c0,-0.393 0.39314,-0.63477 1.11914,-0.63477c0.786,0 1.36753,0.2105 1.51953,0.9375h1.64844c-0.09,-1.368 -1.07336,-2.27148 -3.06836,-2.27148zM22.17578,28.26563c-1.898,-0.04 -3.46781,1.46528 -3.50781,3.36328c-0.04,1.898 1.46528,3.46977 3.36328,3.50977c0.047,0.001 0.09653,0.001 0.14453,0c0.764,0.003 1.50294,-0.26677 2.08594,-0.75977v0.62109h1.65234v-6.56641h-1.65039v0.5918c-0.584,-0.493 -1.32389,-0.76177 -2.08789,-0.75977zM22.26758,29.70508c1.103,-0.013 2.00753,0.87256 2.01953,1.97656v0.02344c0.01,1.091 -0.86603,1.98414 -1.95703,1.99414h-0.02148l0.00391,0.00391c-1.103,0.013 -2.00948,-0.87256 -2.02148,-1.97656c-0.013,-1.103 0.87256,-2.00948 1.97656,-2.02148z"></path></g></g></svg>