<svg id="Calque_1" data-name="Calque 1" xmlns="http://www.w3.org/2000/svg" viewBox="0 0 318.78 297.48"><defs><style>.cls-1{fill:#940000;}.cls-2{fill:#fff;}</style></defs><title>logo-1-white</title><path class="cls-1" d="M147.77,130.27l-.25.1-.07-.21Z" transform="translate(-0.05)"/><path class="cls-1" d="M269.39,87.82c1.77,9.26,4.5,18.48,5,27.81.3,5.85-2.91,11.84-4.31,17.81-.89,3.76-1.2,7.64-2,11.42a20.2,20.2,0,0,1-2.86,6.68l-.18-3.78c-1,.78-1.84,1.14-2.16,1.75-2.86,5.46-6,10.84-8.36,16.48-6.2,14.57-16.79,25.18-30.45,33.31-2.33,1.38-4.08,3.66-5.55,5-1.26-.09-2.48-.54-3.36-.18-13.65,5.55-26.94,12.18-41,16.44-7.18,2.17-15.75.53-23.63-.11A111.44,111.44,0,0,1,132.05,217c-1.44-.37-3.13-3-3.2-4.65-.34-8.28-.18-16.59-.18-24.88V108.63c0-2.62-.82-5.84,4-6.33.09,2.08.26,4.1.27,6.11v78.32c0,1.21-.37,2.59.11,3.59a25.94,25.94,0,0,0,3.1,4.19c1.23-1.42,2.83-2.67,3.57-4.29.59-1.31.17-3.06.17-4.62V103.13c0-2.36-1.08-5.54,3.86-5.66.09,1.78.25,3.56.25,5.34,0,11.76-.14,23.52.19,35.27,0,1.78,2.34,3.5,3.6,5.25,1-1.74,3-3.46,3-5.22.26-13,.23-25.93.07-38.9,0-3.13,1-4.51,4.17-5.39q48-13.29,96-27c3.65-1,5.63.34,7.86,2.3l.81,1.29a7.41,7.41,0,0,0,.38,2.52c4.68,7.2,5.93,15.22,6.51,23.5.11,1.63,1.73,3.16,2.85,5.08V87.64Z" transform="translate(-0.05)"/><path class="cls-1" d="M177.64,1.1,174.7,2.84c3.44,3.07,6.53,2,9.72.26.84-.45,2.08-1,2.85-.68,12.34,4.38,24.31,9.5,34.88,17.25.94,7.24,9.83,5.71,12.94,11,1.09,1.86,5,2.17,7.61,3.19l-.19,1.61L151.05,82.15c-.5-1.3-.91-2.21-1.2-3.16-1.22-4.08-4.17-6-8.38-5.78S134.66,76,134,80.05c-.37,2.19.11,4.56-.45,6.68-.46,1.73-1.89,3.22-2.89,4.82l-1.75-.62c-.09-1.81-.17-3.63-.27-5.44-.13-2.54.42-5.81-3.61-5.63-3.87.17-3.24,3.42-3.33,6a40.25,40.25,0,0,0,0,4.66c.22,3.16-1.32,4.36-4.71,4.11-.12-1.49-.22-2.83-.35-4.17-.49-4.73-3.85-7.91-8.28-7.88-4.25,0-7.68,3.46-8.15,8.12a64.11,64.11,0,0,1-1,8.18c-.31,1.27-1.69,2.3-2.13,2.88L91.48,97.3a45.07,45.07,0,0,1-3.31,5c-1.23,1.44-2.64,3.12-4.34,3.72-8.72,3-17.6,5.64-26.32,8.68a15,15,0,0,0-6.73,5.23c13.14,1.62,24.47-5.11,37.21-5.77-5.85,3-11.87,5.78-17.49,9.16-2.57,1.55-4.37,4.3-6.52,6.51,3.1-.29,6.41,0,9.25-1,4.82-1.66,9.35-4.11,15-6.68v21.17c0,1.56-.41,3.27.13,4.63s2.08,2.69,3.17,4c1.19-1.41,3.35-2.78,3.41-4.23.33-8.29,0-16.59.24-24.89,0-1.75,1.26-3.47,1.94-5.21l1.73.5v84l-9.55-5.27,2,6.59c-5.21-4.64-10.2-8.92-14.94-13.45-.79-.75-.15-2.76-.79-3.85-1-1.67-1.17-5.37-5-2.37-.78.61-3-.5-5.36-1a14.49,14.49,0,0,1,1.42-1.29c.68.34,1.34.72,3.1,1.7-5.59-8.09-10.53-15-15.19-22.15-1.37-2.09-2-4.65-2.86-7-1.57-4.59-3.25-9.16-4.48-13.84-1.8-6.85-5.84-13-3.93-20.94,1.43-6-.35-12.63.15-18.91,1.34-17.16,6.44-33.2,16.48-47.6.89-1.28,1.51-2.74,2.31-4.09,2.26-3.8,4.63-7.08,8.78-9.76,5.81-3.76,10.29-9.44,15.39-14.24a40.58,40.58,0,0,1,10-7.41L93,21.74a39.33,39.33,0,0,0,4.9-1.89,90.71,90.71,0,0,1,30.72-11.7c3.59-.65,6.83-3.45,10.43-3.84,7.17-.77,14-4.71,21.64-2.13,2.23.75,5.19-.55,7.81-.92L177.39,0C177.45.37,177.55.73,177.64,1.1Zm31.11,14.16c-3-4.37-11.53-7-19-5.45Z" transform="translate(-0.05)"/><path class="cls-1" d="M121.33,107.72V210.87c-2,.58-4.19,1.89-6.28,1.71-7.46-.64-8.57-2.13-8.59-10.71-.06-23.83,0-47.67,0-71.5,0-4.49-.18-9,.11-13.46.1-1.54,1.38-3,2.13-4.51l2,.59V168.7c0,1.55-.18,3.25.41,4.59a4.2,4.2,0,0,0,3,2.27,4.14,4.14,0,0,0,3-2.26,14.93,14.93,0,0,0,.41-5.11V113.27C117.55,110.93,116.62,107.71,121.33,107.72Z" transform="translate(-0.05)"/><path class="cls-1" d="M253.47,46.25l1.89,4.08-28.6,9.35-.39-.93Z" transform="translate(-0.05)"/><path class="cls-1" d="M259.81,70.47l-.76-1.29c-.44-1-.9-2-1.22-2.79l5.13-2c2.11,7.58,6.91,14.72,6.49,23.44l.15-.18Z" transform="translate(-0.05)"/><path class="cls-1" d="M138.25,86.37l2.93-7.85c1.19.71,3.24,1.25,3.43,2.15C145.39,84.13,143.79,86.5,138.25,86.37Z" transform="translate(-0.05)"/><path class="cls-1" d="M112.61,92.21l-4,4.68c-1-1.48-2.77-3-2.76-4.43s1.78-3,2.78-4.52Z" transform="translate(-0.05)"/><path class="cls-1" d="M259.81,70.47l9.74,17.17v13.93c-1.12-1.92-2.74-3.45-2.85-5.08-.58-8.28-1.83-16.3-6.51-23.5C259.76,72.33,259.92,71.32,259.81,70.47Z" transform="translate(-0.05)"/><path class="cls-1" d="M208.75,15.26l-19-5.45C197.22,8.28,205.77,10.89,208.75,15.26Z" transform="translate(-0.05)"/><path class="cls-2" d="M14.55,294.13a2.62,2.62,0,0,0-.53.33,2.66,2.66,0,0,1-.53.34,1.72,1.72,0,0,0-.58.19c-.73.38-1.26.4-1.58.05a1.89,1.89,0,0,0-.7-.17c-.36-.05-.58-.14-.64-.26a3.62,3.62,0,0,0-.22-.32.53.53,0,0,0-.31.17c-.19.17-.37.15-.43.05a.23.23,0,0,0-.2,0c-.09,0-.16,0-.19-.08a.43.43,0,0,0-.38-.14,1.71,1.71,0,0,1-.55-.14q-.36-.15-.36-.24v-.1a.6.6,0,0,0-.24.38c-.07.13-.13.08-.19-.14s-.22-.34-.36-.26a.27.27,0,0,1-.36,0q-.11-.14-.27.12c-.11.18-.2.17-.26,0s-.11-.17-.24-.12a.44.44,0,0,1-.39,0q-.13-.14-.21-.12c-.07,0-.12,0-.22-.16s-.19-.19-.29-.08-.2.12-.33,0a.21.21,0,0,0-.31,0h0c-.09.11-.14.12-.14,0s-.19-.15-.58-.15A3.5,3.5,0,0,1,1.73,293c-.51-.19-.77-.33-.77-.43s-.06-.09-.19-.09-.28-.13-.46-.39a1.26,1.26,0,0,1-.26-.67,1.41,1.41,0,0,1,.24-.91c.06-.1.11-.08.14,0s.13.24.2.24a.79.79,0,0,1,.48,0c.16.07.24.13.24.2s.08.09.26.09.28,0,.31.15.39.2.89.21a4,4,0,0,0,1.24-.13,3.64,3.64,0,0,1,1.35-.14,4.83,4.83,0,0,0,1.41-.27,3.71,3.71,0,0,0,1.27-.6q.42-.3.87-.57a7,7,0,0,0,1.61-1.32,10.52,10.52,0,0,0,1.36-1.75,13,13,0,0,0,.89-2.64,15.6,15.6,0,0,0,.51-3.32c0-.09.08-.68.16-1.75s.16-2.07.22-3a13.82,13.82,0,0,0,0-1.82c-.13-1.28-.24-1.92-.34-1.92a5.44,5.44,0,0,0-.86.29l-1.87.5-1.88.5a7.14,7.14,0,0,1-3.74.48A6.5,6.5,0,0,1,4,273.7a4,4,0,0,0-.57-.14,4.61,4.61,0,0,1-2-1.2,4.34,4.34,0,0,1-1-1.44,4,4,0,0,1-.33-1.63c0-.42.06-.68.19-.79s.35-.11.67,0a3.43,3.43,0,0,1,.56.07l.72.15a.87.87,0,0,1,.4.16A.5.5,0,0,0,3,269c.19,0,.28-.06.28-.14s.13-.12.39-.12a16,16,0,0,0,2.16-.48c1.25-.32,1.92-.48,2-.48a4.71,4.71,0,0,0,.84-.22,3.38,3.38,0,0,1,.84-.16,1,1,0,0,0,.53-.15,6.47,6.47,0,0,1,1.37-.25l2.42-.51c.88-.17,1.46-.29,1.75-.36a1.39,1.39,0,0,1,.44-.13,3.54,3.54,0,0,0,.79-.14c.24-.05.36-.1.36-.17s.07-.09.2-.09a1,1,0,0,0,.52-.24,4.29,4.29,0,0,1,2.55-.24,7.17,7.17,0,0,1,2.69.72l.48.28c-.45.42-.72.63-.82.63a2,2,0,0,0-.7.43,9.28,9.28,0,0,0-.93.84,1.91,1.91,0,0,1-.63.5c-.22.07-.23.16,0,.29s.17.21-.12.24a1.41,1.41,0,0,1-.41,0c-.14,0-.23,0-.26.12a.91.91,0,0,1-.31.12c-.12,0-.2.1-.27.26a.32.32,0,0,1-.31.24.34.34,0,0,0-.31.14c-.07.16-.13.18-.19.05s-.21-.16-.34.1a1,1,0,0,0,0,.24,2.21,2.21,0,0,0,.07.81c.08.32.17.52.27.58a.53.53,0,0,1,.19.41.34.34,0,0,0,.14.31q.54.63.46,6.22a57,57,0,0,1-.65,8.85l-.33,1.87a7.49,7.49,0,0,1-1.14,2.32,8.69,8.69,0,0,1-1.9,2.11A2.19,2.19,0,0,1,14.55,294.13Z" transform="translate(-0.05)"/><path class="cls-2" d="M27,272a1.25,1.25,0,0,1,.26-.48,1.27,1.27,0,0,0,.27-.53,1.31,1.31,0,0,1,.28-.55,3.89,3.89,0,0,0,.48-.84q.15-.39,0-.51a2.14,2.14,0,0,0-.86-.21c-.48-.07-.72-.13-.72-.19s0-.06-.07-.08a.49.49,0,0,0-.24,0l-.43.12-.7.17a2,2,0,0,1-1.7-.27,1.4,1.4,0,0,1-.8-1.13c0-.28.3-.54.89-.76a5.47,5.47,0,0,1,2-.34,3.45,3.45,0,0,0,1-.22l1.39-.45c.48-.16.79-.26.92-.29l1-.36a10.87,10.87,0,0,1,1.1-.36,8.78,8.78,0,0,0,1-.29c.13-.06.73-.23,1.8-.5s1.88-.46,2.42-.55,1.06-.2,1.83-.39a7.11,7.11,0,0,1,3.55,0,4,4,0,0,1,.79.48c.24.2.35.34.31.44s-.28.17-.67.24a4.31,4.31,0,0,0-1.32.36c-.49.2-.74.36-.74.48s-.11.21-.34.31a19.5,19.5,0,0,0-2.35,1.34c.38.29.58.47.58.53a4.53,4.53,0,0,0,.43.7,2.26,2.26,0,0,1,.38.74A.41.41,0,0,0,39,269c.1.07.15.38.17.94s0,2.09.07,4.58q0,5.32.1,6a26.29,26.29,0,0,0,.43,3.31,17.7,17.7,0,0,1,.46,2.28c.2,1.27.23,2,.07,2s-.11.18,0,.34a.47.47,0,0,1,0,.53,1.08,1.08,0,0,1-.33.43,3.94,3.94,0,0,0-.19.84,2.75,2.75,0,0,1-.22.84v.24c0,.13.07.21,0,.24s-.14.24-.14.53,0,.46-.14.52-.43-.18-1-.74a15,15,0,0,1-1.65-2,3.52,3.52,0,0,1-.82-1.73,3.21,3.21,0,0,0-.1-.62,1.34,1.34,0,0,0-.19-.44,4.9,4.9,0,0,1-.24-.52,2.36,2.36,0,0,0-.33-.72,2.78,2.78,0,0,1-.34-.77,2.23,2.23,0,0,0-.26-.75,3.73,3.73,0,0,1-.32-.84,2.67,2.67,0,0,0-.28-1c-.36-.67-.72-2.89-1.11-6.67,0-.61-.09-.88-.19-.81a7,7,0,0,0-.77,1.58,10.43,10.43,0,0,1-.86,1.78,1,1,0,0,0-.19.48,14.32,14.32,0,0,1-.89,2c-.59,1.23-1,2.16-1.32,2.8a12.37,12.37,0,0,1-1.33,2.55,4,4,0,0,0-.57,1.17c-.13.44-.23.65-.29.65s-.1.15-.1.46-.06.49-.19.55-.18.38-.26.94a2.48,2.48,0,0,1-.22.93.4.4,0,0,0-.19.31.22.22,0,0,1-.19.24c-.13.05-.19.24-.19.56a.66.66,0,0,1-.24.57.74.74,0,0,0-.29.34.58.58,0,0,1-.55.33,1.64,1.64,0,0,1-.87-.36,4,4,0,0,1-.85-.93,5.38,5.38,0,0,1-1-3.27,7.29,7.29,0,0,1,.14-1.68,3.2,3.2,0,0,0,.14-.81,2.62,2.62,0,0,1,.24-.87,8.25,8.25,0,0,0,.46-1.46,8.35,8.35,0,0,1,.5-1.56,3.06,3.06,0,0,0,.39-1,8,8,0,0,1,1-2.49.91.91,0,0,0,.15-.48,2.48,2.48,0,0,1,.31-.75,3,3,0,0,0,.31-.69s.15-.4.46-1.11.45-1.07.45-1.1.23-.51.68-1.44A7,7,0,0,1,27,272Zm6.29,20.59c0,.1-.09.22-.27.38a.72.72,0,0,0-.26.44.77.77,0,0,1-.22.45,3.32,3.32,0,0,0-.26.36,2,2,0,0,1-.29.41c-.19.24-.37.47-.53.7s-.22.35-.19.38,0,.1-.1.1a3.33,3.33,0,0,0-.26.81,3.4,3.4,0,0,1-.26.82c-.26.16-.76-.18-1.49-1a4.73,4.73,0,0,1-1.3-3.31,29.21,29.21,0,0,1,.34-4.18c.25-1.09.29-1.68.09-1.77s-.09-.56.68-1a7.12,7.12,0,0,1,1.65-.72,2.38,2.38,0,0,1,1.27.05,2.11,2.11,0,0,1,1.59,1.24,5,5,0,0,0,.38,1,3.6,3.6,0,0,1,.22,2,6.15,6.15,0,0,1-.55,2.23A1.69,1.69,0,0,0,33.27,292.59Z" transform="translate(-0.05)"/><path class="cls-2" d="M52.8,281.55c-.06,0-.14-.1-.21-.29s-.17-.29-.27-.29a1.23,1.23,0,0,1-.26-.12c-.15-.08-.23-.07-.27,0a.24.24,0,0,1-.28,0c-.06-.06-.07-.18,0-.34h0a.31.31,0,0,0-.1.15c-.13.12-.26.16-.38.09a.14.14,0,0,1,0-.21h0a.26.26,0,0,0,0-.33c-.1-.16-.15-.24-.17-.22a1.08,1.08,0,0,0-.07.31,7.46,7.46,0,0,1-.19,1.15c-.1.55-.2,1.8-.31,3.77a18.89,18.89,0,0,0-.08,3.1c.1.09.11.53,0,1.32a4.2,4.2,0,0,1-.19,1.27c-.1,0-.11.16-.05.38a3.44,3.44,0,0,1,.05,1.06,3.48,3.48,0,0,1-.19,1.06c-.13.12-.15.32,0,.6a1,1,0,0,1,0,.69,4.69,4.69,0,0,0,0,.53c0,.06-.07.16-.19.29a.48.48,0,0,1-.29.19c-.06,0-.21.14-.43.43a2.5,2.5,0,0,1-.39.34,1.33,1.33,0,0,1-.48-.1,4,4,0,0,1-1.27-.93,2.54,2.54,0,0,1-.81-1.18,5.5,5.5,0,0,1-.08-.91,4.81,4.81,0,0,0-.24-1.3,41.25,41.25,0,0,1-1.32-5.37,55.17,55.17,0,0,1-.28-5.89,47.71,47.71,0,0,1,.33-6.09c.13-.9.2-1.38.2-1.44s-.31-.19-.92-.36a8.68,8.68,0,0,0-1-.27.82.82,0,0,1-.43-.17,3.55,3.55,0,0,0-.44-.21,5.45,5.45,0,0,1-2.1-2.5q-.57-1.63,0-2.16c.16-.16.27-.19.34-.09a2.07,2.07,0,0,0,1,.45,2.53,2.53,0,0,0,1.22.12c.93-.25,1.62-.46,2.07-.62a1.41,1.41,0,0,1,.72-.19c.64,0,1-.79,1-2.36V264l.77-.1a9.61,9.61,0,0,1,3.21,0,2.57,2.57,0,0,1,1.39,1.1,1.29,1.29,0,0,0,.65.55,5.84,5.84,0,0,0,1.56-.12,73.71,73.71,0,0,1,8.79-.43,35.65,35.65,0,0,1,4,.14,5,5,0,0,1,1.84.63,3.55,3.55,0,0,1,1,.93,2,2,0,0,1,.5,1,1,1,0,0,1-.19.53.85.85,0,0,0-.15.62,6.91,6.91,0,0,1,.15.91c.19,2.05.52,3.3,1,3.75s.36,1.16-.24,2.35a9.85,9.85,0,0,1-2,2.54,17.43,17.43,0,0,1-2.21,2,7.38,7.38,0,0,0-.74.5,7,7,0,0,1-.77.53,7.37,7.37,0,0,1-.79.41,25.63,25.63,0,0,1-4.8,1.78c-1.09.19-1.74.29-2,.31a.62.62,0,0,1-.5-.17c-.13-.16-.21-.19-.24-.1-.13.26-.22.28-.29,0a.62.62,0,0,1,0-.33v-.44a.44.44,0,0,0-.19.29c-.06.22-.06.19-.09.19s-.08,0-.15-.14a.52.52,0,0,0-.38-.24c-.07,0-.11,0-.12-.07a.25.25,0,0,1,0-.17.31.31,0,0,0,0-.19c0-.07-.11-.1-.24-.1a.44.44,0,0,1-.43-.21c-.06-.15-.13-.12-.19.07s-.24.4-.34.24a.31.31,0,0,1,0-.19c0-.1-.08-.18-.22-.24l-.38-.17c-.12,0-.16-.12-.12-.22S53,281.55,52.8,281.55Zm12.38-13.3c-.25,0-.38,0-.38-.12s-.06-.07-.19,0a.63.63,0,0,1-.46.12,1.22,1.22,0,0,1-.55-.17.14.14,0,0,0-.2,0h0c-.06.09-.14.13-.21.09a.21.21,0,0,0-.24,0,.3.3,0,0,1-.27.05.25.25,0,0,0-.19.12l-.17.22q-.08.09-.12,0a.34.34,0,0,1,0-.34v-.14s-.09,0-.19.14a1,1,0,0,1-.38.24l-.44.36-.13.18a.26.26,0,0,0-.19-.09,1.14,1.14,0,0,0-.41.07.39.39,0,0,0-.26.21c-.1.1-.19.12-.27.05s-.2-.05-.36,0-.16.14-.19.14,0-.06,0-.19a.61.61,0,0,0,0-.19.11.11,0,0,0-.12-.05.35.35,0,0,0-.07.31.35.35,0,0,1-.12.32c-.13.09-.2.11-.2,0-3.16.71-5,1.14-5.47,1.3a4.18,4.18,0,0,0-.6.19,1,1,0,0,0-.33.24,1.07,1.07,0,0,0-.15.22,2.32,2.32,0,0,0-.07.38,2.61,2.61,0,0,1-.14.55c-.1.39-.24,1.16-.44,2.31s-.3,1.87-.33,2.16c0,.13,0,.2.17.21a8.34,8.34,0,0,0,1,0,10,10,0,0,0,1.1-.15,4.64,4.64,0,0,0,.82-.19c.19-.06.46-.17.81-.31s.63-.25.82-.31a3.16,3.16,0,0,0,.5-.22c.31-.14.6-.27.89-.38a2.28,2.28,0,0,1,.58-.17.48.48,0,0,0,.36-.12,5.17,5.17,0,0,1,1.1-.33,15.45,15.45,0,0,0,1.94-1,7.93,7.93,0,0,0,1-.62,11.42,11.42,0,0,0,3-2.21,7.29,7.29,0,0,0,1-1.13,1.08,1.08,0,0,0,.14-.8,1.83,1.83,0,0,0-.77-1c-.13-.1-.19-.1-.19,0S65.44,268.25,65.18,268.25Zm-12,14.45a.3.3,0,0,1,0-.29c.06-.22.12-.24.19,0v.48Zm.56,2.64q.12,0,.12.15c0,.09,0,.14-.12.14s-.12-.05-.12-.14S53.67,285.34,53.79,285.34Z" transform="translate(-0.05)"/><path class="cls-2" d="M74.55,267.68c0-.39.09-.58.28-.58a.37.37,0,0,0,.22-.1l.25-.19c.06-.05.11,0,.14,0a.65.65,0,0,0,.34,0c.2-.06.31-.07.38,0s.14.12.14,0,.19-.32.56-.39a1.18,1.18,0,0,0,.6-.19c.12-.1.22-.12.28-.07s.08.17,0,.36,0,.15,0,.17,0,0,.07-.08a2.31,2.31,0,0,0,.1-.28,1.43,1.43,0,0,1,.09-.27h.24a.64.64,0,0,0,.36-.08c.14-.08.25-.15.31-.12s.1,0,.1-.09.08-.19.24,0a.44.44,0,0,1,.19.29v-.15q0-.29.09-.33a.28.28,0,0,1,.22,0,.48.48,0,0,0,.31-.07.16.16,0,0,1,.23,0h0c.1.08.16.12.19.12s.13,0,.1-.09h.24a1.62,1.62,0,0,0,.58-.07c.2-.07.28-.08.28-.14s.26-.12.77-.17a13.55,13.55,0,0,1,1.56-.05c.53,0,.79.06.79.12s0,.08.1,0a1.56,1.56,0,0,1,.74-.09,1.61,1.61,0,0,1,.84.14.14.14,0,0,0,.17-.09c0-.09.14,0,.26.14s.25.22.25.1,0-.25.14-.27.16,0,.19.17.15.26.27.1.19-.2.26-.1.18.1.43.1a1.21,1.21,0,0,1,.53.09,10.08,10.08,0,0,1,2.78,1.83,1.26,1.26,0,0,1,.2,1.24,2.17,2.17,0,0,1-.77,1,3.6,3.6,0,0,1-.77.36c-.32.11-.7.23-1.15.34l-1,.26a5.74,5.74,0,0,1-.82.19,3.48,3.48,0,0,0-1,.34,4.17,4.17,0,0,1-1.11.14,5,5,0,0,0-1.27.2,5.11,5.11,0,0,1-1.17.19,4.2,4.2,0,0,0-1.16.19q-.57.09-.69.36a4,4,0,0,0-.08,1.37,6.91,6.91,0,0,1-.28,1.92c-.29,1-.35,1.57-.19,1.73s.47.06,1.12-.1a3.43,3.43,0,0,0,1.13-.38c.19-.13.82-.08,1.9.16a8.7,8.7,0,0,1,2,.6.56.56,0,0,1,.24.39c0,.13-.08.19-.24.19a.17.17,0,0,0-.19.15h0c0,.07-.13.22-.39.46s-.36.4-.33.48,0,.17-.15.26-.17.18-.14.24-.1.25-.39.46-.43.34-.43.41,0,.06-.09.09l-.22.1-.21.09c-.2.16-.26.24-.2.24h.13c.19,0,.16.07-.1.2l-1.4.78c-.06.1-.3.2-.72.29-1.31.35-2,.55-2.06.58a2,2,0,0,0-.1.91,7.88,7.88,0,0,1-.21,1.18,4.22,4.22,0,0,0-.17,1.12c0,.55-.07.85-.2.92l-.09-.2c0-.16-.08-.12-.14.1a1.93,1.93,0,0,1,0,.34c-.07.51-.15.8-.24.86s-.06,0-.07,0a.61.61,0,0,1,0-.19.48.48,0,0,0-.1-.43c-.06-.07-.11,0-.14.09V288c0,.55.14.87.34,1s.52.07,1-.12a4,4,0,0,1,.89-.34l1.11-.24c.46-.1.85-.19,1.17-.29a7.59,7.59,0,0,1,1.49-.24,1.44,1.44,0,0,0,.53-.14c.32-.14.51-.18.57-.15a.25.25,0,0,0,.24,0,1.85,1.85,0,0,1,.84-.16,4,4,0,0,0,.84-.12c.26-.2,1-.18,2.21,0a8.94,8.94,0,0,1,1.9.53c.53.23.79.45.79.67v.22h-.11a.21.21,0,0,0-.15.05c0,.07-.1.09-.21.07s-.17.06-.17.22a.39.39,0,0,1-.31.22.38.38,0,0,0-.32.21q-.24.28-.24.12c0-.11-.08-.13-.26-.05s-.26.09-.26,0,0-.15-.13-.15-.1.08-.07.24a.31.31,0,0,1-.09.39c-.13.13-.24.16-.34.09s-.06,0-.09.12a1.82,1.82,0,0,1-.15.27c-.06.09-.13.13-.19.09s-.23.05-.29.24-.19.34-.29.24a.61.61,0,0,1,0-.19q0-.24-.24.15t-.27.21c-.08-.08-.21-.07-.41,0s-.28.25-.28.19l-.29.19v.14a.13.13,0,0,1-.1.15c-.1,0-.09,0-.09-.1a.14.14,0,0,1,0-.09c0-.2,0-.23-.15-.1a.18.18,0,0,0-.08.23h0a.16.16,0,0,1,0,.22h0q-.24.19-.24,0c0-.13,0-.09-.14.12a.43.43,0,0,1-.39.31c-.16,0-.24,0-.24.1s-.21.14-.62.24a29.27,29.27,0,0,0-4.08,1.29,11,11,0,0,1-2.4.63l-.32.14a2.19,2.19,0,0,1-.43.15h-.45a1.38,1.38,0,0,1-.6.1,12,12,0,0,1-1.69-.07c-.13,0-.23-.08-.31-.24s-.19-.22-.31-.19-.29,0-.29-.09-.18-.16-.53-.17-.55-.06-.58-.12-.13-.1-.31-.1-.26,0-.26-.12-.08-.12-.24-.12a1.55,1.55,0,0,1-.82-.53,2.12,2.12,0,0,1-.62-.91,2.92,2.92,0,0,1-.15-.93q0-.51.15-.6a2.14,2.14,0,0,1,1-.15c.53,0,1.06,0,1.59-.05s.72-.12.72-.28.09-.1.29-.1c.35,0,.38-.3.09-.91a2.42,2.42,0,0,1-.29-.87c0-.28-.06-.94-.09-2a8.63,8.63,0,0,0-.15-2.38c-.09-.11-.11-.21,0-.29s0-.23-.22-.45a1.55,1.55,0,0,0-1-.41,3.16,3.16,0,0,1-1.56-.75,4.47,4.47,0,0,1-1.08-1,2,2,0,0,1-.31-1.05c-.06-.48,0-.77.1-.87a2.87,2.87,0,0,1,1.2-.14,5.05,5.05,0,0,0,1.63-.26q.48-.23.57-.12c.1.09.27.06.51-.1a1,1,0,0,0,.41-.43v-1c.07-.13.16-.13.29,0s.15.1.15,0a.33.33,0,0,0,0-.14c-.13-.58-.16-.87-.1-.87s.1,0,.1-.14v-.24a10.71,10.71,0,0,1,.07-1.13,14.22,14.22,0,0,0,.07-1.73c0-.5-.06-.74-.19-.74s-.18.11-.24.33-.14.12-.24-.14a1,1,0,0,0-.14-.24h-.08a.61.61,0,0,1-.14.1.81.81,0,0,1-.31,0c-.29,0-.43-.06-.43-.19s-.12-.11-.34.05-.21.11-.24.05a.31.31,0,0,0-.24-.1c-.1,0-.18-.06-.24-.19s-.19-.26-.29-.19-.09,0-.17-.12a1.46,1.46,0,0,1-.21-.48,3.61,3.61,0,0,1-.15-.65,2.06,2.06,0,0,1,.82-2.26c1.12-.83,1.78-1.2,2-1.1a.14.14,0,0,0,.17,0l.14-.2a.1.1,0,0,1,.1-.1h0a1.4,1.4,0,0,1,.22.31Z" transform="translate(-0.05)"/><path class="cls-2" d="M99.17,287a2.53,2.53,0,0,1-.29.7,2,2,0,0,0-.29.79c0,.26,0,.38-.09.38s-.21.2-.34.6a2,2,0,0,0-.14.84,1.43,1.43,0,0,1-.27,1,2.72,2.72,0,0,1-.69.92q-.24.13-.24.24c0,.09-.09.23-.27.4s-.31.27-.4.27-.26.06-.29.19c-.16.45-.51.34-1.06-.34a3.43,3.43,0,0,1-.81-1.34,11.08,11.08,0,0,1-.15-2.3,24.28,24.28,0,0,0-.24-4c-.06-.32,0-.48.1-.48a.33.33,0,0,0,.31-.31.64.64,0,0,0-.22-.55l-.19-.26s0-.05.1-.1a.27.27,0,0,0,.09-.22c0-.06,0-.08-.09,0V283c.09-.35.17-.53.24-.53s.14-.19,0-.48c-.13-.12-.16-.36-.1-.72s.08-.33.15-.33.13,0,.19-.15a.51.51,0,0,0-.07-.38,1.59,1.59,0,0,1-.15-.29c0-.06.08-.16.27-.29s.32-.25.29-.38-.1-.06-.2,0a.12.12,0,0,1-.17,0,.14.14,0,0,1,0-.07,1.35,1.35,0,0,0,.19-.33c.16-.32.21-.51.15-.58a2.33,2.33,0,0,1,0-1.05c0-.13.09-.56.17-1.28s.16-1.4.26-2a8.76,8.76,0,0,1,.24-1.24,10.06,10.06,0,0,0,.31-1.23c.15-.65.23-1.05.27-1.17a6.22,6.22,0,0,0,.14-1.49,2.65,2.65,0,0,0-.14-1.15c-.2-.23.1-.44.88-.65a7.26,7.26,0,0,1,1.66-.31,2.18,2.18,0,0,1,1.79,1.13c.46.51.69.86.69,1.06s.12.3.34.52a2.26,2.26,0,0,0,.77.53,4.11,4.11,0,0,1,1.51,1.3,7.55,7.55,0,0,1,1.18,2.06l.76,1.87c.36.87.6,1.49.72,1.88a36.19,36.19,0,0,0,1.56,3.48A8.81,8.81,0,0,0,108.9,283q.1,0,.36-.72c.18-.48.37-1,.58-1.68s.34-1,.41-1.2a34.16,34.16,0,0,0,1.25-4.56,18.87,18.87,0,0,0,.24-3,27.28,27.28,0,0,0,0-2.86,5.58,5.58,0,0,0-.12-1,1.07,1.07,0,0,0-.36-.48c-.26-.25-.45-.38-.58-.38a.83.83,0,0,1-.55-.34.9.9,0,0,1-.31-.57c0-.26.33-.59,1-1a3.59,3.59,0,0,1,2.52-.17,3.4,3.4,0,0,1,1.89,1c.32.24.66.46,1,.67a6.69,6.69,0,0,1,.89.7,7.08,7.08,0,0,1,.7.84,3.32,3.32,0,0,1,.57,1c.16.4.21.63.15.7s0,.22,0,.48a14.35,14.35,0,0,1,.12,2.78,29.84,29.84,0,0,1-.17,3.41c-.36,2.24-.56,3.44-.63,3.6s-.27.74-.62,1.85a18.46,18.46,0,0,1-.67,1.89q-.21.36-.39.75a8.89,8.89,0,0,1-.45.84,4.31,4.31,0,0,1-.51.62,5.27,5.27,0,0,0-.43.72,1.48,1.48,0,0,1-.72.72c0-.19-.06-.22-.19-.09a.62.62,0,0,0-.14.28c-.07.23-.19.32-.36.29s-.29,0-.32.19-.12.29-.19.29-.11.07-.14.19-.06.23-.07.29-.09,0-.22,0-.17-.08-.22,0a.86.86,0,0,0-.16.38c-.13.32-.31.48-.53.48a.77.77,0,0,0-.36.12,1.12,1.12,0,0,0-.36.29c-.1.11-.11.18,0,.21a8.2,8.2,0,0,1-1.2.82.13.13,0,0,0-.12,0l-.07.09q0,.15-.15,0c-.09-.12-.14-.12-.14,0s0,.16-.12,0-.12-.14-.12,0-.35.42-1,.48a1.81,1.81,0,0,1-1.34-.24,1.43,1.43,0,0,1-.45-.61.83.83,0,0,1,0-.69,1.15,1.15,0,0,0,.14-.51.33.33,0,0,1,0-.14h.08c.08,0,.08,0,.14-.1l.19-.33a.67.67,0,0,0,.1-.34,7.23,7.23,0,0,0-1.13-1.34c-.75-.8-1.13-1.29-1.13-1.47a.48.48,0,0,0-.21-.41,6,6,0,0,1-1-1.44q-2.2-3.69-2.49-3.69c-.07,0-.1.11-.1.33s0,.29-.1.29a6,6,0,0,0-.38,2,3.93,3.93,0,0,1-.19.89,5.82,5.82,0,0,0-.24,1c-.1.64-.18,1.07-.24,1.3a1.13,1.13,0,0,1,0,.26,1,1,0,0,1,0,.24s0,.07-.08.07S99.17,286.86,99.17,287Z" transform="translate(-0.05)"/><path class="cls-2" d="M124.8,267.68c0-.39.1-.58.29-.58a.39.39,0,0,0,.19-.12l.24-.19c.07-.05.11,0,.15,0a.62.62,0,0,0,.33,0c.19-.06.32-.07.39,0s.14.12.14,0,.18-.32.55-.39.57-.13.6-.19.23-.12.29-.07.08.17,0,.36a.49.49,0,0,0,0,.17l.08-.08a1.31,1.31,0,0,0,.09-.28.88.88,0,0,1,.1-.27h.24a.64.64,0,0,0,.36-.08c.15-.08.25-.15.31-.12s.1,0,.1-.09.08-.19.24,0a.44.44,0,0,1,.19.29c0,.06,0,.09,0,.09s0,.11,0-.05v-.19c0-.19,0-.3.1-.33a.28.28,0,0,1,.22,0,.48.48,0,0,0,.31-.07q.09-.09.24,0a.39.39,0,0,0,.19.12c.1,0,.13,0,.1-.09h.24a5.54,5.54,0,0,0,.57-.07c.19,0,.29-.08.29-.14s.26-.12.77-.17a13.55,13.55,0,0,1,1.56-.05c.53,0,.79.06.79.12s0,.08.1,0a1.56,1.56,0,0,1,.74-.09,1.61,1.61,0,0,1,.84.14.17.17,0,0,0,.17-.09c0-.09.13,0,.26.14s.24.22.24.1,0-.25.15-.27.16,0,.19.17.15.26.26.1.2-.2.27-.1.17.1.43.1a1.21,1.21,0,0,1,.53.09,10.08,10.08,0,0,1,2.78,1.83,1.26,1.26,0,0,1,.19,1.24,2.17,2.17,0,0,1-.77,1,3.53,3.53,0,0,1-.76.36c-.32.11-.71.23-1.16.34l-1,.26a5.74,5.74,0,0,1-.82.19,4,4,0,0,0-1.06.34,4.1,4.1,0,0,1-1.1.14,5,5,0,0,0-1.27.2,5.19,5.19,0,0,1-1.18.19,4.07,4.07,0,0,0-1.15.19c-.38.06-.62.18-.7.36a4.2,4.2,0,0,0-.07,1.37,6.57,6.57,0,0,1-.29,1.92c-.28,1-.35,1.57-.19,1.73s.47.06,1.13-.1a3.77,3.77,0,0,0,1.13-.38c.19-.13.82-.08,1.89.16a8.7,8.7,0,0,1,2,.6.56.56,0,0,1,.24.39c0,.13-.08.19-.24.19s-.2.06-.2.19-.12.22-.38.46-.37.4-.34.48,0,.17-.14.26-.18.18-.14.24-.1.25-.39.46-.43.34-.43.41,0,.06-.1.09l-.21.1-.22.09c-.19.16-.25.24-.19.24h.1c.19,0,.16.07-.1.2l-1.39.76a1.47,1.47,0,0,1-.72.29c-1.31.35-2,.55-2.07.58a2.32,2.32,0,0,0-.09.91,7.91,7.91,0,0,1-.22,1.18,4.74,4.74,0,0,0-.17,1.12c0,.55-.06.85-.19.92l-.09-.2c0-.16-.08-.12-.15.1a1,1,0,0,1,0,.34c-.06.51-.14.8-.24.86s0,0-.07,0a.31.31,0,0,1,0-.19.48.48,0,0,0-.1-.43c-.06-.07-.11,0-.14.09V288c0,.55.14.87.33,1s.53.07,1-.12a4,4,0,0,1,.89-.34l1.1-.24c.47-.1.86-.19,1.18-.29a7.59,7.59,0,0,1,1.49-.24,1.34,1.34,0,0,0,.52-.14c.32-.14.52-.18.58-.15a.25.25,0,0,0,.24,0c0-.06.31-.12.84-.16a4,4,0,0,0,.84-.12c.26-.2,1-.18,2.21,0a8.85,8.85,0,0,1,1.89.53c.53.23.8.45.8.67v.22h-.12a.24.24,0,0,0-.14.05c0,.07-.11.09-.22.07s-.17.06-.17.22a.37.37,0,0,1-.31.22.33.33,0,0,0-.31.21q-.24.28-.24.12c0-.11-.09-.13-.26-.05s-.27.09-.27,0,0-.15-.12-.15-.1.08-.07.24a.32.32,0,0,1-.1.39c-.12.13-.24.16-.33.09s-.07,0-.1.12a1,1,0,0,1-.14.27c-.05.09-.13.13-.19.09s-.23.05-.29.24-.19.34-.29.24a.61.61,0,0,1,0-.19q0-.24-.24.15c-.09.22-.18.29-.26.21s-.22-.07-.41,0-.29.25-.29.19l-.29.19v.14a.14.14,0,0,1-.09.15c-.09,0-.1,0-.1-.1a.14.14,0,0,1,0-.09c0-.2,0-.23-.14-.1a.17.17,0,0,0-.09.21h0a.17.17,0,0,1-.06.23h0q-.24.19-.24,0t-.15.12c-.09.21-.22.31-.38.31s-.24,0-.24.1-.21.14-.63.24a30.67,30.67,0,0,0-4.08,1.29,11,11,0,0,1-2.4.63l-.31.14a3.12,3.12,0,0,1-.43.15h-.46a1.23,1.23,0,0,1-.6.1,12.28,12.28,0,0,1-1.6-.1.36.36,0,0,1-.32-.24c-.08-.16-.18-.22-.31-.19s-.29,0-.29-.09-.17-.16-.52-.17-.55-.06-.58-.12-.14-.1-.31-.1-.27,0-.27-.12-.08-.12-.24-.12a1.48,1.48,0,0,1-.81-.53,2.3,2.3,0,0,1-.63-.91,3.22,3.22,0,0,1-.14-.93c0-.34,0-.54.14-.6a2.13,2.13,0,0,1,1.06-.15c.53,0,1,0,1.58-.05s.72-.12.72-.28.1-.1.29-.1c.35,0,.39-.3.1-.91a2.42,2.42,0,0,1-.29-.87c0-.28-.06-.94-.1-2a8.62,8.62,0,0,0-.14-2.38c-.1-.11-.11-.21,0-.29s0-.23-.21-.45a1.55,1.55,0,0,0-1-.41,3.16,3.16,0,0,1-1.56-.75,4.47,4.47,0,0,1-1.08-1,2,2,0,0,1-.31-1.05q-.11-.72.09-.87a2.87,2.87,0,0,1,1.2-.14,4.76,4.76,0,0,0,1.63-.26c.32-.15.52-.19.58-.12s.26.06.5-.1.38-.3.41-.43a8.34,8.34,0,0,1,0-1c.06-.13.16-.13.29,0s.14.1.14,0a.33.33,0,0,0,0-.14c-.12-.58-.16-.87-.09-.87s.09,0,.09-.14v-.24a8.47,8.47,0,0,1,.08-1.13,12.25,12.25,0,0,0,.09-1.71c0-.5-.07-.74-.19-.74s-.18.11-.24.33-.15.12-.24-.14a1,1,0,0,0-.15-.24h-.07a.45.45,0,0,1-.14.1.86.86,0,0,1-.32,0c-.28,0-.43-.06-.43-.19s-.11-.11-.33.05-.21.11-.24.05a.35.35,0,0,0-.24-.1c-.1,0-.18-.06-.24-.19s-.2-.26-.29-.19-.09,0-.17-.12a1.74,1.74,0,0,1-.22-.48,4.69,4.69,0,0,1-.14-.65,2.06,2.06,0,0,1,.82-2.26c1.12-.83,1.77-1.2,2-1.1a.14.14,0,0,0,.17,0,1,1,0,0,0,.15-.2.1.1,0,0,1,.1-.1h0a1.4,1.4,0,0,1,.22.31Z" transform="translate(-0.05)"/><path class="cls-2" d="M172.39,270.13c0,.12-.28.2-.84.21s-.84.12-.84.31-.07.2-.22.29a.43.43,0,0,1-.36.1l-.48.31a.55.55,0,0,1-.24.12c-.19,0-.3,0-.33.1s-.16.11-.36.14l-.65.1h-.43a4.27,4.27,0,0,1-1,.17c-.53,0-1.16.09-1.88.12h-1.17l-2.52.14-2.67.15-1.25.09-.23.87a21.85,21.85,0,0,0-.77,3.17c0,.16,0,.25.24.28a11.72,11.72,0,0,0,1.87-.09,10.39,10.39,0,0,1,4.37.81,5.31,5.31,0,0,0,1.29.44.28.28,0,0,1,.31.19c0,.13.32.32.8.57a7.49,7.49,0,0,1,2.23,2,9.32,9.32,0,0,1,1.51,2.61,8.06,8.06,0,0,1,.38,4.13,6.78,6.78,0,0,0-.19,1,6.82,6.82,0,0,1-.74,1.54,8.18,8.18,0,0,1-1,1.48q-2.59,2.55-3.7,2.88a5.25,5.25,0,0,0-.55.22l-1,.41a1.8,1.8,0,0,1-.51.17,1.85,1.85,0,0,0-.41.07,6.73,6.73,0,0,1-1.1.12c-.57,0-1,.09-1.1.12a.7.7,0,0,1-.58-.07.85.85,0,0,0-.62-.12q-.3.09-.39,0c-.06-.1,0-.18.14-.24h.34a.56.56,0,0,0-.09-.17q-.15-.24-.27-.09c-.08.09-.14.14-.17.14-.25,0-.38,0-.38.24s-.1.12-.29-.12a.67.67,0,0,0-.62-.31.87.87,0,0,0-.27.14l-.14.12a.19.19,0,0,1-.12-.07c-.06-.07-.16-.14-.19-.05s-.14.19-.22.17-.12-.09-.12-.21-.05-.12-.17-.05-.2.05-.26,0a.23.23,0,0,0-.22-.1h-.33c-.12,0-.17,0-.17-.07s-.11-.07-.34-.12l-.64-.12h-.37l-.09-.1a.28.28,0,0,1-.07-.31v-.17a.72.72,0,0,0-.5.29c-.18.19-.3.24-.36.14s0-.09.09-.19.23-.3,0-.33a.55.55,0,0,0-.33.07c-.07,0-.1,0-.1-.12v-.1c0-.22,0-.33-.19-.31a2,2,0,0,0-.48.12c-.16.06-.26,0-.29-.14s-.07-.19-.21-.17-.3-.14-.46-.46a1.42,1.42,0,0,0-.26-.38.19.19,0,0,0-.17.14c-.06.14-.19.19-.19.17a.49.49,0,0,1,0-.17c.06-.16,0-.24-.1-.24a.9.9,0,0,1-.24-.12l-.36-.24c-.11-.08-.18-.1-.19-.07s-.05,0-.1-.07l-.14-.24c0-.08-.11-.11-.17-.07s-.33-.11-.7-.41a5.56,5.56,0,0,1-.84-.84,4,4,0,0,1-.38-.87l-.15-.52c.29-.25.57-.52.84-.8s.65-.63.85-.79v.48a1.31,1.31,0,0,0,.46.77q.36.28.36.48c0,.16.17.39.53.7a2.4,2.4,0,0,0,1,.55,8.56,8.56,0,0,1,1,.24,11.13,11.13,0,0,0,2,0,9.91,9.91,0,0,0,2.24-.31l.84-.22.64-.16a2.34,2.34,0,0,0,.58-.2c.26-.1.56-.22.91-.38.8-.42,1.22-.62,1.25-.62a6.56,6.56,0,0,0,1.7-1.11,16.43,16.43,0,0,0,2-1.73,4.12,4.12,0,0,0,1.25-2.78,1.9,1.9,0,0,0-.72-1.73,6.5,6.5,0,0,0-2.93-.43c-.57,0-1.66.16-3.26.38-1.22.2-1.91.48-2.06.87a.75.75,0,0,1-.44.38,6.76,6.76,0,0,1-1.34.19,2.39,2.39,0,0,1-1.54-.52,6.6,6.6,0,0,1-1.49-1.3,2,2,0,0,1-.43-1.25,1,1,0,0,1,.2-.67.3.3,0,0,0,.14-.26,1.62,1.62,0,0,0-.07-.44l-.12-.4a4.18,4.18,0,0,0-.19-.92,10.87,10.87,0,0,1-.2-2.35,7.9,7.9,0,0,0-.09-1.68.83.83,0,0,0-.29-.48,6.74,6.74,0,0,0-.87-.38,4,4,0,0,1-.81-.39,1,1,0,0,0-.48-.14c-.1,0-.37-.21-.82-.62a5.56,5.56,0,0,1-1-1.11,2.36,2.36,0,0,1-.26-1.08c0-.56,0-.87.07-.93a2,2,0,0,1,1-.1,2.54,2.54,0,0,1,1.18.29,2,2,0,0,0,.82.24,10,10,0,0,0,1.34-.15,2.84,2.84,0,0,0,.91-.19.72.72,0,0,0,.24-.43,4.25,4.25,0,0,0-.14-2.21,2.81,2.81,0,0,1-.2-1.25c0-.12.43-.19,1.18-.19a4.5,4.5,0,0,1,1.32.1,3.13,3.13,0,0,1,.6.24,1.57,1.57,0,0,0,.55.19,5.07,5.07,0,0,1,1.2.91,3.1,3.1,0,0,1,.92,1.2,1,1,0,0,0,.52.58,36.54,36.54,0,0,0,4.44,0c2.77-.08,5.61-.1,8.52-.2a16.7,16.7,0,0,1,2,.05,5.75,5.75,0,0,1,2.16.48,2.68,2.68,0,0,1,1.53,1.63.66.66,0,0,1,0,.44,1.68,1.68,0,0,1-.41.43,1.84,1.84,0,0,1-.57.38,3.75,3.75,0,0,1-.82,0C172.72,270,172.39,270,172.39,270.13Z" transform="translate(-0.05)"/><path class="cls-2" d="M178.51,267.68c0-.39.1-.58.29-.58A.39.39,0,0,0,179,267l.24-.19c.07-.05.12,0,.15,0a.62.62,0,0,0,.33,0c.19-.06.32-.07.39,0s.14.12.14,0,.19-.32.55-.39.57-.13.6-.19.23-.12.29-.07.08.17,0,.36,0,.15,0,.17,0,0,.07-.08a1.31,1.31,0,0,0,.09-.28,1.48,1.48,0,0,1,.1-.27h.24a.64.64,0,0,0,.36-.08c.14-.08.25-.15.31-.12s.1,0,.1-.09.08-.19.24,0a.44.44,0,0,1,.19.29c0,.06,0,.09,0,.09s0,.11,0-.05v-.19q0-.28.09-.33a.28.28,0,0,1,.22,0,.48.48,0,0,0,.31-.07q.09-.09.24,0c.1.06.16.12.19.12s.13,0,.1-.09h.24a5.54,5.54,0,0,0,.57-.07c.2,0,.29-.08.29-.14s.26-.12.77-.17a13.55,13.55,0,0,1,1.56-.05c.53,0,.79.06.79.12s0,.08.1,0a1.56,1.56,0,0,1,.74-.09,1.61,1.61,0,0,1,.84.14.14.14,0,0,0,.17-.09c0-.09.14,0,.26.14s.24.22.24.1,0-.25.15-.27.16,0,.19.17.15.26.26.1.2-.2.27-.1.17.1.43.1a1.21,1.21,0,0,1,.53.09,10.08,10.08,0,0,1,2.78,1.83,1.26,1.26,0,0,1,.19,1.24,2.15,2.15,0,0,1-.76,1,3.6,3.6,0,0,1-.77.36c-.32.11-.71.23-1.15.34l-1,.26a5.74,5.74,0,0,1-.82.19,3.48,3.48,0,0,0-1,.34,4.17,4.17,0,0,1-1.11.14,5,5,0,0,0-1.27.2,5.19,5.19,0,0,1-1.18.19,4.07,4.07,0,0,0-1.15.19q-.57.09-.69.36a4,4,0,0,0-.08,1.37,6.91,6.91,0,0,1-.28,1.92c-.29,1-.36,1.57-.2,1.73s.48.06,1.13-.1a3.77,3.77,0,0,0,1.13-.38c.19-.13.82-.08,1.9.16a8.7,8.7,0,0,1,2,.6.56.56,0,0,1,.24.39c0,.13-.08.19-.24.19a.17.17,0,0,0-.19.15h0c0,.07-.13.22-.39.46s-.37.4-.33.48,0,.17-.15.26-.17.18-.14.24-.1.25-.39.46-.43.34-.43.41,0,.06-.09.09l-.22.1-.22.09c-.19.16-.25.24-.19.24h.1c.19,0,.16.07-.1.2l-1.39.76c-.06.1-.3.2-.72.29-1.31.35-2,.55-2.06.58a2,2,0,0,0-.1.91,6.81,6.81,0,0,1-.22,1.18,4.73,4.73,0,0,0-.16,1.12c0,.55-.07.85-.2.92l-.09-.2c0-.16-.08-.12-.15.1a1.93,1.93,0,0,1,0,.34c-.07.51-.15.8-.24.86s-.06,0-.08,0a.31.31,0,0,1,0-.19.48.48,0,0,0-.1-.43c-.06-.07-.11,0-.14.09V288c0,.55.14.87.33,1s.53.07,1-.12a4,4,0,0,1,.89-.34l1.1-.24c.47-.1.86-.19,1.18-.29a7.59,7.59,0,0,1,1.49-.24,1.44,1.44,0,0,0,.53-.14c.32-.14.51-.18.57-.15a.25.25,0,0,0,.24,0c0-.06.31-.12.84-.16a4,4,0,0,0,.84-.12c.26-.2,1-.18,2.21,0a8.94,8.94,0,0,1,1.9.53c.52.23.79.45.79.67v.22h-.12a.24.24,0,0,0-.14.05c0,.07-.1.09-.22.07s-.16.06-.16.22a.4.4,0,0,1-.32.22.38.38,0,0,0-.31.21q-.24.28-.24.12c0-.11-.09-.13-.26-.05s-.27.09-.27,0,0-.15-.12-.15-.1.08-.07.24a.31.31,0,0,1-.09.39c-.13.13-.24.16-.34.09s-.06,0-.1.12a1.36,1.36,0,0,1-.14.27c0,.09-.13.13-.19.09s-.23.05-.29.24-.19.34-.29.24a.41.41,0,0,1-.05-.19q0-.24-.24.15c-.09.22-.18.29-.26.21s-.22-.07-.41,0-.29.25-.29.19l-.28.19v.14a.13.13,0,0,1-.1.15c-.1,0-.1,0-.1-.1a.14.14,0,0,1,0-.09c0-.2,0-.23-.15-.1a.18.18,0,0,0-.08.23h0a.17.17,0,0,1-.06.23h0q-.24.19-.24,0t-.15.12c-.09.21-.22.31-.38.31s-.24,0-.24.1-.21.14-.62.24a29.27,29.27,0,0,0-4.08,1.29,11,11,0,0,1-2.4.63l-.32.14a2.19,2.19,0,0,1-.43.15h-.45a1.36,1.36,0,0,1-.6.1,11.8,11.8,0,0,1-1.57-.08c-.13,0-.23-.08-.31-.24s-.19-.22-.32-.19-.28,0-.28-.09-.18-.16-.53-.17-.55-.06-.58-.12-.13-.1-.31-.1-.26,0-.26-.12-.08-.12-.24-.12a1.55,1.55,0,0,1-.82-.53,2.12,2.12,0,0,1-.62-.91,2.92,2.92,0,0,1-.15-.93q0-.51.15-.6a2.14,2.14,0,0,1,1-.15c.53,0,1.06,0,1.59-.05s.72-.12.72-.28.09-.1.28-.1c.36,0,.39-.3.1-.91a2.42,2.42,0,0,1-.29-.87c0-.28-.06-.94-.09-2a8.63,8.63,0,0,0-.15-2.38c-.09-.11-.11-.21,0-.29s0-.23-.21-.45a1.55,1.55,0,0,0-1-.41,3.16,3.16,0,0,1-1.56-.75,4.47,4.47,0,0,1-1.08-1,2,2,0,0,1-.31-1.05,1.2,1.2,0,0,1,.09-.87,2.87,2.87,0,0,1,1.2-.14,4.81,4.81,0,0,0,1.64-.26q.48-.23.57-.12c.1.09.27.06.51-.1s.37-.3.4-.43a8.34,8.34,0,0,1,0-1c.07-.13.16-.13.29,0s.14.1.14,0a.33.33,0,0,0,0-.14c-.13-.58-.16-.87-.1-.87s.1,0,.1-.14v-.24a10.71,10.71,0,0,1,.07-1.13,14.22,14.22,0,0,0,.07-1.73c0-.5-.06-.74-.19-.74s-.18.11-.24.33-.15.12-.24-.14a1,1,0,0,0-.15-.24h-.07c-.07,0-.06.06-.14.1a.81.81,0,0,1-.31,0c-.29,0-.44-.06-.44-.19s-.11-.11-.33.05-.21.11-.24.05a.35.35,0,0,0-.24-.1c-.1,0-.18-.06-.24-.19s-.19-.26-.29-.19-.09,0-.17-.12a1.46,1.46,0,0,1-.21-.48,3.61,3.61,0,0,1-.15-.65,2.06,2.06,0,0,1,.82-2.26c1.12-.83,1.77-1.2,2-1.1a.12.12,0,0,0,.16,0,1,1,0,0,0,.15-.2.1.1,0,0,1,.14-.09c.05,0,.12.12.22.31Z" transform="translate(-0.05)"/><path class="cls-2" d="M238.32,265.33a27.76,27.76,0,0,1,3.73.67,8.44,8.44,0,0,1,2.54.84c.13.13.17.24.12.32s-.2.12-.46.12-.36,0-.4.12a3.08,3.08,0,0,1-1.11.36,6.41,6.41,0,0,0-1.46.48c-.29.16-.47.17-.53,0s-.13-.09-.19.1-.23.22-.6.26a1.34,1.34,0,0,0-.7.22.68.68,0,0,1-.48.24c-.45,0-.67.14-.67.43a9.4,9.4,0,0,1-.72,2.07,3,3,0,0,0-.26.64c-.08.24-.16.45-.22.63a2,2,0,0,1-.34.55,5.4,5.4,0,0,0-.55,1,5.71,5.71,0,0,1-.6,1.08,4.18,4.18,0,0,0-.57,1.16.24.24,0,0,1-.2.24,6.16,6.16,0,0,0-.33.55c-.19.33-.38.68-.55,1a3.06,3.06,0,0,0-.27.58c-.45.64-1.22,1.92-2.33,3.84s-1.83,3.24-2.18,4c-.22.54-.38.82-.46.82s-.18.16-.31.5-.26.69-.41,1.06a1.46,1.46,0,0,1-.36.64,1.3,1.3,0,0,0-.14.32,2.35,2.35,0,0,1-.22.45c-.08.13-.13.19-.16.19a1.75,1.75,0,0,0-.6.36,2.78,2.78,0,0,1-.56.41c-.06,0-.12.1-.19.29a1,1,0,0,1-.57.53c-.26.13-.36.23-.29.31s0,.18-.15.31a1.43,1.43,0,0,1-.57.19,3.49,3.49,0,0,0-.72.2,3.26,3.26,0,0,1-2.26.14,2.29,2.29,0,0,0-1.39.17,4.17,4.17,0,0,1-1.15.31c-.26,0-.61-.3-1.06-.79s-.56-.92-.33-1.27a1.47,1.47,0,0,0-.1-1.11l-.29-.89c-.13-.4-.25-.76-.38-1.08s-.24-.59-.34-.81a1.76,1.76,0,0,1-.29-.79c0-.21,0-.35-.14-.41a1.65,1.65,0,0,1-.29-.63q-.19-.57-.36-1.2-.09-.36-.21-.72a2,2,0,0,1-.2-.79c0-.24,0-.38-.09-.43a1.21,1.21,0,0,1-.22-.58q-.12-.5-.36-1.89c0-.26-.13-.94-.29-2s-.27-1.79-.33-2a9.36,9.36,0,0,1-.15-1.83,22.65,22.65,0,0,0-.16-3.19,8.46,8.46,0,0,0-.32-1.94,11.41,11.41,0,0,1-1.34-2.35c0-.1.14-.18.43-.24s.66-.13,1-.17a3.81,3.81,0,0,0,.67-.07,4.15,4.15,0,0,1,1.49.09c.77.13,1.17.24,1.2.34a.28.28,0,0,0,.26.19.42.42,0,0,1,.32.19,4.28,4.28,0,0,1,.91,1.2c0,.1.14.31.43.63a8.09,8.09,0,0,1,1.06,1.82,6.28,6.28,0,0,1,.62,1.73,4.21,4.21,0,0,0,.12,1,16.49,16.49,0,0,1,.17,2.33c.13,2.34.27,4.08.43,5.23.35,2.4.62,3.6.82,3.6a24,24,0,0,0,1.39-2.78c.06-.13.22-.43.48-.89s.41-.78.48-.94.25-.59.77-1.68a3,3,0,0,1,.64-1c.15-.08.22-.17.22-.29a1.28,1.28,0,0,1,.1-.43,4.11,4.11,0,0,1,.28-.6c.13-.22.21-.37.24-.43s.48-.85,1.25-2.16a19.76,19.76,0,0,1,1.26-2c.45-.58.61-.93.48-1.06h-.14c-.13.07-.25,0-.36-.19a1.91,1.91,0,0,0-.65-.58,3.79,3.79,0,0,1-1.32-1.46,2.81,2.81,0,0,1-.31-1.8c.06-.38.17-.61.33-.67a3,3,0,0,1,1.2.05,5.77,5.77,0,0,0,2.11-.15,45.24,45.24,0,0,1,4.9-.86A21.09,21.09,0,0,1,238.32,265.33Z" transform="translate(-0.05)"/><path class="cls-2" d="M243,267.68c0-.39.09-.58.29-.58a.28.28,0,0,0,.19-.12l.24-.19c.06-.05.11,0,.14,0a.65.65,0,0,0,.34,0c.19-.06.32-.07.38,0s.15.12.15,0,.18-.32.55-.39.57-.13.6-.19a.29.29,0,0,1,.29-.07c.07.05.08.17,0,.36s0,.15,0,.17,0,0,.07-.08a1.33,1.33,0,0,0,.1-.28,1.08,1.08,0,0,1,.07-.31h.24a.64.64,0,0,0,.36-.08c.14-.08.25-.15.32-.12s.09,0,.09-.09.08-.19.24,0a.44.44,0,0,1,.19.29v.09s0,.11,0,0v-.19c0-.19,0-.3.1-.33a.26.26,0,0,1,.21,0,.48.48,0,0,0,.31-.07.16.16,0,0,1,.23,0h0c.1.08.16.12.2.12s.12,0,.09-.09h.24a5.73,5.73,0,0,0,.58-.07c.19,0,.29-.08.29-.14s.25-.12.76-.17a13.55,13.55,0,0,1,1.56,0c.53,0,.8.06.8.12s0,.08.09-.05a2.78,2.78,0,0,1,1.59.05.14.14,0,0,0,.16-.09c0-.09.14,0,.27.14s.24.22.24.1,0-.25.14-.27.16,0,.19.17.16.26.27.1.2-.2.26-.1.18.1.43.1a1.08,1.08,0,0,1,.53.09,10.13,10.13,0,0,1,2.79,1.83,1.29,1.29,0,0,1,.19,1.24,2.17,2.17,0,0,1-.77,1,3.6,3.6,0,0,1-.77.36c-.32.11-.7.23-1.15.34l-1,.26a5.6,5.6,0,0,1-.81.19,3.55,3.55,0,0,0-1.06.34,4.1,4.1,0,0,1-1.1.14,5.1,5.1,0,0,0-1.28.2,5.11,5.11,0,0,1-1.17.19,4.07,4.07,0,0,0-1.15.19c-.39.06-.62.18-.7.36a4.2,4.2,0,0,0-.07,1.37,7.32,7.32,0,0,1-.29,1.92c-.29,1-.35,1.57-.19,1.73s.47.06,1.13-.1a3.45,3.45,0,0,0,1.12-.38,3.61,3.61,0,0,1,1.9.16,8.23,8.23,0,0,1,2,.6.53.53,0,0,1,.24.39c0,.13-.08.19-.24.19a.17.17,0,0,0-.19.15h0c0,.07-.13.22-.38.46s-.37.4-.34.48,0,.17-.14.26-.18.18-.15.24-.09.25-.38.46-.43.34-.43.41,0,.06-.1.09l-.22.1-.21.09c-.19.16-.26.24-.19.24h.09c.19,0,.16.07-.09.2l-1.4.76c-.06.1-.3.2-.72.29-1.31.35-2,.55-2.06.58a2.15,2.15,0,0,0-.1.91,7.88,7.88,0,0,1-.21,1.18,4.74,4.74,0,0,0-.17,1.12c0,.55-.06.85-.19.92l-.1-.2c0-.16-.08-.12-.14.1a1.93,1.93,0,0,1,0,.34c-.06.51-.14.8-.24.86s-.06,0-.07,0a.61.61,0,0,1,0-.19.48.48,0,0,0-.09-.43q-.11-.11-.15.09V288a1.19,1.19,0,0,0,.34,1c.19.13.53.07,1-.12a3.91,3.91,0,0,1,.88-.34l1.11-.24c.46-.1.85-.19,1.17-.29a7.59,7.59,0,0,1,1.49-.24,1.44,1.44,0,0,0,.53-.14c.32-.14.51-.18.58-.15a.25.25,0,0,0,.24,0c0-.06.31-.12.84-.16a4,4,0,0,0,.84-.12c.25-.2,1-.18,2.2,0a8.94,8.94,0,0,1,1.9.53c.53.23.79.45.79.67a.81.81,0,0,1,0,.22h-.12a.27.27,0,0,0-.15.05c0,.07-.1.09-.21.07s-.17.06-.17.22a.38.38,0,0,1-.31.22.33.33,0,0,0-.31.21q-.24.28-.24.12c0-.11-.09-.13-.27-.05s-.26.09-.26,0,0-.15-.12-.15-.11.08-.07.24a.32.32,0,0,1-.1.39c-.13.13-.24.16-.34.09s-.06,0-.09.12a1.17,1.17,0,0,1-.15.27c-.06.09-.12.13-.19.09s-.22.05-.29.24-.19.34-.28.24a.31.31,0,0,1,0-.19q0-.24-.24.15t-.27.21c-.08-.08-.21-.07-.4,0s-.29.25-.29.19l-.29.19v.14a.13.13,0,0,1-.1.15c-.1,0-.09,0-.09-.1a.11.11,0,0,1-.05-.09c0-.2,0-.23-.14-.1a.16.16,0,0,0-.1.2v0h0a.16.16,0,0,1,0,.22h0q-.24.19-.24,0c0-.13,0-.09-.14.12s-.23.31-.39.31-.24,0-.24.1-.2.14-.62.24a29.27,29.27,0,0,0-4.08,1.29,11,11,0,0,1-2.4.63l-.31.14a3.12,3.12,0,0,1-.43.15h-.27c-.09-.07-.16,0-.19,0a1.36,1.36,0,0,1-.6.1,12.32,12.32,0,0,1-1.61-.1c-.13,0-.23-.08-.31-.24s-.18-.22-.31-.19-.29,0-.29-.09-.18-.16-.53-.17-.54-.06-.57-.12-.14-.1-.32-.1-.26,0-.26-.12-.08-.12-.24-.12a1.55,1.55,0,0,1-.82-.53,2.12,2.12,0,0,1-.62-.91,2.66,2.66,0,0,1-.14-.93c0-.34,0-.54.14-.6a2.14,2.14,0,0,1,1.06-.15c.53,0,1.05,0,1.58-.05s.72-.12.72-.28.1-.1.29-.1c.35,0,.38-.3.09-.91a2.23,2.23,0,0,1-.28-.87c0-.28-.07-.94-.1-2a9,9,0,0,0-.14-2.38c-.1-.11-.12-.21,0-.29s0-.23-.22-.45a1.55,1.55,0,0,0-1-.41,3.16,3.16,0,0,1-1.56-.75,4.47,4.47,0,0,1-1.08-1,2.17,2.17,0,0,1-.31-1.05c-.06-.48,0-.77.1-.87a2.87,2.87,0,0,1,1.2-.14,4.76,4.76,0,0,0,1.63-.26c.32-.15.51-.19.58-.12s.26.06.5-.1.38-.3.41-.43v-1c.06-.13.16-.13.28,0s.15.1.15,0a.34.34,0,0,0,0-.14c-.13-.58-.16-.87-.1-.87s.1,0,.1-.14v-.24a10.71,10.71,0,0,1,.07-1.13,14.22,14.22,0,0,0,.07-1.73c0-.5-.06-.74-.19-.74s-.17.11-.24.33-.14.12-.24-.14a1,1,0,0,0-.14-.24h-.07a.4.4,0,0,1-.15.1.81.81,0,0,1-.31,0c-.29,0-.43-.06-.43-.19s-.11-.11-.34,0-.21.11-.24.05a.31.31,0,0,0-.24-.1c-.09,0-.17-.06-.24-.19s-.19-.26-.29-.19-.08,0-.16-.12a1.74,1.74,0,0,1-.22-.48,4.69,4.69,0,0,1-.14-.65,2,2,0,0,1,.81-2.26c1.12-.83,1.78-1.2,2-1.1a.14.14,0,0,0,.17,0,1.43,1.43,0,0,0,.14-.2q.08-.12.15-.09c.08,0,.12.12.21.31Z" transform="translate(-0.05)"/><path class="cls-2" d="M267.6,287a2,2,0,0,1-.29.7,2,2,0,0,0-.28.79c0,.26,0,.38-.1.38s-.21.2-.34.6a2.18,2.18,0,0,0-.14.84,1.43,1.43,0,0,1-.26,1,2.75,2.75,0,0,1-.7.92q-.24.13-.24.24a.72.72,0,0,1-.26.4c-.18.18-.32.27-.41.27s-.26.06-.29.19c-.16.45-.51.34-1.06-.34a3.55,3.55,0,0,1-.81-1.34,11.08,11.08,0,0,1-.15-2.3,24.28,24.28,0,0,0-.24-4c-.06-.32,0-.48.1-.48a.28.28,0,0,0,.31-.25h0v-.06a.66.66,0,0,0-.21-.55l-.2-.26s0-.05.1-.1a.26.26,0,0,0,.1-.22c0-.06,0-.08-.1,0V283c.1-.35.18-.53.24-.53s.14-.19-.05-.48q-.19-.18-.09-.72c0-.22.08-.33.14-.33s.13,0,.19-.15a.51.51,0,0,0-.07-.38,1.11,1.11,0,0,1-.14-.29c0-.06.07-.16.26-.29s.32-.25.29-.38-.1-.06-.19,0a.13.13,0,0,1-.18,0,.14.14,0,0,1,0-.06,1.38,1.38,0,0,0,.2-.33c.16-.32.2-.51.14-.58a2.65,2.65,0,0,1,0-1.05c0-.13.09-.56.17-1.28s.17-1.4.26-2c.06-.42.14-.83.24-1.24a8.52,8.52,0,0,0,.31-1.23c.15-.65.24-1.05.27-1.17a6.22,6.22,0,0,0,.14-1.49,2.65,2.65,0,0,0-.14-1.15c-.19-.23.1-.44.89-.65a7.17,7.17,0,0,1,1.65-.31,2.25,2.25,0,0,1,1.85,1.1c.46.51.7.86.7,1.06a.9.9,0,0,0,.33.52,2.58,2.58,0,0,0,.77.53,4.11,4.11,0,0,1,1.51,1.3,7.55,7.55,0,0,1,1.18,2.06l.77,1.87c.36.87.59,1.49.72,1.88a31.86,31.86,0,0,0,1.56,3.48,8,8,0,0,0,1.32,2.33q.09,0,.36-.72t.57-1.68c.21-.64.35-1,.41-1.2a32.72,32.72,0,0,0,1.25-4.56,16.71,16.71,0,0,0,.24-3,22.74,22.74,0,0,0,0-2.86,5.58,5.58,0,0,0-.12-1,1.07,1.07,0,0,0-.36-.48c-.26-.25-.45-.38-.58-.38a.83.83,0,0,1-.55-.34.9.9,0,0,1-.31-.57c0-.26.33-.59,1-1a3.59,3.59,0,0,1,2.52-.17,3.55,3.55,0,0,1,1.9,1,9.68,9.68,0,0,0,1,.67,6.59,6.59,0,0,1,.88.7,7.08,7.08,0,0,1,.7.84,3.35,3.35,0,0,1,.58,1c.16.4.2.63.14.7s-.05.22,0,.48a14.35,14.35,0,0,1,.12,2.78,29.84,29.84,0,0,1-.17,3.41c-.35,2.24-.56,3.44-.62,3.6s-.28.74-.63,1.85a13.18,13.18,0,0,1-.63,1.93,6.59,6.59,0,0,0-.38.75c-.16.33-.32.61-.46.84a3.67,3.67,0,0,1-.5.62,4.08,4.08,0,0,0-.44.72q-.37.63-.72.72c0-.19-.06-.22-.19-.09a.62.62,0,0,0-.14.28c-.07.23-.19.32-.36.29s-.28,0-.31.19-.13.29-.2.29-.11.07-.14.19-.06.23-.07.29-.09,0-.22,0-.17-.08-.21,0a.77.77,0,0,0-.17.38c-.13.32-.31.48-.53.48a.77.77,0,0,0-.36.12,2,2,0,0,0-.36.29c-.1.11-.11.18,0,.21a7.07,7.07,0,0,1-1.2.82.13.13,0,0,0-.12,0l-.07.09c0,.1-.08.1-.14,0s-.15-.12-.15,0,0,.16-.12,0-.12-.14-.12,0-.35.42-1,.48a1.81,1.81,0,0,1-1.34-.24,1.46,1.46,0,0,1-.48-.72.83.83,0,0,1,0-.69,1.15,1.15,0,0,0,.14-.51.33.33,0,0,1,0-.14h.07c.07,0,.08,0,.14-.1a1.35,1.35,0,0,0,.19-.33.67.67,0,0,0,.1-.34,7.29,7.29,0,0,0-1.14-1.34c-.75-.8-1.13-1.29-1.13-1.47a.48.48,0,0,0-.21-.41,6.51,6.51,0,0,1-1-1.44q-2.2-3.69-2.49-3.69c-.07,0-.1.11-.1.33s0,.29-.09.29a5.74,5.74,0,0,0-.39,2,3.93,3.93,0,0,1-.19.89,5.82,5.82,0,0,0-.24,1c-.1.64-.18,1.07-.24,1.3v.26c0,.11,0,.19-.05.24s0,.07-.07.07S267.6,286.86,267.6,287Z" transform="translate(-0.05)"/><path class="cls-2" d="M316.18,270.13c0,.12-.28.2-.84.21s-.84.12-.84.31-.07.2-.22.29a.43.43,0,0,1-.36.1l-.48.31a.9.9,0,0,1-.24.12c-.19,0-.3,0-.33.1s-.16.11-.36.14l-.65.1h-.43a4.27,4.27,0,0,1-1,.17c-.52,0-1.15.09-1.87.12h-1.17l-2.52.14-2.67.15-1.25.09-.23.87a21.85,21.85,0,0,0-.77,3.17c0,.16,0,.25.24.28a11.72,11.72,0,0,0,1.87-.09,10.39,10.39,0,0,1,4.37.81,5.31,5.31,0,0,0,1.29.44.28.28,0,0,1,.31.19c0,.13.32.32.8.57a7.49,7.49,0,0,1,2.23,2,9.32,9.32,0,0,1,1.51,2.61,8.06,8.06,0,0,1,.38,4.13,6.78,6.78,0,0,0-.19,1A6.82,6.82,0,0,1,312,290a8.18,8.18,0,0,1-1,1.48,12.38,12.38,0,0,1-3.7,2.88,5.25,5.25,0,0,0-.55.22l-1,.41a2.18,2.18,0,0,1-.51.17,1.85,1.85,0,0,0-.41.07,6.73,6.73,0,0,1-1.1.12c-.57,0-.95.09-1.1.12a.7.7,0,0,1-.58-.07.87.87,0,0,0-.63-.12c-.19.06-.32.06-.38,0s0-.18.14-.24h.34a1,1,0,0,0-.1-.17c-.09-.16-.18-.19-.26-.09s-.14.14-.17.14c-.25,0-.38,0-.38.24s-.1.12-.29-.12a.67.67,0,0,0-.62-.31.87.87,0,0,0-.27.14l-.14.12a.19.19,0,0,1-.12-.07c-.06-.07-.16-.14-.19-.05s-.14.19-.22.17-.12-.09-.12-.21-.05-.12-.17-.05-.2.05-.26,0a.23.23,0,0,0-.22-.1h-.33c-.12,0-.17,0-.17-.07s-.11-.07-.34-.12l-.65-.12a.73.73,0,0,0-.36,0c0,.06,0,0-.09-.1a.28.28,0,0,1,0-.22c.05-.08,0-.14,0-.17a.72.72,0,0,0-.5.29c-.18.19-.3.24-.36.14s0-.09.09-.19.23-.3,0-.33a.55.55,0,0,0-.33.07c-.07,0-.1,0-.1-.12v-.1c0-.22,0-.33-.19-.31a2,2,0,0,0-.48.12c-.16.06-.26,0-.29-.14s-.07-.19-.21-.17-.3-.14-.46-.46a1.42,1.42,0,0,0-.26-.38s-.11,0-.17.14-.19.19-.19.17a.49.49,0,0,1,0-.17q.11-.24-.09-.24a.9.9,0,0,1-.24-.12l-.36-.24c-.11-.08-.18-.1-.19-.07s0,0-.1-.07-.1-.16-.14-.24-.11-.11-.17-.07-.33-.11-.7-.41a5.56,5.56,0,0,1-.84-.84,3.38,3.38,0,0,1-.38-.87l-.15-.52c.29-.25.57-.52.84-.8s.65-.63.85-.79v.48a1.31,1.31,0,0,0,.46.77q.36.28.36.48c0,.16.17.39.53.7a2.4,2.4,0,0,0,1,.55,9.92,9.92,0,0,1,1.05.24,11.13,11.13,0,0,0,2,0,9.37,9.37,0,0,0,2.23-.31l.84-.22.65-.16a2.34,2.34,0,0,0,.58-.2c.26-.1.56-.22.91-.38.8-.42,1.22-.62,1.25-.62a6.56,6.56,0,0,0,1.7-1.11,16.43,16.43,0,0,0,2-1.73,4.19,4.19,0,0,0,1.25-2.78,1.9,1.9,0,0,0-.72-1.73,6.5,6.5,0,0,0-2.93-.43c-.57,0-1.66.16-3.26.38-1.22.2-1.91.48-2.06.87a.75.75,0,0,1-.44.38,6.76,6.76,0,0,1-1.34.19,2.39,2.39,0,0,1-1.54-.52,6.6,6.6,0,0,1-1.49-1.3,2,2,0,0,1-.43-1.25,1,1,0,0,1,.2-.67.3.3,0,0,0,.14-.26,1.62,1.62,0,0,0-.07-.44l-.12-.4a3.69,3.69,0,0,0-.2-.92,11.53,11.53,0,0,1-.19-2.35,7.9,7.9,0,0,0-.09-1.68.83.83,0,0,0-.29-.48,6.74,6.74,0,0,0-.87-.38,4,4,0,0,1-.81-.39,1,1,0,0,0-.48-.14c-.1,0-.37-.21-.82-.62a5.56,5.56,0,0,1-1-1.11,2.36,2.36,0,0,1-.26-1.08c0-.56,0-.87.07-.93a2,2,0,0,1,1-.1,2.54,2.54,0,0,1,1.18.29,2,2,0,0,0,.82.24,10,10,0,0,0,1.34-.15,2.84,2.84,0,0,0,.91-.19.72.72,0,0,0,.24-.43,4.2,4.2,0,0,0-.18-2.22,2.81,2.81,0,0,1-.2-1.25c0-.12.43-.19,1.18-.19a4.5,4.5,0,0,1,1.32.1,3.13,3.13,0,0,1,.6.24,1.57,1.57,0,0,0,.55.19,5.07,5.07,0,0,1,1.2.91,3.19,3.19,0,0,1,.92,1.2,1,1,0,0,0,.52.58,36.54,36.54,0,0,0,4.44,0c2.77-.08,5.61-.1,8.52-.2a16.7,16.7,0,0,1,2,.05,5.75,5.75,0,0,1,2.16.48,2.68,2.68,0,0,1,1.53,1.63.66.66,0,0,1,0,.44,1.68,1.68,0,0,1-.41.43,1.84,1.84,0,0,1-.57.38,3.75,3.75,0,0,1-.82,0C316.48,270,316.18,270,316.18,270.13Z" transform="translate(-0.05)"/><ellipse class="cls-2" cx="158.84" cy="240.5" rx="126.5" ry="3.5"/></svg>