<svg id="Calque_1" data-name="Calque 1" xmlns="http://www.w3.org/2000/svg" viewBox="0 0 318.88 297.48"><title>logo-1</title><path d="M759.38,242.27l-.25.1-.07-.21Z" transform="translate(-611.66 -112)"/><path d="M881,199.82c1.77,9.26,4.5,18.48,5,27.81.3,5.85-2.91,11.84-4.31,17.81-.89,3.76-1.2,7.64-2,11.42a20.22,20.22,0,0,1-2.86,6.68l-.18-3.78c-1,.78-1.84,1.14-2.16,1.75-2.86,5.46-6,10.84-8.36,16.48-6.2,14.57-16.79,25.18-30.45,33.31-2.33,1.38-4.08,3.66-5.55,5-1.26-.09-2.48-.54-3.36-.18-13.65,5.55-26.94,12.18-41,16.44-7.18,2.17-15.75.53-23.63-.11A111.05,111.05,0,0,1,743.61,329c-1.44-.37-3.13-3-3.2-4.65-.34-8.28-.18-16.59-.18-24.88q0-39.42,0-78.84c0-2.62-.82-5.84,4-6.33.09,2.08.26,4.1.27,6.11q0,39.17,0,78.32c0,1.21-.37,2.59.11,3.59a26,26,0,0,0,3.1,4.19c1.23-1.42,2.83-2.67,3.57-4.29.59-1.31.17-3.06.17-4.62q0-41.24,0-82.47c0-2.36-1.08-5.54,3.86-5.66.09,1.78.25,3.56.25,5.34,0,11.76-.14,23.52.19,35.27,0,1.78,2.34,3.5,3.6,5.25,1-1.74,3-3.46,3-5.22.26-13,.23-25.93.07-38.9,0-3.13,1-4.51,4.17-5.39q48.12-13.29,96.1-27c3.65-1,5.63.34,7.86,2.3l.81,1.29c.11.85,0,1.86.38,2.52,4.68,7.2,5.93,15.22,6.51,23.5.11,1.63,1.73,3.16,2.85,5.08V199.64Z" transform="translate(-611.66 -112)"/><path d="M789.25,113.1l-2.94,1.74c3.44,3.07,6.53,2,9.72.26.84-.45,2.08-1,2.85-.68,12.34,4.38,24.31,9.5,34.88,17.25.94,7.24,9.83,5.71,12.94,11,1.09,1.86,5,2.17,7.61,3.19l-.19,1.61-91.47,46.68c-.5-1.3-.91-2.21-1.2-3.16-1.22-4.08-4.17-6-8.38-5.78s-6.81,2.82-7.5,6.84c-.37,2.19.11,4.56-.45,6.68-.46,1.73-1.89,3.22-2.89,4.82l-1.75-.62c-.09-1.81-.17-3.63-.27-5.44-.13-2.54.42-5.81-3.61-5.63-3.87.17-3.24,3.42-3.33,5.95a42.61,42.61,0,0,0,0,4.66c.22,3.16-1.32,4.36-4.71,4.11-.12-1.49-.22-2.83-.35-4.17-.49-4.73-3.85-7.91-8.28-7.88-4.25,0-7.68,3.46-8.15,8.12a63.66,63.66,0,0,1-1,8.18c-.31,1.27-1.69,2.3-2.13,2.88l-5.57-4.46a45.26,45.26,0,0,1-3.31,5.05c-1.23,1.44-2.64,3.12-4.34,3.72-8.72,3-17.6,5.64-26.32,8.68a15,15,0,0,0-6.73,5.23c13.14,1.62,24.47-5.11,37.21-5.77-5.85,3-11.87,5.78-17.49,9.16-2.57,1.55-4.37,4.3-6.52,6.51,3.1-.29,6.41,0,9.25-1,4.82-1.66,9.35-4.11,15-6.68v21.17c0,1.56-.41,3.27.13,4.63s2.08,2.69,3.17,4c1.19-1.41,3.35-2.78,3.41-4.23.33-8.29,0-16.59.24-24.89,0-1.75,1.26-3.47,1.94-5.21l1.73.5v84.05l-9.55-5.27,2.05,6.59c-5.21-4.64-10.2-8.92-14.94-13.45-.79-.75-.15-2.76-.79-3.85-1-1.67-1.17-5.37-5-2.37-.78.61-3-.5-5.36-1a14.35,14.35,0,0,1,1.42-1.29c.68.34,1.34.72,3.1,1.7-5.59-8.09-10.53-15-15.19-22.15-1.37-2.09-2-4.65-2.86-7-1.57-4.59-3.25-9.16-4.48-13.84-1.8-6.85-5.84-13-3.93-20.94,1.43-6-.35-12.63.15-18.91,1.34-17.16,6.44-33.2,16.48-47.6.89-1.28,1.51-2.74,2.31-4.09,2.26-3.8,4.63-7.08,8.78-9.76,5.81-3.76,10.29-9.44,15.39-14.24a40.66,40.66,0,0,1,10-7.41l-3.43,4.5a37.87,37.87,0,0,0,4.9-1.89,90.74,90.74,0,0,1,30.73-11.75c3.59-.65,6.83-3.45,10.39-3.84,7.17-.77,14-4.71,21.64-2.13,2.23.75,5.19-.55,7.81-.92L789,112C789.06,112.37,789.16,112.73,789.25,113.1Zm31.11,14.16c-3-4.37-11.53-7-19-5.45Z" transform="translate(-611.66 -112)"/><path d="M732.94,219.72V322.87c-2,.58-4.19,1.89-6.28,1.71-7.46-.64-8.57-2.13-8.59-10.71-.06-23.83,0-47.67,0-71.5,0-4.49-.18-9,.11-13.46.1-1.54,1.38-3,2.13-4.51l2,.59v5.46q0,25.13,0,50.25c0,1.55-.18,3.25.41,4.59a4.21,4.21,0,0,0,3,2.27,4.13,4.13,0,0,0,3-2.26,14.91,14.91,0,0,0,.41-5.11c0-18.31,0-36.61,0-54.92C729.16,222.93,728.23,219.71,732.94,219.72Z" transform="translate(-611.66 -112)"/><path d="M865.08,158.25l1.89,4.08-28.6,9.35-.39-.93Z" transform="translate(-611.66 -112)"/><path d="M871.42,182.47l-.81-1.29c-.44-1-.9-2-1.22-2.79l5.13-2c2.11,7.58,6.91,14.72,6.49,23.44l.15-.18Z" transform="translate(-611.66 -112)"/><path d="M749.86,198.37l2.93-7.85c1.19.71,3.24,1.25,3.43,2.15C757,196.13,755.4,198.5,749.86,198.37Z" transform="translate(-611.66 -112)"/><path d="M724.22,204.21l-4.05,4.68c-1-1.48-2.77-3-2.76-4.43s1.78-3,2.78-4.52Z" transform="translate(-611.66 -112)"/><path d="M871.42,182.47l9.74,17.17v13.93c-1.12-1.92-2.74-3.45-2.85-5.08-.58-8.28-1.83-16.3-6.51-23.5C871.37,184.33,871.53,183.32,871.42,182.47Z" transform="translate(-611.66 -112)"/><path d="M820.36,127.26l-19-5.45C808.83,120.28,817.38,122.89,820.36,127.26Z" transform="translate(-611.66 -112)"/><path d="M626.16,406.13a2.76,2.76,0,0,0-.53.33,2.89,2.89,0,0,1-.53.34,1.8,1.8,0,0,0-.58.19c-.73.38-1.26.4-1.58.05a2,2,0,0,0-.7-.17c-.36-.05-.58-.14-.64-.26a3.71,3.71,0,0,0-.22-.32s-.12,0-.31.17-.37.15-.43.05a.24.24,0,0,0-.2,0c-.09,0-.16,0-.19-.08a.44.44,0,0,0-.38-.14,1.75,1.75,0,0,1-.55-.14q-.36-.15-.36-.24c0-.1,0-.13-.05-.1a.6.6,0,0,0-.24.38c-.07.13-.13.08-.19-.14s-.22-.34-.36-.26a.27.27,0,0,1-.36,0q-.1-.14-.27.12c-.11.18-.2.17-.26,0s-.11-.17-.24-.12a.45.45,0,0,1-.39,0q-.14-.13-.21-.12s-.12,0-.22-.16-.19-.19-.29-.08-.2.12-.33,0a.22.22,0,0,0-.34,0c-.09.11-.14.12-.14,0s-.19-.15-.58-.15a3.49,3.49,0,0,1-1.15-.29c-.51-.19-.77-.33-.77-.43s-.06-.09-.19-.09-.28-.13-.46-.39a1.27,1.27,0,0,1-.26-.67,1.4,1.4,0,0,1,.24-.91c.06-.1.11-.08.14,0s.13.24.2.24a.79.79,0,0,1,.48,0c.16.07.24.13.24.2s.08.09.26.09.28,0,.31.15.39.2.89.21a4.06,4.06,0,0,0,1.27-.12,3.74,3.74,0,0,1,1.35-.14,4.78,4.78,0,0,0,1.41-.27,3.76,3.76,0,0,0,1.27-.6,10.23,10.23,0,0,1,.87-.57,7.2,7.2,0,0,0,1.61-1.32,10.67,10.67,0,0,0,1.36-1.75,12.52,12.52,0,0,0,.89-2.64,16.1,16.1,0,0,0,.51-3.32c0-.09.08-.68.16-1.75s.16-2.07.22-3a14.21,14.21,0,0,0,0-1.82c-.13-1.28-.24-1.92-.34-1.92a5,5,0,0,0-.86.29l-1.87.5-1.88.5a7.18,7.18,0,0,1-3.74.48,7,7,0,0,1-1.06-.24,3.12,3.12,0,0,0-.57-.14,4.63,4.63,0,0,1-2-1.2,4.29,4.29,0,0,1-1-1.44,4.11,4.11,0,0,1-.41-1.63c0-.42.06-.68.19-.79s.35-.11.67,0a3.66,3.66,0,0,1,.56.07l.72.15a.85.85,0,0,1,.4.16.51.51,0,0,0,.44.12c.19,0,.28-.06.28-.14s.13-.12.39-.12a17,17,0,0,0,2.16-.48q1.88-.48,2-.48a5.28,5.28,0,0,0,.84-.22,3.19,3.19,0,0,1,.84-.16,1,1,0,0,0,.53-.15A6.63,6.63,0,0,1,623,379l2.42-.51c.88-.17,1.46-.29,1.75-.36a1.6,1.6,0,0,1,.48-.12c.29,0,.55-.09.79-.14s.36-.1.36-.17.07-.09.2-.09a1,1,0,0,0,.52-.24,4.32,4.32,0,0,1,2.55-.24,7.18,7.18,0,0,1,2.69.72l.48.28c-.45.42-.72.63-.82.63a1.89,1.89,0,0,0-.7.43,8.87,8.87,0,0,0-.93.84,2,2,0,0,1-.63.5c-.22.07-.23.16,0,.29s.17.21-.12.24a1.37,1.37,0,0,1-.41,0c-.14,0-.23,0-.26.12a.91.91,0,0,1-.31.12c-.12,0-.2.1-.27.26a.32.32,0,0,1-.31.24.36.36,0,0,0-.31.14c-.07.16-.13.18-.19.05s-.21-.16-.34.1a.79.79,0,0,0,0,.24,2.18,2.18,0,0,0,.07.81c.08.32.17.52.27.58a.56.56,0,0,1,.19.41.36.36,0,0,0,.14.31q.54.63.46,6.22a57.12,57.12,0,0,1-.65,8.85l-.33,1.87a7.26,7.26,0,0,1-1.13,2.31,8.7,8.7,0,0,1-1.9,2.11A2.27,2.27,0,0,1,626.16,406.13Z" transform="translate(-611.66 -112)"/><path d="M638.59,384a1.4,1.4,0,0,1,.26-.48,1.26,1.26,0,0,0,.27-.53,1.28,1.28,0,0,1,.28-.55,3.94,3.94,0,0,0,.48-.84q.15-.39,0-.51a2.12,2.12,0,0,0-.86-.21c-.48-.07-.72-.13-.72-.19s0-.06-.07-.08a.59.59,0,0,0-.24,0l-.43.12-.7.17a2,2,0,0,1-1.7-.27,1.39,1.39,0,0,1-.8-1.13c0-.28.3-.54.89-.76a5.47,5.47,0,0,1,2-.34,3.48,3.48,0,0,0,1-.22l1.39-.45c.48-.16.79-.26.92-.29l1-.36a9.55,9.55,0,0,1,1.1-.36,9,9,0,0,0,1-.29c.13-.06.73-.23,1.8-.5s1.88-.46,2.42-.55,1.06-.2,1.83-.39a7.12,7.12,0,0,1,3.55,0,3.7,3.7,0,0,1,.79.48c.24.2.35.34.31.44s-.28.17-.67.24a4.38,4.38,0,0,0-1.32.36c-.49.2-.74.36-.74.48s-.11.21-.34.31a18.39,18.39,0,0,0-2.35,1.34c.38.29.58.47.58.53s.17.3.43.7a2.4,2.4,0,0,1,.38.74.41.41,0,0,0,.24.43c.1.07.15.38.17.94s0,2.09.07,4.58q0,5.32.1,6a26.67,26.67,0,0,0,.43,3.31,18,18,0,0,1,.46,2.28c.2,1.27.23,1.95.07,2s-.11.18.05.34a.46.46,0,0,1,0,.53,1.14,1.14,0,0,1-.33.43,3.88,3.88,0,0,0-.19.84,2.64,2.64,0,0,1-.22.84s0,.11,0,.24.07.21,0,.24-.14.24-.14.53,0,.46-.14.52-.43-.18-1-.74a14.91,14.91,0,0,1-1.65-2,3.58,3.58,0,0,1-.82-1.73,3.43,3.43,0,0,0-.1-.62,1.46,1.46,0,0,0-.19-.44,3.56,3.56,0,0,1-.24-.52,2.54,2.54,0,0,0-.33-.72,2.71,2.71,0,0,1-.34-.77,2.4,2.4,0,0,0-.26-.75,3.3,3.3,0,0,1-.32-.84,2.63,2.63,0,0,0-.28-1c-.36-.67-.72-2.89-1.11-6.67,0-.61-.09-.88-.19-.81a7.14,7.14,0,0,0-.77,1.58,10,10,0,0,1-.86,1.78.9.9,0,0,0-.19.48,14.58,14.58,0,0,1-.89,2c-.59,1.23-1,2.16-1.32,2.8a12.5,12.5,0,0,1-1.35,2.55,4,4,0,0,0-.57,1.17c-.13.44-.23.65-.29.65s-.1.15-.1.46-.06.49-.19.55-.18.38-.26.94a2.49,2.49,0,0,1-.22.93.4.4,0,0,0-.19.31.23.23,0,0,1-.19.24c-.13.05-.19.24-.19.56a.69.69,0,0,1-.24.57.83.83,0,0,0-.29.34.6.6,0,0,1-.55.33,1.61,1.61,0,0,1-.87-.36,4.31,4.31,0,0,1-.93-.93,5.35,5.35,0,0,1-1-3.27,6.94,6.94,0,0,1,.14-1.68,3.09,3.09,0,0,0,.14-.81,2.6,2.6,0,0,1,.24-.87,7.94,7.94,0,0,0,.46-1.46,8.43,8.43,0,0,1,.5-1.56,3.1,3.1,0,0,0,.39-1,8.09,8.09,0,0,1,1-2.49.9.9,0,0,0,.15-.48,2.48,2.48,0,0,1,.31-.75,3.1,3.1,0,0,0,.31-.69s.15-.4.46-1.11.45-1.07.45-1.1.23-.51.68-1.44S638.59,384,638.59,384Zm6.29,20.59c0,.1-.09.22-.27.38a.67.67,0,0,0-.26.44.74.74,0,0,1-.22.45,3.22,3.22,0,0,0-.26.36,2.05,2.05,0,0,1-.29.41c-.19.24-.37.47-.53.7s-.22.35-.19.38,0,.1-.1.1a3.09,3.09,0,0,0-.26.81,3.09,3.09,0,0,1-.26.82c-.26.16-.76-.18-1.49-1a4.73,4.73,0,0,1-1.3-3.31,29.22,29.22,0,0,1,.34-4.18c.25-1.09.29-1.68.09-1.77s-.09-.56.68-1a6.81,6.81,0,0,1,1.65-.72,2.4,2.4,0,0,1,1.27.05,2.12,2.12,0,0,1,1.59,1.24,4.75,4.75,0,0,0,.38,1,3.59,3.59,0,0,1,.22,2,6.1,6.1,0,0,1-.55,2.23A1.85,1.85,0,0,0,644.88,404.59Z" transform="translate(-611.66 -112)"/><path d="M664.41,393.55c-.06,0-.14-.1-.21-.29s-.17-.29-.27-.29a.91.91,0,0,1-.26-.12c-.15-.08-.23-.07-.27,0s-.22.11-.28.05-.07-.18,0-.34v0a.36.36,0,0,0-.1.15c-.13.12-.26.16-.38.09a.15.15,0,0,1,0-.24.27.27,0,0,0-.05-.33c-.1-.16-.15-.24-.17-.22a1,1,0,0,0-.07.31,7.52,7.52,0,0,1-.19,1.15c-.1.55-.2,1.8-.31,3.77a19.38,19.38,0,0,0-.08,3.1c.1.09.11.53,0,1.32a4.3,4.3,0,0,1-.19,1.27c-.1,0-.11.16-.05.38a3.28,3.28,0,0,1,.05,1.06,3.67,3.67,0,0,1-.19,1.06c-.13.12-.15.32,0,.6a1.06,1.06,0,0,1,0,.69,4.63,4.63,0,0,0,0,.53c0,.06-.07.16-.19.29s-.23.19-.29.19-.21.14-.43.43a2,2,0,0,1-.39.34c-.06,0-.22,0-.48-.1a4,4,0,0,1-1.27-.93,2.54,2.54,0,0,1-.81-1.18,5.31,5.31,0,0,1-.08-.91,5,5,0,0,0-.24-1.3,40.34,40.34,0,0,1-1.32-5.37,55.56,55.56,0,0,1-.21-5.91q0-3.6.33-6.09c.13-.9.2-1.38.2-1.44s-.31-.19-.92-.36a7.14,7.14,0,0,0-1-.27s-.18,0-.43-.17a2.42,2.42,0,0,0-.44-.21c-.09,0-.41-.27-1-.82a4.32,4.32,0,0,1-1.1-1.68q-.57-1.64,0-2.16c.16-.16.27-.19.34-.09s.42.31,1,.45a2.59,2.59,0,0,0,1.22.12c.93-.25,1.62-.46,2.07-.62a1.39,1.39,0,0,1,.72-.19c.64,0,1-.79,1-2.36V376l.77-.1a9.59,9.59,0,0,1,3.21,0,2.59,2.59,0,0,1,1.39,1.1,1.25,1.25,0,0,0,.65.55,5.65,5.65,0,0,0,1.56-.12,72.86,72.86,0,0,1,8.79-.43,36.75,36.75,0,0,1,4,.14,5,5,0,0,1,1.84.63,3.39,3.39,0,0,1,1,.93,2,2,0,0,1,.5,1,1,1,0,0,1-.19.53.86.86,0,0,0-.15.62,8.2,8.2,0,0,1,.15.91q.28,3.08,1,3.75c.44.38.36,1.16-.24,2.35a9.64,9.64,0,0,1-2,2.54,17.41,17.41,0,0,1-2.21,2,8.82,8.82,0,0,0-.74.5,7.15,7.15,0,0,1-.77.53,6.48,6.48,0,0,1-.79.41,25.48,25.48,0,0,1-4.8,1.78c-1.09.19-1.74.29-2,.31a.62.62,0,0,1-.5-.17c-.13-.16-.21-.19-.24-.1-.13.26-.22.28-.29.05a.61.61,0,0,1,0-.33c0-.29,0-.44,0-.44s-.13.07-.19.29-.06.19-.09.19-.08,0-.15-.14a.53.53,0,0,0-.38-.24c-.07,0-.11,0-.12-.07a.25.25,0,0,1,0-.17.32.32,0,0,0,0-.19c0-.07-.11-.1-.24-.1a.43.43,0,0,1-.43-.21c-.06-.15-.13-.12-.19.07s-.24.4-.34.24a.3.3,0,0,1,0-.19c0-.1-.08-.18-.22-.24l-.38-.17c-.12,0-.16-.12-.12-.22S664.57,393.55,664.41,393.55Zm12.38-13.3c-.25,0-.38,0-.38-.12s-.06-.07-.19,0a.62.62,0,0,1-.46.12,1.23,1.23,0,0,1-.55-.17.15.15,0,0,0-.24.05c-.06.09-.14.13-.21.09a.24.24,0,0,0-.24.05.27.27,0,0,1-.27.05.26.26,0,0,0-.19.12l-.17.22q-.07.09-.12,0a.34.34,0,0,1,0-.34c0-.1,0-.14,0-.14s-.09,0-.19.14a.93.93,0,0,1-.38.24l-.44.36c-.09.08-.14.1-.14.07s-.07-.09-.19-.09a1.22,1.22,0,0,0-.41.07.38.38,0,0,0-.26.21c-.1.1-.19.12-.27.05s-.2-.05-.36.05-.16.14-.19.14-.05-.06-.05-.19a.71.71,0,0,0,0-.19.14.14,0,0,0-.12-.05.34.34,0,0,0-.07.31.34.34,0,0,1-.12.32c-.13.09-.2.11-.2,0-3.16.71-5,1.14-5.47,1.3a3.92,3.92,0,0,0-.6.19,1,1,0,0,0-.33.24,1.06,1.06,0,0,0-.15.22,2.35,2.35,0,0,0-.07.38,2.59,2.59,0,0,1-.14.55c-.1.39-.24,1.16-.44,2.31s-.3,1.87-.33,2.16c0,.13,0,.2.17.21a9.29,9.29,0,0,0,1,0,9.41,9.41,0,0,0,1.1-.15,5.06,5.06,0,0,0,.82-.19c.19-.06.46-.17.81-.31s.63-.25.82-.31a2.87,2.87,0,0,0,.5-.22c.31-.14.6-.27.89-.38a2.18,2.18,0,0,1,.58-.17.49.49,0,0,0,.36-.12A4.9,4.9,0,0,1,671,387a16.65,16.65,0,0,0,1.94-1,8.92,8.92,0,0,0,1-.62,11.44,11.44,0,0,0,3-2.21A7.07,7.07,0,0,0,678,382a1.07,1.07,0,0,0,.14-.8,1.82,1.82,0,0,0-.77-1c-.13-.1-.19-.1-.19,0S677.05,380.25,676.79,380.25ZM664.84,394.7a.3.3,0,0,1,0-.29c.06-.22.12-.24.19,0v.19l0,.29A1.28,1.28,0,0,1,664.84,394.7Zm.56,2.64q.12,0,.12.15c0,.09,0,.14-.12.14s-.12-.05-.12-.14S665.31,397.34,665.4,397.34Z" transform="translate(-611.66 -112)"/><path d="M686.16,379.68c0-.39.09-.58.28-.58a.43.43,0,0,0,.19-.12l.25-.19c.06-.05.11,0,.14,0s.14.06.34,0,.31-.07.38,0,.14.12.14,0,.19-.32.56-.39a1.21,1.21,0,0,0,.6-.19c.12-.1.22-.12.28-.07s.08.17,0,.36,0,.15,0,.17,0,0,.07-.08a2.68,2.68,0,0,0,.1-.28,1,1,0,0,1,.09-.27s.11,0,.24,0,.22,0,.36-.08.25-.15.31-.12.1,0,.1-.09.08-.19.24,0a.43.43,0,0,1,.19.29c0,.06,0,.09.05.09s0,.11,0-.05v-.19q0-.28.09-.33a.33.33,0,0,1,.22,0,.5.5,0,0,0,.31-.07.17.17,0,0,1,.24,0c.1.08.16.12.19.12s.13,0,.1-.09l.24,0c.19,0,.38,0,.58-.07s.28-.08.28-.14.26-.12.77-.17a13.41,13.41,0,0,1,1.56-.05c.53,0,.79.06.79.12s0,.08.1-.05a1.57,1.57,0,0,1,.74-.09,1.65,1.65,0,0,1,.84.14c.07,0,.12,0,.17-.09s.14,0,.26.14.25.22.25.1,0-.25.14-.27.16,0,.19.17.15.26.27.1.19-.2.26-.1.18.1.43.1a1.09,1.09,0,0,1,.53.09,10.14,10.14,0,0,1,2.78,1.83,1.27,1.27,0,0,1,.2,1.24,2.16,2.16,0,0,1-.77,1,3.48,3.48,0,0,1-.77.36c-.32.11-.7.23-1.15.34l-1,.26a5.58,5.58,0,0,1-.82.19,3.66,3.66,0,0,0-1,.34,4.2,4.2,0,0,1-1.11.14,5.21,5.21,0,0,0-1.27.2,5.52,5.52,0,0,1-1.17.19,4.27,4.27,0,0,0-1.16.19q-.57.09-.69.36a4,4,0,0,0-.08,1.37,7,7,0,0,1-.28,1.92c-.29,1-.35,1.57-.19,1.73s.47.06,1.12-.1a3.62,3.62,0,0,0,1.13-.38c.19-.13.82-.08,1.9.16a8.43,8.43,0,0,1,2,.6.53.53,0,0,1,.24.39c0,.13-.08.19-.24.19a.17.17,0,0,0-.19.19c0,.07-.13.22-.39.46s-.36.4-.33.48,0,.17-.15.26-.17.18-.14.24-.1.25-.39.46-.43.34-.43.41,0,.06-.09.09l-.22.1-.21.09c-.2.16-.26.24-.2.24h.1c.19,0,.16.07-.1.2l-1.39.76c-.06.1-.3.2-.72.29-1.31.35-2,.55-2.06.58a2,2,0,0,0-.1.91,7.58,7.58,0,0,1-.21,1.18,4.18,4.18,0,0,0-.17,1.12c0,.55-.07.85-.2.92l-.09-.2c0-.16-.08-.12-.14.1a1.55,1.55,0,0,1-.05.34c-.07.51-.15.8-.24.86s-.06,0-.07,0,0-.1,0-.19a.46.46,0,0,0-.1-.43c-.06-.07-.11,0-.14.09V400c0,.55.14.87.34,1s.52.07,1-.12a4,4,0,0,1,.89-.34l1.11-.24c.46-.1.85-.19,1.17-.29a7.64,7.64,0,0,1,1.49-.24s.21,0,.53-.14.51-.18.57-.15a.25.25,0,0,0,.24,0,1.88,1.88,0,0,1,.84-.16,3.82,3.82,0,0,0,.84-.12c.26-.2,1-.18,2.21,0a9,9,0,0,1,1.9.53c.53.23.79.45.79.67s0,.2,0,.22,0,0-.11,0a.21.21,0,0,0-.15.05c0,.07-.1.09-.21.07s-.17.06-.17.22a.39.39,0,0,1-.31.22.37.37,0,0,0-.32.21q-.24.29-.24.12c0-.11-.08-.13-.26-.05s-.26.09-.26,0,0-.15-.13-.15-.1.08-.07.24a.31.31,0,0,1-.09.39c-.13.13-.24.16-.34.09s-.06,0-.09.12a1.92,1.92,0,0,1-.15.27c-.06.09-.13.13-.19.09s-.23.05-.29.24-.19.34-.29.24a.41.41,0,0,1,0-.19q0-.24-.24.15t-.27.21c-.08-.08-.21-.07-.41,0s-.28.25-.28.19l-.29.19c0,.06,0,.11,0,.14s0,.12-.1.15-.09,0-.09-.1a.11.11,0,0,1,0-.09c0-.2-.05-.23-.15-.1a.17.17,0,0,0-.07.24.16.16,0,0,1-.07.24q-.24.19-.24,0c0-.13-.05-.09-.14.12s-.23.31-.39.31-.24,0-.24.1-.21.14-.62.24a29.89,29.89,0,0,0-4.08,1.29,11.57,11.57,0,0,1-2.4.63l-.32.14a2.19,2.19,0,0,1-.43.15c-.14,0-.23,0-.26,0s-.16,0-.19,0a1.33,1.33,0,0,1-.6.1c-.27,0-.81,0-1.61-.1-.13,0-.23-.08-.31-.24s-.19-.22-.31-.19-.29,0-.29-.09-.18-.16-.53-.17-.55-.06-.58-.12-.13-.1-.31-.1-.26,0-.26-.12-.08-.12-.24-.12-.47-.17-.82-.53a2.12,2.12,0,0,1-.62-.91,2.83,2.83,0,0,1-.15-.93q0-.51.15-.6a2.13,2.13,0,0,1,1.05-.15c.58,0,1.11,0,1.59-.05s.72-.12.72-.28.09-.1.29-.1c.35,0,.38-.3.09-.91a2.29,2.29,0,0,1-.29-.87c0-.28-.06-.94-.09-2a8.38,8.38,0,0,0-.15-2.38c-.09-.11-.11-.21,0-.29s0-.23-.22-.45a1.55,1.55,0,0,0-1-.41,3.25,3.25,0,0,1-1.56-.75,4.53,4.53,0,0,1-1.08-1,2,2,0,0,1-.31-1.05c-.06-.48,0-.77.1-.87a2.83,2.83,0,0,1,1.2-.14,5,5,0,0,0,1.63-.26q.48-.22.57-.12c.1.09.27.06.51-.1a.94.94,0,0,0,.41-.43c0-.71,0-1,0-1,.07-.13.16-.13.29,0s.15.1.15,0a.39.39,0,0,0,0-.14c-.13-.58-.16-.87-.1-.87s.1,0,.1-.14v-.24c0-.1,0-.47.07-1.13s.07-1.23.07-1.73-.06-.74-.19-.74-.18.11-.24.33-.14.12-.24-.14a1,1,0,0,0-.14-.24s-.06,0-.08,0-.06.06-.14.1a.9.9,0,0,1-.31,0c-.29,0-.43-.06-.43-.19s-.12-.11-.34.05-.21.11-.24.05a.31.31,0,0,0-.24-.1c-.1,0-.18-.06-.24-.19s-.19-.26-.29-.19-.09,0-.17-.12a1.56,1.56,0,0,1-.21-.48,3.61,3.61,0,0,1-.15-.65,2.05,2.05,0,0,1,.82-2.26c1.12-.83,1.78-1.2,2-1.1a.15.15,0,0,0,.17,0l.14-.2c0-.08.09-.11.14-.09s.12.12.22.31Z" transform="translate(-611.66 -112)"/><path d="M710.78,399a2.4,2.4,0,0,1-.29.7,2.13,2.13,0,0,0-.29.79c0,.26,0,.38-.09.38s-.21.2-.34.6a2,2,0,0,0-.14.84,1.45,1.45,0,0,1-.27,1,2.75,2.75,0,0,1-.69.92q-.24.14-.24.24c0,.09-.09.23-.27.4s-.31.27-.4.27-.26.06-.29.19c-.16.45-.51.34-1.06-.34a3.37,3.37,0,0,1-.81-1.34,11.12,11.12,0,0,1-.15-2.3,23.41,23.41,0,0,0-.24-4c-.06-.32,0-.48.1-.48s.29-.1.31-.31a.66.66,0,0,0-.22-.55l-.19-.26s0-.05.1-.1a.27.27,0,0,0,.09-.22c0-.06,0-.08-.09,0v-.39c.09-.35.17-.53.24-.53s.14-.19,0-.48c-.13-.12-.16-.36-.1-.72s.08-.33.15-.33.13,0,.19-.15a.49.49,0,0,0-.07-.38,1.34,1.34,0,0,1-.15-.29c0-.06.08-.16.27-.29s.32-.25.29-.38-.1-.06-.2,0-.19,0-.19-.1a1.55,1.55,0,0,0,.19-.33c.16-.32.21-.51.15-.58a2.31,2.31,0,0,1,0-1.05c0-.13.09-.56.17-1.28s.16-1.4.26-2a8.83,8.83,0,0,1,.24-1.24,11,11,0,0,0,.31-1.23c.15-.65.23-1.05.27-1.17a6.35,6.35,0,0,0,.14-1.49,2.66,2.66,0,0,0-.14-1.15c-.2-.23.1-.44.88-.65a7.55,7.55,0,0,1,1.66-.31,3.85,3.85,0,0,1,.82.19,4,4,0,0,1,1,.91c.46.51.69.86.69,1.06s.12.3.34.52a2.41,2.41,0,0,0,.77.53,4,4,0,0,1,1.51,1.3,7.58,7.58,0,0,1,1.18,2.06l.76,1.87c.36.87.6,1.49.72,1.88a37.67,37.67,0,0,0,1.56,3.48,8.78,8.78,0,0,0,1.32,2.28q.11,0,.36-.72c.18-.48.37-1,.58-1.68s.34-1,.41-1.2a34.56,34.56,0,0,0,1.25-4.56,19.72,19.72,0,0,0,.24-3,24,24,0,0,0-.05-2.86,5.29,5.29,0,0,0-.12-1,1.08,1.08,0,0,0-.36-.48c-.26-.25-.45-.38-.58-.38a.83.83,0,0,1-.55-.34.9.9,0,0,1-.31-.57q0-.39,1-1a3.61,3.61,0,0,1,2.52-.17,3.44,3.44,0,0,1,1.89,1c.07.06.39.29,1,.67a7,7,0,0,1,.89.7,7.8,7.8,0,0,1,.7.84,3.38,3.38,0,0,1,.57,1c.16.4.21.63.15.7s0,.22.05.48a13.8,13.8,0,0,1,.12,2.78,31.09,31.09,0,0,1-.17,3.41c-.36,2.24-.56,3.44-.63,3.6s-.27.74-.62,1.85a16.87,16.87,0,0,1-.67,1.89,7.78,7.78,0,0,0-.39.75q-.24.5-.45.84a3.74,3.74,0,0,1-.51.62,4.83,4.83,0,0,0-.43.72,1.47,1.47,0,0,1-.72.72c0-.19-.06-.22-.19-.09a.61.61,0,0,0-.14.28c-.07.23-.19.32-.36.29s-.29,0-.32.19-.12.29-.19.29-.11.07-.14.19-.06.23-.07.29-.09.05-.22-.05-.17-.08-.22,0a.92.92,0,0,0-.16.38c-.13.32-.31.48-.53.48a.76.76,0,0,0-.36.12,1.18,1.18,0,0,0-.36.29c-.1.11-.11.18-.05.21a8,8,0,0,1-1.2.82.14.14,0,0,0-.12.05l-.07.09q0,.15-.15,0c-.09-.12-.14-.12-.14,0s0,.16-.12,0-.12-.14-.12,0-.35.42-1,.48a1.78,1.78,0,0,1-1.34-.24,1.48,1.48,0,0,1-.48-.72.82.82,0,0,1,0-.69,1.16,1.16,0,0,0,.14-.51.46.46,0,0,1,0-.14s0,0,.08,0,.08,0,.14-.1a3.22,3.22,0,0,0,.19-.33.72.72,0,0,0,.1-.34,6.83,6.83,0,0,0-1.13-1.34c-.75-.8-1.13-1.29-1.13-1.47a.48.48,0,0,0-.21-.41,6.12,6.12,0,0,1-1-1.44q-2.2-3.69-2.49-3.69c-.07,0-.1.11-.1.33s0,.29-.1.29a6,6,0,0,0-.38,2,4.13,4.13,0,0,1-.19.89,5.2,5.2,0,0,0-.24,1c-.1.64-.18,1.07-.24,1.3a1.58,1.58,0,0,1,0,.26,1.94,1.94,0,0,1,0,.24c0,.05,0,.07-.08.07S710.78,398.86,710.78,399Z" transform="translate(-611.66 -112)"/><path d="M736.41,379.68c0-.39.1-.58.29-.58a.43.43,0,0,0,.19-.12l.24-.19c.07-.05.11,0,.15,0s.14.06.33,0,.32-.07.39,0,.14.12.14,0,.18-.32.55-.39.57-.13.6-.19.23-.12.29-.07.08.17,0,.36a.33.33,0,0,0,0,.17s0,0,.08-.08a1.54,1.54,0,0,0,.09-.28,1,1,0,0,1,.1-.27s.11,0,.24,0,.21,0,.36-.08.25-.15.31-.12.1,0,.1-.09.08-.19.24,0a.47.47,0,0,1,.19.29c0,.06,0,.09.05.09s0,.11,0-.05v-.19c0-.19,0-.3.1-.33a.32.32,0,0,1,.22,0,.5.5,0,0,0,.31-.07c.06-.06.14-.06.24,0a.43.43,0,0,0,.19.12c.1,0,.13,0,.1-.09l.24,0a5.54,5.54,0,0,0,.57-.07c.19,0,.29-.08.29-.14s.26-.12.77-.17a13.41,13.41,0,0,1,1.56-.05c.53,0,.79.06.79.12s0,.08.1-.05a1.57,1.57,0,0,1,.74-.09,1.67,1.67,0,0,1,.84.14c.06,0,.12,0,.17-.09s.13,0,.26.14.24.22.24.1,0-.25.15-.27.16,0,.19.17.15.26.26.1.2-.2.27-.1.17.1.43.1a1.12,1.12,0,0,1,.53.09,10.14,10.14,0,0,1,2.78,1.83,1.26,1.26,0,0,1,.19,1.24,2.1,2.1,0,0,1-.77,1,3.18,3.18,0,0,1-.76.36c-.32.11-.71.23-1.16.34l-1,.26a6,6,0,0,1-.82.19,3.86,3.86,0,0,0-1.06.34,4,4,0,0,1-1.1.14,5.14,5.14,0,0,0-1.27.2,5.5,5.5,0,0,1-1.18.19,4.21,4.21,0,0,0-1.15.19c-.38.06-.62.18-.7.36a4.15,4.15,0,0,0-.07,1.37,6.68,6.68,0,0,1-.29,1.92c-.28,1-.35,1.57-.19,1.73s.47.06,1.13-.1a3.74,3.74,0,0,0,1.13-.38c.19-.13.82-.08,1.89.16a8.41,8.41,0,0,1,2,.6.53.53,0,0,1,.24.39c0,.13-.08.19-.24.19s-.2.06-.2.19-.12.22-.38.46-.37.4-.34.48,0,.17-.14.26-.18.18-.14.24-.1.25-.39.46-.43.34-.43.41,0,.06-.1.09l-.21.1-.22.09c-.19.16-.25.24-.19.24h.1c.19,0,.16.07-.1.2l-1.39.76a1.37,1.37,0,0,1-.72.29c-1.31.35-2,.55-2.07.58a2.24,2.24,0,0,0-.09.91,7.71,7.71,0,0,1-.22,1.18,4.62,4.62,0,0,0-.17,1.12c0,.55-.06.85-.19.92l-.09-.2c0-.16-.08-.12-.15.1a1.12,1.12,0,0,1-.05.34c-.06.51-.14.8-.24.86s-.05,0-.07,0a.3.3,0,0,1,0-.19.46.46,0,0,0-.1-.43c-.06-.07-.11,0-.14.09V400c0,.55.14.87.33,1s.53.07,1-.12a4,4,0,0,1,.89-.34l1.1-.24c.47-.1.86-.19,1.18-.29a7.64,7.64,0,0,1,1.49-.24s.2,0,.52-.14.52-.18.58-.15a.25.25,0,0,0,.24,0c0-.06.31-.12.84-.16a3.82,3.82,0,0,0,.84-.12c.26-.2,1-.18,2.21,0a8.94,8.94,0,0,1,1.89.53c.53.23.8.45.8.67s0,.2,0,.22,0,0-.12,0a.2.2,0,0,0-.14.05c0,.07-.11.09-.22.07s-.17.06-.17.22a.37.37,0,0,1-.31.22.35.35,0,0,0-.31.21q-.24.29-.24.12c0-.11-.09-.13-.26-.05s-.27.09-.27,0,0-.15-.12-.15-.1.08-.07.24a.33.33,0,0,1-.1.39c-.12.13-.24.16-.33.09s-.07,0-.1.12a1.76,1.76,0,0,1-.14.27c-.07.09-.13.13-.19.09s-.23.05-.29.24-.19.34-.29.24a.41.41,0,0,1,0-.19q0-.24-.24.15c-.09.22-.18.29-.26.21s-.22-.07-.41,0-.29.25-.29.19l-.29.19c0,.06,0,.11,0,.14s0,.12-.09.15-.1,0-.1-.1a.14.14,0,0,1,0-.09c0-.2,0-.23-.14-.1a.16.16,0,0,0-.07.24.17.17,0,0,1-.07.24q-.24.19-.24,0t-.15.12c-.09.21-.22.31-.38.31s-.24,0-.24.1-.21.14-.63.24a30.81,30.81,0,0,0-4.08,1.29,11.26,11.26,0,0,1-2.4.63l-.31.14a2.45,2.45,0,0,1-.43.15c-.14,0-.23,0-.26,0s-.16,0-.2,0a1.27,1.27,0,0,1-.6.1c-.27,0-.8,0-1.6-.1a.36.36,0,0,1-.32-.24c-.08-.16-.18-.22-.31-.19s-.29,0-.29-.09-.17-.16-.52-.17-.55-.06-.58-.12-.14-.1-.31-.1-.27,0-.27-.12-.08-.12-.24-.12-.46-.17-.81-.53a2.26,2.26,0,0,1-.63-.91,3.12,3.12,0,0,1-.14-.93c0-.34,0-.54.14-.6a2.18,2.18,0,0,1,1.06-.15c.58,0,1.1,0,1.58-.05s.72-.12.72-.28.1-.1.29-.1c.35,0,.39-.3.1-.91a2.29,2.29,0,0,1-.29-.87c0-.28-.06-.94-.1-2a8.63,8.63,0,0,0-.14-2.38c-.1-.11-.11-.21,0-.29s0-.23-.21-.45a1.55,1.55,0,0,0-1-.41,3.17,3.17,0,0,1-1.56-.75,4.16,4.16,0,0,1-1.08-1,2,2,0,0,1-.31-1.05q-.1-.72.09-.87a2.9,2.9,0,0,1,1.2-.14,4.9,4.9,0,0,0,1.63-.26c.32-.15.52-.19.58-.12s.26.06.5-.1.38-.3.41-.43c0-.71.05-1,.05-1,.06-.13.16-.13.29,0s.14.1.14,0a.26.26,0,0,0,0-.14c-.12-.58-.16-.87-.09-.87s.09,0,.09-.14v-.24c0-.1,0-.47.08-1.13s.07-1.23.07-1.73-.07-.74-.19-.74-.18.11-.24.33-.15.12-.24-.14a1.29,1.29,0,0,0-.15-.24s-.05,0-.07,0a.35.35,0,0,1-.14.1,1,1,0,0,1-.32,0c-.28,0-.43-.06-.43-.19s-.11-.11-.33.05-.21.11-.24.05a.33.33,0,0,0-.24-.1c-.1,0-.18-.06-.24-.19s-.2-.26-.29-.19-.09,0-.17-.12a1.81,1.81,0,0,1-.22-.48,4.69,4.69,0,0,1-.14-.65,2.05,2.05,0,0,1,.82-2.26c1.12-.83,1.77-1.2,2-1.1a.15.15,0,0,0,.17,0,1.15,1.15,0,0,0,.15-.2c0-.08.09-.11.14-.09s.12.12.22.31Z" transform="translate(-611.66 -112)"/><path d="M784,382.13c0,.12-.28.2-.84.21s-.84.12-.84.31-.07.2-.22.29a.42.42,0,0,1-.36.1l-.48.31a.69.69,0,0,1-.24.12c-.19,0-.3,0-.33.1s-.16.11-.36.14l-.65.1-.43,0a4.36,4.36,0,0,1-1,.17c-.53.05-1.16.09-1.88.12l-1.17.05-2.52.14-2.67.15-1.25.09-.23.87a21.27,21.27,0,0,0-.77,3.17c0,.16,0,.25.24.28a11.66,11.66,0,0,0,1.87-.09,10.33,10.33,0,0,1,4.37.81,5.52,5.52,0,0,0,1.29.44.29.29,0,0,1,.31.19c0,.13.32.32.8.57a7.41,7.41,0,0,1,2.23,2,9.14,9.14,0,0,1,1.51,2.61,8.06,8.06,0,0,1,.38,4.13,6.61,6.61,0,0,0-.19,1,6.62,6.62,0,0,1-.74,1.54,8.23,8.23,0,0,1-1,1.48q-2.59,2.55-3.7,2.88a5.2,5.2,0,0,0-.55.22l-1,.41a2,2,0,0,1-.51.17s-.15,0-.41.07-.53.07-1.1.12-.95.09-1.1.12a.7.7,0,0,1-.58-.07.85.85,0,0,0-.62-.12q-.3.09-.39,0c-.06-.1,0-.18.14-.24a.32.32,0,0,1,.15,0c.13,0,.19,0,.19,0a.93.93,0,0,0-.09-.17q-.15-.24-.27-.09c-.08.09-.14.14-.17.14-.25,0-.38.05-.38.24s-.1.12-.29-.12a.67.67,0,0,0-.62-.31.87.87,0,0,0-.27.14l-.14.12s-.06,0-.12-.07-.16-.14-.19-.05-.14.19-.22.17-.12-.09-.12-.21-.05-.12-.17-.05-.2.05-.26-.05a.23.23,0,0,0-.22-.1,1.83,1.83,0,0,1-.33,0c-.12,0-.17,0-.17-.07s-.11-.07-.34-.12l-.64-.12c-.21,0-.33,0-.37,0s0,0-.09-.1-.12-.23-.07-.31,0-.14,0-.17a.72.72,0,0,0-.5.29c-.18.19-.3.24-.36.14s0-.09.09-.19.23-.3,0-.33a.54.54,0,0,0-.33.07c-.07,0-.1,0-.1-.12v-.1c0-.22,0-.33-.19-.31a2.11,2.11,0,0,0-.48.12c-.16.06-.26,0-.29-.14s-.07-.19-.21-.17-.3-.14-.46-.46a1.54,1.54,0,0,0-.26-.38s-.11,0-.17.14-.19.19-.19.17a.57.57,0,0,1,0-.17c.06-.16,0-.24-.1-.24a.79.79,0,0,1-.24-.12l-.36-.24c-.11-.08-.18-.1-.19-.07s-.05,0-.1-.07l-.14-.24c0-.08-.11-.11-.17-.07s-.33-.11-.7-.41a6,6,0,0,1-.84-.84,3.82,3.82,0,0,1-.38-.87l-.15-.52a10.45,10.45,0,0,0,.84-.8c.37-.36.65-.63.85-.79l0,.48a1.3,1.3,0,0,0,.46.77q.36.28.36.48c0,.16.17.39.53.7a2.41,2.41,0,0,0,1,.55,9.92,9.92,0,0,1,1.05.24,11.47,11.47,0,0,0,2,0,9.73,9.73,0,0,0,2.24-.31l.84-.22.64-.16c.13,0,.32-.1.58-.2s.56-.22.91-.38c.8-.42,1.22-.62,1.25-.62a6.57,6.57,0,0,0,1.7-1.11,15.22,15.22,0,0,0,2-1.73,4.14,4.14,0,0,0,1.25-2.78,1.86,1.86,0,0,0-.72-1.73,6.5,6.5,0,0,0-2.93-.43c-.57,0-1.66.16-3.26.38-1.22.2-1.91.48-2.06.87a.72.72,0,0,1-.44.38,6.93,6.93,0,0,1-1.34.19,2.36,2.36,0,0,1-1.54-.52,6.61,6.61,0,0,1-1.49-1.3,2.08,2.08,0,0,1-.43-1.25.92.92,0,0,1,.2-.67.3.3,0,0,0,.14-.26,1.64,1.64,0,0,0-.07-.44l-.12-.4a4.24,4.24,0,0,0-.19-.92,11,11,0,0,1-.2-2.35q0-1.4-.09-1.68a.81.81,0,0,0-.29-.48,7.2,7.2,0,0,0-.87-.38,3.8,3.8,0,0,1-.81-.39,1,1,0,0,0-.48-.14c-.1,0-.37-.21-.82-.62a5.41,5.41,0,0,1-1-1.11,2.29,2.29,0,0,1-.26-1.08c0-.56,0-.87.07-.93a2.05,2.05,0,0,1,1-.1,2.57,2.57,0,0,1,1.18.29,1.9,1.9,0,0,0,.82.24,11.5,11.5,0,0,0,1.34-.15,2.78,2.78,0,0,0,.91-.19.71.71,0,0,0,.24-.43,4.24,4.24,0,0,0-.14-2.21,2.83,2.83,0,0,1-.2-1.25c0-.12.43-.19,1.18-.19a4.43,4.43,0,0,1,1.32.1,3.29,3.29,0,0,1,.6.24,1.64,1.64,0,0,0,.55.19,5,5,0,0,1,1.2.91,3.16,3.16,0,0,1,.92,1.2,1,1,0,0,0,.52.58c.2.06,1.67.08,4.44,0s5.61-.1,8.52-.2a17.15,17.15,0,0,1,2,.05,5.76,5.76,0,0,1,2.16.48,2.66,2.66,0,0,1,1.53,1.63.69.69,0,0,1,0,.44,1.82,1.82,0,0,1-.41.43,1.74,1.74,0,0,1-.57.38,3.49,3.49,0,0,1-.82,0C784.33,382,784,382,784,382.13Z" transform="translate(-611.66 -112)"/><path d="M790.12,379.68c0-.39.1-.58.29-.58a.43.43,0,0,0,.19-.12l.24-.19c.07-.05.12,0,.15,0s.14.06.33,0,.32-.07.39,0,.14.12.14,0,.19-.32.55-.39.57-.13.6-.19.23-.12.29-.07.08.17.05.36,0,.15,0,.17,0,0,.07-.08a1.54,1.54,0,0,0,.09-.28,1.44,1.44,0,0,1,.1-.27s.11,0,.24,0,.22,0,.36-.08.25-.15.31-.12.1,0,.1-.09.08-.19.24,0a.47.47,0,0,1,.19.29c0,.06,0,.09.05.09s0,.11,0-.05v-.19q0-.28.09-.33a.33.33,0,0,1,.22,0,.5.5,0,0,0,.31-.07c.06-.06.14-.06.24,0s.16.12.19.12.13,0,.1-.09l.24,0a5.54,5.54,0,0,0,.57-.07c.2,0,.29-.08.29-.14s.26-.12.77-.17a13.41,13.41,0,0,1,1.56-.05c.53,0,.79.06.79.12s0,.08.1-.05a1.57,1.57,0,0,1,.74-.09,1.67,1.67,0,0,1,.84.14c.07,0,.12,0,.17-.09s.14,0,.26.14.24.22.24.1,0-.25.15-.27.16,0,.19.17.15.26.26.1.2-.2.27-.1.17.1.43.1a1.09,1.09,0,0,1,.53.09,10.14,10.14,0,0,1,2.78,1.83,1.26,1.26,0,0,1,.19,1.24,2.14,2.14,0,0,1-.76,1,3.48,3.48,0,0,1-.77.36c-.32.11-.71.23-1.15.34l-1,.26a6,6,0,0,1-.82.19,3.66,3.66,0,0,0-1,.34,4.2,4.2,0,0,1-1.11.14,5.21,5.21,0,0,0-1.27.2,5.5,5.5,0,0,1-1.18.19,4.21,4.21,0,0,0-1.15.19q-.57.09-.69.36a4,4,0,0,0-.08,1.37,7,7,0,0,1-.28,1.92c-.29,1-.36,1.57-.2,1.73s.48.06,1.13-.1a3.74,3.74,0,0,0,1.13-.38c.19-.13.82-.08,1.9.16a8.43,8.43,0,0,1,2,.6.53.53,0,0,1,.24.39c0,.13-.08.19-.24.19a.17.17,0,0,0-.19.19c0,.07-.13.22-.39.46s-.37.4-.33.48,0,.17-.15.26-.17.18-.14.24-.1.25-.39.46-.43.34-.43.41,0,.06-.09.09l-.22.1-.22.09c-.19.16-.25.24-.19.24h.1c.19,0,.16.07-.1.2l-1.39.76c-.06.1-.3.2-.72.29-1.31.35-2,.55-2.06.58a2,2,0,0,0-.1.91,6.66,6.66,0,0,1-.22,1.18,4.56,4.56,0,0,0-.16,1.12c0,.55-.07.85-.2.92l-.09-.2c0-.16-.08-.12-.15.1a1.48,1.48,0,0,1,0,.34c-.07.51-.15.8-.24.86s-.06,0-.08,0a.39.39,0,0,1,0-.19.46.46,0,0,0-.1-.43c-.06-.07-.11,0-.14.09V400c0,.55.14.87.33,1s.53.07,1-.12a4,4,0,0,1,.89-.34l1.1-.24c.47-.1.86-.19,1.18-.29a7.64,7.64,0,0,1,1.49-.24s.21,0,.53-.14.51-.18.57-.15a.25.25,0,0,0,.24,0c0-.06.31-.12.84-.16a3.82,3.82,0,0,0,.84-.12c.26-.2,1-.18,2.21,0a9,9,0,0,1,1.9.53c.52.23.79.45.79.67s0,.2,0,.22,0,0-.12,0a.2.2,0,0,0-.14.05c0,.07-.1.09-.22.07s-.16.06-.16.22a.4.4,0,0,1-.32.22.36.36,0,0,0-.31.21q-.24.29-.24.12c0-.11-.09-.13-.26-.05s-.27.09-.27,0,0-.15-.12-.15-.1.08-.07.24a.32.32,0,0,1-.09.39c-.13.13-.24.16-.34.09s-.06,0-.1.12a1.76,1.76,0,0,1-.14.27c-.06.09-.13.13-.19.09s-.23.05-.29.24-.19.34-.29.24a.41.41,0,0,1-.05-.19q0-.24-.24.15c-.09.22-.18.29-.26.21s-.22-.07-.41,0-.29.25-.29.19l-.28.19c0,.06,0,.11,0,.14s0,.12-.1.15-.1,0-.1-.1a.12.12,0,0,1,0-.09c0-.2-.05-.23-.15-.1a.17.17,0,0,0-.07.24.17.17,0,0,1-.07.24q-.24.19-.24,0t-.15.12c-.09.21-.22.31-.38.31s-.24,0-.24.1-.21.14-.62.24a29.89,29.89,0,0,0-4.08,1.29,11.57,11.57,0,0,1-2.4.63l-.32.14a2.19,2.19,0,0,1-.43.15c-.14,0-.23,0-.26,0s-.16,0-.19,0a1.33,1.33,0,0,1-.6.1c-.28,0-.81,0-1.61-.1-.13,0-.23-.08-.31-.24s-.19-.22-.32-.19-.28,0-.28-.09-.18-.16-.53-.17-.55-.06-.58-.12-.13-.1-.31-.1-.26,0-.26-.12-.08-.12-.24-.12-.47-.17-.82-.53a2.12,2.12,0,0,1-.62-.91,2.83,2.83,0,0,1-.15-.93q0-.51.15-.6a2.13,2.13,0,0,1,1-.15c.58,0,1.11,0,1.59-.05s.72-.12.72-.28.09-.1.28-.1c.36,0,.39-.3.1-.91a2.29,2.29,0,0,1-.29-.87c0-.28-.06-.94-.09-2a8.38,8.38,0,0,0-.15-2.38c-.09-.11-.11-.21-.05-.29s0-.23-.21-.45a1.55,1.55,0,0,0-1-.41,3.25,3.25,0,0,1-1.56-.75,4.53,4.53,0,0,1-1.08-1,2,2,0,0,1-.31-1.05c-.07-.48,0-.77.09-.87a2.9,2.9,0,0,1,1.2-.14,5,5,0,0,0,1.64-.26q.48-.22.57-.12c.1.09.27.06.51-.1s.37-.3.4-.43c0-.71.05-1,.05-1,.07-.13.16-.13.29,0s.14.1.14,0a.33.33,0,0,0,0-.14c-.13-.58-.16-.87-.1-.87s.1,0,.1-.14v-.24c0-.1,0-.47.07-1.13s.07-1.23.07-1.73-.06-.74-.19-.74-.18.11-.24.33-.15.12-.24-.14a.91.91,0,0,0-.15-.24s0,0-.07,0-.06.06-.14.1a.93.93,0,0,1-.31,0c-.29,0-.44-.06-.44-.19s-.11-.11-.33.05-.21.11-.24.05a.33.33,0,0,0-.24-.1c-.1,0-.18-.06-.24-.19s-.19-.26-.29-.19-.09,0-.17-.12a1.56,1.56,0,0,1-.21-.48,3.61,3.61,0,0,1-.15-.65,2.05,2.05,0,0,1,.82-2.26c1.12-.83,1.77-1.2,2-1.1a.13.13,0,0,0,.16,0,1.15,1.15,0,0,0,.15-.2c.05-.08.09-.11.14-.09s.12.12.22.31Z" transform="translate(-611.66 -112)"/><path d="M849.93,377.33a27.79,27.79,0,0,1,3.75.64,8.38,8.38,0,0,1,2.54.84c.13.13.17.24.12.32s-.2.12-.46.12-.36,0-.4.12a3.15,3.15,0,0,1-1.11.36,6.11,6.11,0,0,0-1.46.48c-.29.16-.47.17-.53,0s-.13-.09-.19.1-.23.22-.6.26a1.34,1.34,0,0,0-.7.22.69.69,0,0,1-.48.24c-.45,0-.67.14-.67.43a9.5,9.5,0,0,1-.72,2.07,3.42,3.42,0,0,0-.26.64c-.08.24-.16.45-.22.63a1.87,1.87,0,0,1-.34.55,5.43,5.43,0,0,0-.55,1,5.59,5.59,0,0,1-.6,1.08,4.19,4.19,0,0,0-.57,1.16.24.24,0,0,1-.2.24,5.14,5.14,0,0,0-.33.55c-.19.33-.38.68-.55,1a3.49,3.49,0,0,0-.27.58c-.45.64-1.22,1.92-2.33,3.84s-1.83,3.24-2.18,4c-.22.54-.38.82-.46.82s-.18.16-.31.5-.26.69-.41,1.06a1.49,1.49,0,0,1-.36.64,1.3,1.3,0,0,0-.14.32,2.36,2.36,0,0,1-.22.45c-.08.13-.13.19-.16.19s-.27.09-.6.36a2.67,2.67,0,0,1-.56.41c-.06,0-.12.1-.19.29a1,1,0,0,1-.57.53c-.26.13-.36.23-.29.31s0,.18-.15.31a1.42,1.42,0,0,1-.57.19,3.55,3.55,0,0,0-.72.2,3.26,3.26,0,0,1-2.26.14,2.34,2.34,0,0,0-1.39.17,4.35,4.35,0,0,1-1.15.31c-.26,0-.61-.3-1.06-.79s-.56-.92-.33-1.27a1.46,1.46,0,0,0-.1-1.11l-.29-.89c-.13-.4-.25-.76-.38-1.08s-.24-.59-.34-.81a1.71,1.71,0,0,1-.29-.79c0-.21,0-.35-.14-.41a1.59,1.59,0,0,1-.29-.63q-.2-.57-.36-1.2t-.21-.72a1.92,1.92,0,0,1-.2-.79c0-.24,0-.38-.09-.43a1.24,1.24,0,0,1-.22-.58q-.12-.5-.36-1.89c0-.26-.13-.94-.29-2s-.27-1.79-.33-2a8.81,8.81,0,0,1-.15-1.83c0-1,0-2.08-.16-3.19a8.88,8.88,0,0,0-.32-1.94,11.11,11.11,0,0,1-1.34-2.35c0-.1.14-.18.43-.24a10.06,10.06,0,0,1,1-.17c.38,0,.61-.07.67-.07a4.14,4.14,0,0,1,1.49.09c.77.13,1.17.24,1.2.34a.28.28,0,0,0,.26.19.4.4,0,0,1,.32.19,4.24,4.24,0,0,1,.91,1.2c0,.1.14.31.43.63a7.94,7.94,0,0,1,1.06,1.82,6.05,6.05,0,0,1,.62,1.73,4.65,4.65,0,0,0,.12,1,15.63,15.63,0,0,1,.17,2.33c.13,2.34.27,4.08.43,5.23.35,2.4.62,3.6.82,3.6a23.92,23.92,0,0,0,1.39-2.78c.06-.13.22-.43.48-.89s.41-.78.48-.94.25-.59.77-1.68a2.87,2.87,0,0,1,.64-1c.15-.08.22-.17.22-.29a1.23,1.23,0,0,1,.1-.43,5,5,0,0,1,.28-.6c.13-.22.21-.37.24-.43s.48-.85,1.25-2.16A19.24,19.24,0,0,1,839.9,384c.45-.58.61-.93.48-1.06h-.14c-.13.07-.25,0-.36-.19a2,2,0,0,0-.65-.58,3.77,3.77,0,0,1-1.32-1.46,2.8,2.8,0,0,1-.31-1.8c.06-.38.17-.61.33-.67a3,3,0,0,1,1.2.05,5.7,5.7,0,0,0,2.11-.15,44.66,44.66,0,0,1,4.9-.86A21,21,0,0,1,849.93,377.33Z" transform="translate(-611.66 -112)"/><path d="M854.59,379.68c0-.39.09-.58.29-.58,0,0,.09,0,.19-.12l.24-.19c.06-.05.11,0,.14,0s.15.06.34,0,.32-.07.38,0,.15.12.15,0,.18-.32.55-.39.57-.13.6-.19.22-.12.29-.07.08.17,0,.36,0,.15,0,.17,0,0,.07-.08a1.43,1.43,0,0,0,.1-.28A1,1,0,0,1,858,378s.12,0,.24,0,.22,0,.36-.08.25-.15.32-.12.09,0,.09-.09.08-.19.24,0a.43.43,0,0,1,.19.29c0,.06,0,.09,0,.09s.05.11.05-.05v-.19c0-.19,0-.3.1-.33a.3.3,0,0,1,.21,0,.49.49,0,0,0,.31-.07.17.17,0,0,1,.24,0c.1.08.16.12.2.12s.12,0,.09-.09l.24,0a5.73,5.73,0,0,0,.58-.07c.19,0,.29-.08.29-.14s.25-.12.76-.17a13.55,13.55,0,0,1,1.56-.05c.53,0,.8.06.8.12s0,.08.09-.05a1.63,1.63,0,0,1,.75-.09,1.67,1.67,0,0,1,.84.14c.06,0,.12,0,.16-.09s.14,0,.27.14.24.22.24.1.05-.25.14-.27.16,0,.19.17.16.26.27.1.2-.2.26-.1.18.1.43.1a1.06,1.06,0,0,1,.53.09,10.22,10.22,0,0,1,2.79,1.83,1.29,1.29,0,0,1,.19,1.24,2.16,2.16,0,0,1-.77,1,3.27,3.27,0,0,1-.77.36c-.32.11-.7.23-1.15.34l-1,.26a5.27,5.27,0,0,1-.81.19,3.75,3.75,0,0,0-1.06.34,4.17,4.17,0,0,1-1.1.14,5.21,5.21,0,0,0-1.28.2,5.34,5.34,0,0,1-1.17.19,4.15,4.15,0,0,0-1.15.19c-.39.06-.62.18-.7.36a4.15,4.15,0,0,0-.07,1.37,7.05,7.05,0,0,1-.29,1.92c-.29,1-.35,1.57-.19,1.73s.47.06,1.13-.1a3.63,3.63,0,0,0,1.12-.38,3.66,3.66,0,0,1,1.9.16,8.26,8.26,0,0,1,2,.6.53.53,0,0,1,.24.39c0,.13-.08.19-.24.19a.17.17,0,0,0-.19.19c0,.07-.13.22-.38.46s-.37.4-.34.48,0,.17-.14.26-.18.18-.15.24-.09.25-.38.46-.43.34-.43.41,0,.06-.1.09l-.22.1-.21.09c-.19.16-.26.24-.19.24h.09c.19,0,.16.07-.09.2l-1.4.76c-.06.1-.3.2-.72.29-1.31.35-2,.55-2.06.58a2.15,2.15,0,0,0-.1.91,7.58,7.58,0,0,1-.21,1.18,4.62,4.62,0,0,0-.17,1.12c0,.55-.06.85-.19.92l-.1-.2c0-.16-.08-.12-.14.1a1.55,1.55,0,0,1,0,.34c-.06.51-.14.8-.24.86s-.06,0-.07,0,0-.1,0-.19a.49.49,0,0,0-.09-.43q-.11-.11-.15.09V400c0,.55.15.87.34,1s.53.07,1-.12a3.94,3.94,0,0,1,.88-.34l1.11-.24c.46-.1.85-.19,1.17-.29a7.75,7.75,0,0,1,1.49-.24s.21,0,.53-.14.51-.18.58-.15a.25.25,0,0,0,.24,0c0-.06.31-.12.84-.16a4.11,4.11,0,0,0,.84-.12c.25-.2,1-.18,2.2,0a9,9,0,0,1,1.9.53c.53.23.79.45.79.67a.71.71,0,0,1,0,.22s-.06,0-.12,0a.23.23,0,0,0-.15.05c0,.07-.1.09-.21.07s-.17.06-.17.22a.38.38,0,0,1-.31.22.34.34,0,0,0-.31.21q-.24.29-.24.12c0-.11-.09-.13-.27-.05s-.26.09-.26,0,0-.15-.12-.15-.11.08-.07.24a.33.33,0,0,1-.1.39c-.13.13-.24.16-.34.09s-.06,0-.09.12a1.25,1.25,0,0,1-.15.27c-.06.09-.12.13-.19.09s-.22.05-.29.24-.19.34-.28.24a.32.32,0,0,1,0-.19q0-.24-.24.15t-.27.21c-.08-.08-.21-.07-.4,0s-.29.25-.29.19l-.29.19c0,.06,0,.11,0,.14s0,.12-.1.15-.09,0-.09-.1a.14.14,0,0,1-.05-.09c0-.2,0-.23-.14-.1a.17.17,0,0,0-.08.24.16.16,0,0,1-.07.24q-.24.19-.24,0c0-.13,0-.09-.14.12s-.23.31-.39.31-.24,0-.24.1-.2.14-.62.24a29.89,29.89,0,0,0-4.08,1.29,11.26,11.26,0,0,1-2.4.63l-.31.14a2.76,2.76,0,0,1-.43.15q-.23,0-.27,0c-.09-.07-.16,0-.19,0a1.33,1.33,0,0,1-.6.1c-.27,0-.81,0-1.61-.1-.13,0-.23-.08-.31-.24s-.18-.22-.31-.19-.29,0-.29-.09-.18-.16-.53-.17-.54-.06-.57-.12-.14-.1-.32-.1-.26,0-.26-.12-.08-.12-.24-.12-.46-.17-.82-.53a2.12,2.12,0,0,1-.62-.91,2.83,2.83,0,0,1-.14-.93c0-.34,0-.54.14-.6a2.18,2.18,0,0,1,1.06-.15c.57,0,1.1,0,1.58-.05s.72-.12.72-.28.1-.1.29-.1c.35,0,.38-.3.09-.91a2.27,2.27,0,0,1-.28-.87c0-.28-.07-.94-.1-2a9.13,9.13,0,0,0-.14-2.38c-.1-.11-.12-.21,0-.29s0-.23-.22-.45a1.53,1.53,0,0,0-1-.41,3.25,3.25,0,0,1-1.56-.75,4.53,4.53,0,0,1-1.08-1,2.11,2.11,0,0,1-.31-1.05c-.06-.48,0-.77.1-.87a2.9,2.9,0,0,1,1.2-.14,4.9,4.9,0,0,0,1.63-.26c.32-.15.51-.19.58-.12s.26.06.5-.1.38-.3.41-.43c0-.71,0-1,0-1,.06-.13.16-.13.28,0s.15.1.15,0a.39.39,0,0,0-.05-.14c-.13-.58-.16-.87-.1-.87s.1,0,.1-.14v-.24c0-.1,0-.47.07-1.13s.07-1.23.07-1.73-.06-.74-.19-.74-.17.11-.24.33-.14.12-.24-.14a1,1,0,0,0-.14-.24s-.06,0-.07,0a.42.42,0,0,1-.15.1.9.9,0,0,1-.31,0c-.29,0-.43-.06-.43-.19s-.11-.11-.34.05-.21.11-.24.05a.3.3,0,0,0-.24-.1c-.09,0-.17-.06-.24-.19s-.19-.26-.29-.19-.08,0-.16-.12a1.54,1.54,0,0,1-.22-.48,4.69,4.69,0,0,1-.14-.65,2,2,0,0,1,.81-2.26c1.12-.83,1.78-1.2,2-1.1a.15.15,0,0,0,.17,0,1.15,1.15,0,0,0,.14-.2q.07-.12.15-.09s.12.12.21.31Z" transform="translate(-611.66 -112)"/><path d="M879.21,399a2.12,2.12,0,0,1-.29.7,2.05,2.05,0,0,0-.28.79c0,.26,0,.38-.1.38s-.21.2-.34.6a2.13,2.13,0,0,0-.14.84,1.42,1.42,0,0,1-.26,1,2.75,2.75,0,0,1-.7.92q-.24.14-.24.24a.74.74,0,0,1-.26.4c-.18.18-.32.27-.41.27s-.26.06-.29.19c-.16.45-.51.34-1.06-.34a3.49,3.49,0,0,1-.81-1.34,11.12,11.12,0,0,1-.15-2.3,23.41,23.41,0,0,0-.24-4c-.06-.32,0-.48.1-.48a.28.28,0,0,0,.31-.31.66.66,0,0,0-.21-.55l-.2-.26s0-.05.1-.1a.27.27,0,0,0,.1-.22c0-.06,0-.08-.1,0v-.39c.1-.35.18-.53.24-.53s.14-.19-.05-.48q-.2-.18-.09-.72c0-.22.08-.33.14-.33s.13,0,.19-.15a.49.49,0,0,0-.07-.38.91.91,0,0,1-.14-.29c0-.06.07-.16.26-.29s.32-.25.29-.38-.1-.06-.19,0-.2,0-.2-.1a1.41,1.41,0,0,0,.2-.33c.16-.32.2-.51.14-.58a2.69,2.69,0,0,1,0-1.05c0-.13.09-.56.17-1.28s.17-1.4.26-2a10.69,10.69,0,0,1,.24-1.24,9,9,0,0,0,.31-1.23c.15-.65.24-1.05.27-1.17a6.35,6.35,0,0,0,.14-1.49,2.66,2.66,0,0,0-.14-1.15c-.19-.23.1-.44.89-.65a7.39,7.39,0,0,1,1.65-.31,2.26,2.26,0,0,1,1.85,1.1c.46.51.7.86.7,1.06a.93.93,0,0,0,.33.52,2.52,2.52,0,0,0,.77.53,4,4,0,0,1,1.51,1.3,7.58,7.58,0,0,1,1.18,2.06c.16.39.41,1,.77,1.87s.59,1.49.72,1.88a32.86,32.86,0,0,0,1.56,3.48,8.14,8.14,0,0,0,1.32,2.28q.09,0,.36-.72t.57-1.68c.21-.64.35-1,.41-1.2a33,33,0,0,0,1.25-4.56,17.38,17.38,0,0,0,.24-3,24,24,0,0,0,0-2.86,5.29,5.29,0,0,0-.12-1,1.08,1.08,0,0,0-.36-.48c-.26-.25-.45-.38-.58-.38a.83.83,0,0,1-.55-.34.9.9,0,0,1-.31-.57q0-.39,1-1a3.61,3.61,0,0,1,2.52-.17,3.51,3.51,0,0,1,1.9,1,11,11,0,0,0,1,.67,7.45,7.45,0,0,1,.88.7,7.8,7.8,0,0,1,.7.84,3.39,3.39,0,0,1,.58,1c.16.4.2.63.14.7s-.05.22,0,.48a13.8,13.8,0,0,1,.12,2.78,28.7,28.7,0,0,1-.17,3.41c-.35,2.24-.56,3.44-.62,3.6s-.28.74-.63,1.85a14.86,14.86,0,0,1-.67,1.89,8.23,8.23,0,0,0-.38.75c-.16.33-.32.61-.46.84a3.67,3.67,0,0,1-.5.62,4,4,0,0,0-.44.72q-.37.63-.72.72c0-.19-.06-.22-.19-.09a.61.61,0,0,0-.14.28c-.07.23-.19.32-.36.29s-.28,0-.31.19-.13.29-.2.29-.11.07-.14.19-.06.23-.07.29-.09.05-.22-.05-.17-.08-.21,0a.77.77,0,0,0-.17.38c-.13.32-.31.48-.53.48a.76.76,0,0,0-.36.12,1.48,1.48,0,0,0-.36.29c-.1.11-.11.18,0,.21a7,7,0,0,1-1.2.82.14.14,0,0,0-.12.05.28.28,0,0,1-.07.09c0,.1-.08.1-.14,0s-.15-.12-.15,0,0,.16-.12,0-.12-.14-.12,0-.35.42-1,.48a1.79,1.79,0,0,1-1.34-.24,1.48,1.48,0,0,1-.48-.72.82.82,0,0,1,0-.69,1.16,1.16,0,0,0,.14-.51.26.26,0,0,1,0-.14s0,0,.07,0,.08,0,.14-.1a2,2,0,0,0,.19-.33.72.72,0,0,0,.1-.34,6.83,6.83,0,0,0-1.13-1.34c-.75-.8-1.13-1.29-1.13-1.47a.48.48,0,0,0-.21-.41,6.47,6.47,0,0,1-1-1.44q-2.21-3.69-2.49-3.69c-.07,0-.1.11-.1.33s0,.29-.09.29-.23.67-.39,2a3.61,3.61,0,0,1-.19.89,5.2,5.2,0,0,0-.24,1c-.1.64-.18,1.07-.24,1.3,0,.06,0,.15,0,.26s0,.19-.05.24,0,.07-.07.07S879.21,398.86,879.21,399Z" transform="translate(-611.66 -112)"/><path d="M927.79,382.13c0,.12-.28.2-.84.21s-.84.12-.84.31-.07.2-.22.29a.42.42,0,0,1-.36.1l-.48.31a.79.79,0,0,1-.24.12c-.19,0-.3,0-.33.1s-.16.11-.36.14l-.65.1-.43,0a4.37,4.37,0,0,1-1,.17c-.52.05-1.15.09-1.87.12l-1.17.05-2.52.14-2.67.15-1.25.09-.23.87a21.27,21.27,0,0,0-.77,3.17c0,.16,0,.25.24.28a11.66,11.66,0,0,0,1.87-.09,10.33,10.33,0,0,1,4.37.81,5.52,5.52,0,0,0,1.29.44.29.29,0,0,1,.31.19c0,.13.32.32.8.57a7.41,7.41,0,0,1,2.23,2,9.14,9.14,0,0,1,1.51,2.61,8.06,8.06,0,0,1,.38,4.13,6.61,6.61,0,0,0-.19,1,6.62,6.62,0,0,1-.74,1.54,8.23,8.23,0,0,1-1,1.48q-2.59,2.55-3.7,2.88a5.2,5.2,0,0,0-.55.22l-1,.41a2.16,2.16,0,0,1-.51.17s-.15,0-.41.07-.53.07-1.1.12-.95.09-1.1.12a.7.7,0,0,1-.58-.07.86.86,0,0,0-.63-.12c-.19.06-.32.06-.38,0s0-.18.14-.24a.32.32,0,0,1,.15,0c.13,0,.19,0,.19,0a.72.72,0,0,0-.1-.17c-.09-.16-.18-.19-.26-.09s-.14.14-.17.14c-.25,0-.38.05-.38.24s-.1.12-.29-.12a.67.67,0,0,0-.62-.31.87.87,0,0,0-.27.14l-.14.12s-.06,0-.12-.07-.16-.14-.19-.05-.14.19-.22.17-.12-.09-.12-.21-.05-.12-.17-.05-.2.05-.26-.05a.23.23,0,0,0-.22-.1,1.83,1.83,0,0,1-.33,0c-.12,0-.17,0-.17-.07s-.11-.07-.34-.12l-.65-.12a.65.65,0,0,0-.36,0c0,.06,0,0-.09-.1s-.12-.23-.07-.31,0-.14,0-.17a.72.72,0,0,0-.5.29c-.18.19-.3.24-.36.14s0-.09.09-.19.23-.3,0-.33a.54.54,0,0,0-.33.07c-.07,0-.1,0-.1-.12v-.1c0-.22,0-.33-.19-.31a2.11,2.11,0,0,0-.48.12c-.16.06-.26,0-.29-.14s-.07-.19-.21-.17-.3-.14-.46-.46a1.54,1.54,0,0,0-.26-.38c-.05,0-.11,0-.17.14s-.19.19-.19.17a.81.81,0,0,1,0-.17q.11-.24-.09-.24a.79.79,0,0,1-.24-.12l-.36-.24c-.11-.08-.18-.1-.19-.07s0,0-.1-.07-.1-.16-.14-.24-.11-.11-.17-.07-.33-.11-.7-.41a6,6,0,0,1-.84-.84,3.42,3.42,0,0,1-.38-.87l-.15-.52a10.45,10.45,0,0,0,.84-.8c.37-.36.65-.63.85-.79l0,.48a1.3,1.3,0,0,0,.46.77q.36.28.36.48c0,.16.17.39.53.7a2.41,2.41,0,0,0,1,.55,9.92,9.92,0,0,1,1.05.24,11.47,11.47,0,0,0,2,0,9.54,9.54,0,0,0,2.23-.31l.84-.22.65-.16c.13,0,.32-.1.58-.2s.56-.22.91-.38c.8-.42,1.22-.62,1.25-.62a6.57,6.57,0,0,0,1.7-1.11,15.22,15.22,0,0,0,2-1.73,4.19,4.19,0,0,0,1.25-2.78,1.86,1.86,0,0,0-.72-1.73,6.5,6.5,0,0,0-2.93-.43c-.57,0-1.66.16-3.26.38-1.22.2-1.91.48-2.06.87a.75.75,0,0,1-.44.38,6.93,6.93,0,0,1-1.34.19,2.36,2.36,0,0,1-1.54-.52,6.61,6.61,0,0,1-1.49-1.3,2.08,2.08,0,0,1-.43-1.25.92.92,0,0,1,.2-.67.3.3,0,0,0,.14-.26,1.64,1.64,0,0,0-.07-.44l-.12-.4a3.7,3.7,0,0,0-.2-.92,11.36,11.36,0,0,1-.19-2.35q0-1.4-.09-1.68a.81.81,0,0,0-.29-.48,7.2,7.2,0,0,0-.87-.38,3.8,3.8,0,0,1-.81-.39,1,1,0,0,0-.48-.14c-.1,0-.37-.21-.82-.62a5.41,5.41,0,0,1-1-1.11,2.29,2.29,0,0,1-.26-1.08c0-.56,0-.87.07-.93a2.05,2.05,0,0,1,1-.1,2.57,2.57,0,0,1,1.18.29,1.9,1.9,0,0,0,.82.24,11.5,11.5,0,0,0,1.34-.15,2.78,2.78,0,0,0,.91-.19.71.71,0,0,0,.24-.43,4.24,4.24,0,0,0-.14-2.21,2.83,2.83,0,0,1-.2-1.25c0-.12.43-.19,1.18-.19a4.43,4.43,0,0,1,1.32.1,3.29,3.29,0,0,1,.6.24,1.64,1.64,0,0,0,.55.19,5,5,0,0,1,1.2.91,3.27,3.27,0,0,1,.92,1.2,1,1,0,0,0,.52.58c.19.06,1.67.08,4.44,0s5.61-.1,8.52-.2a17.15,17.15,0,0,1,2,.05,5.76,5.76,0,0,1,2.16.48,2.66,2.66,0,0,1,1.53,1.63.69.69,0,0,1,0,.44,1.82,1.82,0,0,1-.41.43,1.74,1.74,0,0,1-.57.38,3.49,3.49,0,0,1-.82,0C928.09,382,927.79,382,927.79,382.13Z" transform="translate(-611.66 -112)"/><ellipse cx="158.84" cy="240.5" rx="126.5" ry="3.5"/></svg>