<svg id="Calque_1" data-name="Calque 1" xmlns="http://www.w3.org/2000/svg" viewBox="0 0 678.54 161.8"><defs><style>.cls-1{fill:#940000;}</style></defs><title>logo-2</title><path d="M443.58,227l-.19.07-.05-.16Z" transform="translate(-367 -131.87)"/><path class="cls-1" d="M532.36,196c1.29,6.76,3.28,13.49,3.63,20.3.21,4.27-2.13,8.64-3.15,13-.65,2.74-.88,5.58-1.47,8.33a15,15,0,0,1-2.09,4.88c0-.77-.08-1.53-.14-2.76-.72.57-1.34.83-1.57,1.28-2.09,4-4.35,7.91-6.11,12-4.52,10.63-12.25,18.38-22.22,24.31a23.93,23.93,0,0,0-4.05,3.67c-.92-.07-1.81-.4-2.45-.14-10,4.05-19.67,8.89-29.93,12-5.24,1.59-11.5.39-17.25-.08a80.69,80.69,0,0,1-13.49-2.5c-1.05-.27-2.29-2.19-2.34-3.39-.24-6-.13-12.11-.13-18.17q0-28.77,0-57.54c0-1.91-.59-4.26,3-4.62.07,1.52.2,3,.2,4.46q0,28.58,0,57.17a6.7,6.7,0,0,0,.08,2.62,18.15,18.15,0,0,0,2.27,3.05,14.62,14.62,0,0,0,2.6-3.13c.44-.95.13-2.23.12-3.37q0-30.09,0-60.2c0-1.72-.79-4,2.82-4.13.06,1.3.17,2.6.18,3.9,0,8.58-.1,17.17.14,25.74,0,1.3,1.71,2.56,2.62,3.84.76-1.27,2.16-2.53,2.18-3.81.19-9.46.17-18.93,0-28.39,0-2.29.71-3.3,3.05-3.94Q484,190.68,519,180.69c2.66-.77,4.11.24,5.74,1.68l.59.93a4.69,4.69,0,0,0,.27,1.84c3.42,5.26,4.34,11.11,4.75,17.16.09,1.18,1.27,2.3,2.09,3.7V195.84Z" transform="translate(-367 -131.87)"/><path class="cls-1" d="M465.38,132.67l-2.14,1.27c2.5,2.24,4.76,1.42,7.09.19a3.11,3.11,0,0,1,2.08-.5c9,3.2,17.75,6.94,25.46,12.6.68,5.28,7.18,4.16,9.44,8,.8,1.36,3.65,1.58,5.56,2.33l-.14,1.18L446,191.82c-.37-.95-.67-1.62-.88-2.31-.89-3-3-4.36-6.12-4.22s-5,2.06-5.47,5c-.27,1.61.08,3.33-.33,4.88-.34,1.27-1.38,2.35-2.11,3.52l-1.28-.45c-.06-1.33-.12-2.65-.19-4-.1-1.85.3-4.24-2.64-4.11s-2.37,2.5-2.43,4.35a32.13,32.13,0,0,0,0,3.4c.16,2.31-1,3.18-3.44,3-.09-1.09-.16-2.07-.26-3a6,6,0,0,0-6-5.74c-3.1,0-5.6,2.52-5.95,5.92a45.48,45.48,0,0,1-.72,6c-.22.93-1.23,1.68-1.56,2.1l-4.06-3.25a32.9,32.9,0,0,1-2.42,3.68,8.59,8.59,0,0,1-3.16,2.72c-6.37,2.22-12.85,4.11-19.22,6.34a10.89,10.89,0,0,0-4.91,3.82c9.59,1.18,17.86-3.74,27.16-4.22-4.27,2.2-8.66,4.22-12.76,6.69-1.88,1.12-3.19,3.14-4.76,4.75,2.26-.22,4.67,0,6.75-.74,3.52-1.21,6.83-3,10.95-4.88,0,5.54,0,10.5,0,15.46,0,1.14-.31,2.39.09,3.38a12.89,12.89,0,0,0,2.32,2.93c.86-1,2.44-2,2.48-3.09.24-6,0-12.11.18-18.16,0-1.28.92-2.54,1.41-3.81l1.27.37v61.35l-7-3.85c.64,2.05,1,3.26,1.5,4.81-3.8-3.38-7.44-6.51-10.9-9.81-.58-.55-.11-2-.58-2.82-.71-1.21-.85-3.91-3.63-1.73-.56.45-2.19-.36-3.91-.71.86-.78,1-.95,1-.93.49.25,1,.52,2.26,1.24-4.08-5.91-7.69-11-11.09-16.17a22.69,22.69,0,0,1-2.08-5.14c-1.15-3.35-2.38-6.69-3.28-10.1-1.31-5-4.25-9.5-2.87-15.29,1.05-4.37-.25-9.21.11-13.8a69,69,0,0,1,12-34.74c.66-.94,1.1-2,1.69-3a19.83,19.83,0,0,1,6.41-7.13c4.24-2.74,7.51-6.88,11.23-10.39a30,30,0,0,1,7.31-5.41c-.62.83-1.25,1.65-2.5,3.29a29.17,29.17,0,0,0,3.58-1.38,66.18,66.18,0,0,1,22.43-8.58c2.62-.47,5-2.52,7.59-2.8,5.23-.56,10.19-3.44,15.79-1.55,1.62.54,3.79-.41,5.7-.67l6.44-.91ZM488.09,143c-2.18-3.19-8.42-5.1-13.88-4Z" transform="translate(-367 -131.87)"/><path class="cls-1" d="M424.28,210.49v75.3c-1.44.42-3.06,1.38-4.59,1.24-5.44-.46-6.25-1.55-6.27-7.82q-.06-26.08,0-52.18c0-3.28-.13-6.56.08-9.83.07-1.12,1-2.19,1.55-3.29l1.44.43v4q0,18.33,0,36.68a8.83,8.83,0,0,0,.29,3.35A3,3,0,0,0,419,260a3,3,0,0,0,2.22-1.65,10.69,10.69,0,0,0,.3-3.73c0-13.36,0-26.72,0-40.08C421.52,212.84,420.84,210.49,424.28,210.49Z" transform="translate(-367 -131.87)"/><path class="cls-1" d="M520.73,165.63l1.38,3-20.88,6.82-.28-.68Z" transform="translate(-367 -131.87)"/><path class="cls-1" d="M525.36,183.3l-.59-.93-.9-2,3.75-1.47c1.54,5.53,5,10.75,4.74,17.11l.11-.13Z" transform="translate(-367 -131.87)"/><path class="cls-1" d="M436.63,194.91q1.06-2.86,2.14-5.73c.87.52,2.36.91,2.5,1.57C441.81,193.27,440.67,195,436.63,194.91Z" transform="translate(-367 -131.87)"/><path class="cls-1" d="M417.92,199.17l-3,3.42c-.73-1.08-2-2.16-2-3.23s1.3-2.2,2-3.31C415.81,197,416.65,197.84,417.92,199.17Z" transform="translate(-367 -131.87)"/><path class="cls-1" d="M525.36,183.3l7.11,12.54V206c-.82-1.4-2-2.52-2.09-3.7-.41-6.05-1.33-11.9-4.75-17.16A4.69,4.69,0,0,1,525.36,183.3Z" transform="translate(-367 -131.87)"/><path class="cls-1" d="M488.09,143l-13.88-4C479.67,137.91,485.91,139.82,488.09,143Z" transform="translate(-367 -131.87)"/><path d="M619.3,251.21a4.56,4.56,0,0,0-.74.58,4.37,4.37,0,0,1-.74.58,2.29,2.29,0,0,0-.81.34c-1,.66-1.77.69-2.21.08a2.4,2.4,0,0,0-1-.29c-.51-.08-.82-.24-.91-.46l-.3-.54s-.17.07-.44.29-.51.25-.6.09-.13-.07-.27,0a.23.23,0,0,1-.27-.13.57.57,0,0,0-.54-.25,1.9,1.9,0,0,1-.77-.25c-.34-.16-.5-.3-.5-.41s0-.22-.07-.17a1.16,1.16,0,0,0-.34.67c-.09.22-.18.14-.26-.25s-.31-.59-.51-.46-.37.13-.5,0-.22-.09-.37.21-.28.29-.37,0-.16-.29-.34-.21a.55.55,0,0,1-.54,0q-.2-.25-.3-.21c-.07,0-.17-.07-.3-.29s-.27-.32-.4-.12a.29.29,0,0,1-.48,0,.27.27,0,0,0-.47,0c-.13.19-.2.21-.2,0s-.27-.25-.8-.25a4.26,4.26,0,0,1-1.62-.5c-.71-.33-1.07-.58-1.07-.74s-.09-.17-.27-.17-.39-.22-.64-.66a2.42,2.42,0,0,1-.37-1.16,2.85,2.85,0,0,1,.34-1.58c.09-.16.15-.13.2.09s.18.41.27.41a1,1,0,0,1,.67.08c.22.12.34.23.34.34s.12.16.36.16.4.08.44.25.55.35,1.25.37a5.11,5.11,0,0,0,1.78-.2,4.2,4.2,0,0,1,1.88-.25,5.54,5.54,0,0,0,2-.46,5.42,5.42,0,0,0,1.78-1,14.81,14.81,0,0,1,1.21-1,10.34,10.34,0,0,0,2.25-2.28,18,18,0,0,0,1.92-3,25.34,25.34,0,0,0,1.24-4.56,33.61,33.61,0,0,0,.71-5.72c0-.17.12-1.18.23-3s.22-3.57.31-5.18a25.91,25.91,0,0,0,.06-3.15c-.18-2.21-.33-3.31-.47-3.31a6.85,6.85,0,0,0-1.21.49l-2.62.87-2.62.87a8.43,8.43,0,0,1-5.24.83,12.57,12.57,0,0,1-1.48-.41,3.7,3.7,0,0,0-.81-.25,6.25,6.25,0,0,1-2.82-2.07,7.66,7.66,0,0,1-1.38-2.49,8.4,8.4,0,0,1-.57-2.82,2.21,2.21,0,0,1,.27-1.36c.18-.2.49-.18.94,0a4.69,4.69,0,0,1,.77.12c.38.08.72.17,1,.25a1.14,1.14,0,0,1,.57.29.64.64,0,0,0,.61.21c.27,0,.4-.11.4-.25s.18-.21.54-.21a18.72,18.72,0,0,0,3-.83c1.75-.55,2.69-.83,2.83-.83a6.92,6.92,0,0,0,1.17-.37,3.84,3.84,0,0,1,1.18-.29,1.25,1.25,0,0,0,.74-.25,7.79,7.79,0,0,1,1.88-.66q1.55-.42,3.39-.87l2.46-.62a1.62,1.62,0,0,1,.67-.21c.4-.08.77-.17,1.11-.25s.5-.18.5-.29.09-.17.27-.17a1.28,1.28,0,0,0,.74-.41c.63-.5,1.82-.63,3.56-.41a8.55,8.55,0,0,1,3.77,1.24l.67.5c-.63.72-1,1.07-1.14,1.07s-.46.25-1,.75a13.94,13.94,0,0,0-1.31,1.45,3.13,3.13,0,0,1-.87.87c-.32.11-.33.28,0,.5s.24.36-.16.41a1.21,1.21,0,0,1-.57,0c-.21,0-.33,0-.37.21a1,1,0,0,1-.44.21c-.16,0-.28.18-.37.46s-.24.41-.44.41a.44.44,0,0,0-.43.25c-.09.28-.18.3-.27.08s-.29-.28-.47.17a1.4,1.4,0,0,0-.07.41,4.48,4.48,0,0,0,.1,1.41,2,2,0,0,0,.37,1,1.13,1.13,0,0,1,.27.71.67.67,0,0,0,.2.54c.49.72.71,4.3.64,10.73a122.66,122.66,0,0,1-.91,15.3c-.18,1.27-.33,2.35-.47,3.23a13.6,13.6,0,0,1-1.58,4,14.16,14.16,0,0,1-2.65,3.64A2.63,2.63,0,0,1,619.3,251.21Z" transform="translate(-367 -131.87)"/><path d="M636.71,213a2.73,2.73,0,0,1,.37-.83,2.51,2.51,0,0,0,.37-.91,2.56,2.56,0,0,1,.4-.95,9,9,0,0,0,.67-1.45q.21-.66,0-.87a2.68,2.68,0,0,0-1.21-.38c-.67-.11-1-.22-1-.33s0-.09-.1-.12a.55.55,0,0,0-.34,0l-.61.21-1,.29a2.8,2.8,0,0,1-3.5-2.41c0-.49.42-.94,1.25-1.32a6.48,6.48,0,0,1,2.79-.58,4.36,4.36,0,0,0,1.41-.38l2-.78c.67-.28,1.1-.44,1.27-.5l1.35-.62a13.54,13.54,0,0,1,1.54-.62,12.26,12.26,0,0,0,1.35-.5,22.35,22.35,0,0,1,2.52-.87c1.5-.47,2.63-.79,3.39-1a25.68,25.68,0,0,0,2.56-.67,8,8,0,0,1,5-.08,4.73,4.73,0,0,1,1.11.83c.34.33.48.58.44.74s-.4.31-.94.42a5.16,5.16,0,0,0-1.85.62c-.7.36-1,.64-1,.83s-.16.37-.47.54a25.1,25.1,0,0,0-3.3,2.32c.54.5.81.8.81.91s.25.51.6,1.2a4.45,4.45,0,0,1,.54,1.29c0,.38.11.63.34.74s.21.65.23,1.62.06,3.6.1,7.92q0,9.19.14,10.44c.27,3.32.47,5.22.6,5.72a35.77,35.77,0,0,1,.64,3.94c.29,2.18.33,3.35.1,3.52s-.15.3.07.58a1,1,0,0,1,.07.91,2.2,2.2,0,0,1-.47.75,7.47,7.47,0,0,0-.27,1.45,6.37,6.37,0,0,1-.3,1.45c-.07.05-.06.19,0,.41s.09.36,0,.42-.2.41-.2.91-.07.8-.2.91-.6-.32-1.38-1.28a26,26,0,0,1-2.32-3.44,7,7,0,0,1-1.14-3c-.05-.5-.09-.85-.14-1.08a2.81,2.81,0,0,0-.27-.74,5.72,5.72,0,0,1-.33-.91,5.91,5.91,0,0,0-.47-1.25,5,5,0,0,1-.47-1.32,4.92,4.92,0,0,0-.37-1.29,6.74,6.74,0,0,1-.44-1.45,5,5,0,0,0-.4-1.66q-.75-1.74-1.55-11.52-.06-1.57-.27-1.41a14.6,14.6,0,0,0-1.07,2.74,19.82,19.82,0,0,1-1.21,3.06,1.88,1.88,0,0,0-.27.83,26.17,26.17,0,0,1-1.25,3.53q-1.25,3.18-1.84,4.85a23.71,23.71,0,0,1-1.89,4.39,7.29,7.29,0,0,0-.8,2c-.18.75-.32,1.12-.41,1.12s-.13.26-.13.79-.09.84-.27.95a3.8,3.8,0,0,0-.37,1.62,5.64,5.64,0,0,1-.3,1.61.74.74,0,0,0-.27.54.44.44,0,0,1-.27.42c-.18.08-.27.4-.27,1a1.34,1.34,0,0,1-.33,1,1.48,1.48,0,0,0-.41.58.83.83,0,0,1-.77.58,2,2,0,0,1-1.21-.62,6.79,6.79,0,0,1-1.31-1.61,10.78,10.78,0,0,1-1.35-5.64,14.25,14.25,0,0,1,.21-2.9,7.4,7.4,0,0,0,.2-1.41,5.26,5.26,0,0,1,.33-1.49,15.63,15.63,0,0,0,.64-2.53,16,16,0,0,1,.71-2.69,6.31,6.31,0,0,0,.54-1.75,16.15,16.15,0,0,1,1.47-4.31,1.79,1.79,0,0,0,.21-.83,5.13,5.13,0,0,1,.43-1.28,6.45,6.45,0,0,0,.44-1.2c0-.06.21-.69.64-1.91s.64-1.85.64-1.9.31-.89.94-2.49S636.71,213.06,636.71,213Zm8.8,35.56a1.11,1.11,0,0,1-.37.66,1.25,1.25,0,0,0-.37.75,1.51,1.51,0,0,1-.3.79,5.19,5.19,0,0,0-.37.62,3,3,0,0,1-.4.7c-.27.42-.52.82-.74,1.21s-.31.6-.27.66,0,.17-.13.17a5.61,5.61,0,0,0-.37,1.4,6.46,6.46,0,0,1-.37,1.41c-.36.28-1.06-.3-2.09-1.74a9.31,9.31,0,0,1-1.81-5.72,59.24,59.24,0,0,1,.47-7.21c.36-1.88.4-2.9.13-3.06-.44-.39-.13-1,.94-1.75a9.79,9.79,0,0,1,2.32-1.24,2.91,2.91,0,0,1,1.79.08,3.18,3.18,0,0,1,2.21,2.16,9.79,9.79,0,0,0,.54,1.66,7.69,7.69,0,0,1,.3,3.44,12.15,12.15,0,0,1-.77,3.85A3.91,3.91,0,0,0,645.51,248.56Z" transform="translate(-367 -131.87)"/><path d="M672.87,229.5c-.09,0-.19-.17-.3-.5s-.24-.5-.37-.5a1.22,1.22,0,0,1-.37-.2c-.2-.14-.33-.13-.37,0s-.32.19-.41.08-.09-.3,0-.58v-.08a.8.8,0,0,0-.13.25c-.18.22-.36.27-.54.16a.3.3,0,0,1-.06-.41.57.57,0,0,0-.07-.58c-.14-.28-.21-.4-.24-.38a3.33,3.33,0,0,0-.1.54,14.06,14.06,0,0,1-.27,2c-.13.94-.28,3.11-.43,6.51a39.86,39.86,0,0,0-.1,5.34,5.94,5.94,0,0,1,.06,2.28,8.9,8.9,0,0,1-.27,2.2q-.2.09-.06.66a7,7,0,0,1,.06,1.83,7.25,7.25,0,0,1-.26,1.82,1.11,1.11,0,0,0-.07,1,2.41,2.41,0,0,1,.07,1.2c0,.5-.07.8-.07.91a1,1,0,0,1-.27.5c-.18.22-.31.33-.4.33s-.3.25-.61.75a3.65,3.65,0,0,1-.54.58c-.09.05-.31,0-.67-.17a5.58,5.58,0,0,1-1.78-1.62,4.57,4.57,0,0,1-1.14-2,11.2,11.2,0,0,1-.1-1.57,10.59,10.59,0,0,0-.34-2.24,79.8,79.8,0,0,1-1.85-9.28q-.3-2.91-.3-10.2.06-6.21.47-10.53c.18-1.54.27-2.37.27-2.48s-.43-.32-1.28-.62a8.1,8.1,0,0,0-1.48-.46c0,.06-.24,0-.6-.29a2.67,2.67,0,0,0-.61-.37c-.13,0-.58-.47-1.34-1.41a8,8,0,0,1-1.55-2.9c-.53-1.88-.53-3.12,0-3.73.23-.28.38-.34.47-.17s.6.54,1.38.79a3.17,3.17,0,0,0,1.71.21c1.3-.45,2.27-.81,2.9-1.08a1.69,1.69,0,0,1,1-.33c.9,0,1.35-1.36,1.35-4.07v-1.49l1.07-.16a11.23,11.23,0,0,1,4.51-.09,4,4,0,0,1,1.95,1.91c.31.55.61.87.9.95a6.43,6.43,0,0,0,2.19-.2,82.7,82.7,0,0,1,12.3-.75,38.79,38.79,0,0,1,5.54.25,5.92,5.92,0,0,1,2.59,1.08,5.41,5.41,0,0,1,1.45,1.61,3.72,3.72,0,0,1,.7,1.7,1.92,1.92,0,0,1-.27.91,1.84,1.84,0,0,0-.2,1.08c.09.55.16,1.08.2,1.58.27,3.53.72,5.69,1.35,6.46s.51,2-.34,4.06a16.94,16.94,0,0,1-2.75,4.4,25.94,25.94,0,0,1-3.1,3.39,11.4,11.4,0,0,0-1,.88,12.76,12.76,0,0,1-1.07.91,10,10,0,0,1-1.11.7,30.81,30.81,0,0,1-6.72,3.07q-2.29.5-2.73.54a.75.75,0,0,1-.7-.29c-.18-.28-.29-.33-.34-.17-.18.44-.31.47-.4.08a1.13,1.13,0,0,1,0-.58c0-.49,0-.74-.07-.74s-.18.11-.27.5c0,.22-.09.33-.13.33s-.11-.09-.2-.25-.36-.42-.54-.42a.16.16,0,0,1-.17-.12.7.7,0,0,1,0-.29.62.62,0,0,0,0-.33.33.33,0,0,0-.34-.17.56.56,0,0,1-.6-.37q-.14-.37-.27.12c-.18.56-.34.7-.47.42a.54.54,0,0,1-.07-.33.48.48,0,0,0-.3-.42l-.54-.29a.3.3,0,0,1-.17-.37C673.16,229.61,673.09,229.5,672.87,229.5Zm17.34-23q-.54,0-.54-.21c0-.14-.09-.12-.27,0a.65.65,0,0,1-.63.21,1.61,1.61,0,0,1-.78-.29c-.13-.11-.24-.08-.33.08s-.19.22-.31.17a.26.26,0,0,0-.33.08.31.31,0,0,1-.37.08q-.14,0-.27.21c-.09.14-.17.26-.23.37s-.13.11-.17,0a.65.65,0,0,1,0-.58c0-.16,0-.25,0-.25s-.14.09-.27.25-.45.42-.54.42l-.6.62q-.21.21-.21.12c0-.11-.09-.16-.27-.16a1.62,1.62,0,0,0-.57.12.59.59,0,0,0-.37.37c-.13.17-.25.2-.37.09s-.28-.09-.5.08-.22.25-.27.25-.07-.11-.07-.33a1.11,1.11,0,0,0,0-.33c0-.06-.08-.09-.17-.09a.76.76,0,0,0-.1.54.58.58,0,0,1-.17.54c-.18.17-.27.2-.27.08-4.43,1.22-7,2-7.66,2.24a4.58,4.58,0,0,0-.84.33,1.28,1.28,0,0,0-.47.42,1.38,1.38,0,0,0-.2.37,6.53,6.53,0,0,0-.1.66,5.77,5.77,0,0,1-.2,1c-.14.66-.34,2-.61,4s-.42,3.23-.47,3.73c0,.22.08.34.24.37a12.77,12.77,0,0,0,1.44,0,12.53,12.53,0,0,0,1.55-.25,7.55,7.55,0,0,0,1.14-.33q.4-.16,1.14-.54c.5-.25.88-.43,1.15-.54a3.94,3.94,0,0,0,.7-.37c.43-.25.84-.47,1.25-.66a2.33,2.33,0,0,1,.8-.29.62.62,0,0,0,.51-.21,5.86,5.86,0,0,1,1.51-.79,26,26,0,0,0,2.72-1.66,13.44,13.44,0,0,0,1.45-1.07,17,17,0,0,0,4.16-3.82,10.43,10.43,0,0,0,1.48-2,2.09,2.09,0,0,0,.2-1.37,3.2,3.2,0,0,0-1.07-1.82q-.27-.24-.27,0C690.75,206.48,690.57,206.54,690.21,206.54Zm-16.74,25a.63.63,0,0,1-.06-.5c.09-.39.18-.42.27-.08v.33l-.07.5A1.11,1.11,0,0,1,673.47,231.49Zm.78,4.56c.11,0,.17.08.17.24s-.06.25-.17.25-.17-.08-.17-.25S674.14,236.05,674.25,236.05Z" transform="translate(-367 -131.87)"/><path d="M703.32,205.54c0-.66.13-1,.4-1q.07,0,.27-.21l.34-.33c.09-.08.15-.07.2,0s.2.1.47,0,.45-.13.54,0,.2.19.2-.08.26-.55.77-.67.8-.22.84-.33.31-.21.4-.12.12.29.07.62c0,.17-.05.26,0,.29s.05,0,.1-.12a3.14,3.14,0,0,0,.13-.5,1.82,1.82,0,0,1,.14-.46c0-.08.15-.07.33,0s.31.07.51-.12.35-.26.44-.21.13,0,.13-.16c0-.34.11-.34.34,0a.8.8,0,0,1,.26.49c0,.11,0,.17.07.17,0,.22.07.19.07-.08v-.34c0-.33,0-.52.13-.58a.46.46,0,0,1,.31,0,.58.58,0,0,0,.43-.12c.09-.11.21-.1.34,0s.22.21.27.21.18-.06.13-.17l.34,0c.27,0,.54-.07.8-.12s.41-.14.41-.25.36-.21,1.07-.29a14.48,14.48,0,0,1,2.19-.09q1.11,0,1.11.21c0,.17,0,.14.13-.08s.44-.17,1-.17a1.91,1.91,0,0,1,1.18.25c.09.06.17,0,.23-.16s.2-.09.37.24.34.39.34.17.07-.43.2-.46.23.07.27.29c.09.39.21.45.37.17s.28-.33.37-.17.25.17.61.17a1.18,1.18,0,0,1,.73.17,14.44,14.44,0,0,1,3.9,3.15,2.58,2.58,0,0,1,.27,2.15,3.76,3.76,0,0,1-1.07,1.74,4.46,4.46,0,0,1-1.08.62,13.8,13.8,0,0,1-1.61.58l-1.41.46a6.23,6.23,0,0,1-1.14.33,4.56,4.56,0,0,0-1.48.58,4.51,4.51,0,0,1-1.55.25,6,6,0,0,0-1.78.33,5.85,5.85,0,0,1-1.65.33,5,5,0,0,0-1.61.33c-.54.12-.86.32-1,.63a8.87,8.87,0,0,0-.1,2.36,14.57,14.57,0,0,1-.4,3.31c-.4,1.72-.49,2.71-.27,3s.66.11,1.58-.17a4.13,4.13,0,0,0,1.58-.66c.27-.22,1.15-.12,2.66.29a9.67,9.67,0,0,1,2.78,1,.93.93,0,0,1,.34.66c0,.22-.11.33-.34.33s-.26.11-.26.33-.18.37-.54.79-.52.69-.47.83,0,.29-.2.45-.25.31-.21.42-.13.43-.53.79-.61.59-.61.7,0,.11-.13.17a2.94,2.94,0,0,1-.31.16l-.3.17c-.27.28-.36.41-.27.41h.14c.27,0,.22.11-.14.33l-2,1.33c-.09.17-.42.33-1,.5-1.84.61-2.81.94-2.89,1a4.17,4.17,0,0,0-.14,1.58,14.26,14.26,0,0,1-.3,2,9.38,9.38,0,0,0-.24,2c0,.94-.09,1.46-.27,1.57l-.13-.33c0-.28-.11-.22-.2.16a2.68,2.68,0,0,1-.07.59,3.32,3.32,0,0,1-.33,1.49c-.05.05-.08.05-.11,0a.62.62,0,0,1,0-.33,1,1,0,0,0-.14-.75c-.09-.11-.15-.05-.2.17v.82c.05.94.2,1.51.47,1.7s.74.13,1.41-.2a5.07,5.07,0,0,1,1.25-.58l1.54-.42a14.58,14.58,0,0,0,1.65-.5,8.68,8.68,0,0,1,2.08-.41c0,.06.29,0,.74-.25s.72-.3.81-.25a.34.34,0,0,0,.34,0c0-.11.43-.2,1.17-.29a4.57,4.57,0,0,0,1.18-.2c.36-.34,1.39-.31,3.09.08a10.36,10.36,0,0,1,2.66.91c.73.39,1.1.77,1.1,1.16a1.08,1.08,0,0,1,0,.37s-.08.05-.17.05a.22.22,0,0,0-.2.08q-.06.17-.3.12c-.16,0-.24.1-.24.38a.54.54,0,0,1-.43.37.54.54,0,0,0-.44.37c-.22.33-.34.4-.34.21s-.12-.22-.37-.08-.37.15-.37,0,0-.25-.16-.25-.15.14-.1.41a.66.66,0,0,1-.14.67c-.18.22-.34.27-.47.16s-.09.07-.13.21a3,3,0,0,1-.21.45c-.09.17-.17.23-.27.17s-.31.08-.4.41-.27.58-.4.42a.78.78,0,0,1-.07-.33c0-.28-.11-.2-.33.25s-.26.51-.37.37-.31-.13-.57,0c-.27.33-.41.44-.41.33l-.4.33c-.05.11-.05.2,0,.25s0,.2-.14.25-.13,0-.13-.16a.25.25,0,0,1-.07-.17c0-.33-.07-.39-.2-.17a.34.34,0,0,0-.1.42.33.33,0,0,1-.1.41c-.23.22-.34.22-.34,0s-.06-.15-.2.21-.31.54-.54.54-.33.05-.33.16-.3.25-.88.42A37.17,37.17,0,0,0,712,251.3a13.09,13.09,0,0,1-3.36,1.07l-.44.25a2.55,2.55,0,0,1-.6.25c-.2.06-.33.06-.37,0s-.23-.08-.27.09a1.78,1.78,0,0,1-.84.16c-.38,0-1.13-.06-2.25-.16-.18,0-.33-.14-.44-.42s-.26-.39-.44-.33-.4,0-.4-.17-.25-.26-.74-.29-.76-.09-.81-.2-.19-.17-.43-.17-.37-.07-.37-.21-.12-.2-.34-.2-.65-.31-1.14-.92a3.84,3.84,0,0,1-.88-1.57,6.42,6.42,0,0,1-.2-1.62c0-.58.07-.92.2-1a2.6,2.6,0,0,1,1.48-.25q1.21,0,2.22-.09c.67-.05,1-.22,1-.49,0-.11.13-.17.4-.17.5,0,.54-.52.14-1.57a4.69,4.69,0,0,1-.41-1.49c0-.5-.09-1.63-.13-3.4a19,19,0,0,0-.2-4.11.41.41,0,0,1-.07-.49c.09-.14,0-.4-.3-.79a2,2,0,0,0-1.41-.71,4.18,4.18,0,0,1-2.19-1.28,7.16,7.16,0,0,1-1.51-1.66,4.3,4.3,0,0,1-.44-1.82c-.09-.83,0-1.33.14-1.49a3.14,3.14,0,0,1,1.68-.25,5.7,5.7,0,0,0,2.28-.46q.68-.37.81-.21c.13.17.37.12.71-.16a1.57,1.57,0,0,0,.57-.75q.06-1.81.06-1.74c.09-.22.23-.22.41,0s.2.17.2,0a.68.68,0,0,0-.07-.25c-.18-1-.22-1.49-.13-1.49s.13,0,.13-.25v-.41c0-.17,0-.82.1-2s.1-2.13.1-3-.09-1.29-.27-1.29-.24.19-.33.58-.2.2-.34-.25a2.16,2.16,0,0,0-.2-.41c0-.06-.08-.06-.1,0a.38.38,0,0,1-.2.16.93.93,0,0,1-.44.09c-.4,0-.6-.11-.6-.34s-.16-.19-.47.09-.3.19-.34.08a.42.42,0,0,0-.34-.17c-.13,0-.24-.1-.33-.33s-.27-.44-.41-.33-.12,0-.23-.21a2.9,2.9,0,0,1-.3-.82,10.07,10.07,0,0,1-.21-1.12,4,4,0,0,1,1.15-3.9c1.57-1.44,2.48-2.07,2.75-1.91a.16.16,0,0,0,.24,0,1.59,1.59,0,0,0,.2-.33c.07-.14.13-.19.2-.16s.17.2.3.53Z" transform="translate(-367 -131.87)"/><path d="M737.8,239a4.61,4.61,0,0,1-.4,1.2,4.14,4.14,0,0,0-.41,1.37c0,.44,0,.66-.13.66s-.29.34-.47,1a4,4,0,0,0-.2,1.45,2.94,2.94,0,0,1-.37,1.65,4.58,4.58,0,0,1-1,1.58c-.22.16-.33.3-.33.41a1.4,1.4,0,0,1-.37.71q-.37.45-.57.45a.38.38,0,0,0-.41.34c-.22.77-.71.58-1.48-.59a6.56,6.56,0,0,1-1.14-2.32,25.24,25.24,0,0,1-.2-4,48.55,48.55,0,0,0-.34-7c-.09-.55,0-.83.14-.83s.41-.18.43-.54a1.28,1.28,0,0,0-.3-1,2.89,2.89,0,0,1-.27-.45s0-.09.14-.17a.48.48,0,0,0,.13-.37c0-.11,0-.14-.13-.09v-.66c.13-.61.24-.91.33-.91s.21-.33-.06-.83a1.65,1.65,0,0,1-.14-1.24c.05-.39.11-.58.2-.58s.18,0,.27-.25a1,1,0,0,0-.1-.67,2.16,2.16,0,0,1-.2-.49c0-.11.1-.28.37-.5s.45-.44.4-.66-.13-.11-.26,0-.27,0-.27-.17A4.37,4.37,0,0,0,731,225c.22-.55.29-.88.2-1a5.44,5.44,0,0,1,0-1.83c0-.22.12-.95.23-2.19s.24-2.42.37-3.53a20.73,20.73,0,0,1,.34-2.15c.09-.28.23-1,.43-2.12s.33-1.8.37-2a12,12,0,0,0,.21-2.57,5.15,5.15,0,0,0-.21-2c-.26-.39.15-.76,1.25-1.12a8.79,8.79,0,0,1,2.32-.54,4.52,4.52,0,0,1,1.14.33,6,6,0,0,1,1.44,1.57,4.33,4.33,0,0,1,1,1.83,1.73,1.73,0,0,0,.47.91,3.45,3.45,0,0,0,1.08.91,6,6,0,0,1,2.11,2.24,14.09,14.09,0,0,1,1.65,3.56c.22.67.58,1.74,1.07,3.24s.83,2.57,1,3.23c.41,1.38,1.13,3.38,2.19,6s1.67,3.94,1.85,3.94.25-.42.5-1.25.52-1.79.81-2.9.48-1.79.57-2.07a66.72,66.72,0,0,0,1.74-7.88,36.43,36.43,0,0,0,.34-5.18,46.74,46.74,0,0,0-.07-4.93,12.72,12.72,0,0,0-.16-1.74,1.88,1.88,0,0,0-.51-.83c-.36-.44-.63-.66-.8-.66s-.49-.19-.78-.58a1.78,1.78,0,0,1-.43-1c0-.44.44-1,1.34-1.65a4.2,4.2,0,0,1,3.53-.29,4.68,4.68,0,0,1,2.65,1.78,17.34,17.34,0,0,0,1.35,1.16,11.31,11.31,0,0,1,1.24,1.2,17.29,17.29,0,0,1,1,1.45,6.26,6.26,0,0,1,.8,1.7c.23.69.29,1.09.2,1.2s-.06.39.07.83a27,27,0,0,1,.17,4.81,57.89,57.89,0,0,1-.24,5.88q-.74,5.81-.87,6.22c-.09.22-.38,1.29-.87,3.19s-.81,3-.94,3.28a13.36,13.36,0,0,0-.54,1.28c-.23.58-.44,1.06-.64,1.45a6.11,6.11,0,0,1-.71,1.08,7.61,7.61,0,0,0-.6,1.24c-.36.72-.7,1.14-1,1.25,0-.34-.09-.39-.27-.17a1.11,1.11,0,0,0-.2.5c-.09.38-.26.55-.5.49s-.4.06-.44.34-.18.49-.27.49-.16.11-.2.34-.08.38-.1.49-.13.09-.3-.08-.24-.14-.31-.08a1.72,1.72,0,0,0-.23.66c-.18.55-.43.83-.74.83a1,1,0,0,0-.51.21,1.8,1.8,0,0,0-.5.49c-.13.2-.16.32-.07.38a10.55,10.55,0,0,1-1.68,1.4c-.09,0-.14,0-.16.09a.76.76,0,0,1-.11.16c0,.17-.11.17-.2,0s-.2-.22-.2,0-.06.28-.17,0-.17-.25-.17.09-.49.72-1.34.83a2.19,2.19,0,0,1-1.88-.42,2.77,2.77,0,0,1-.67-1.24,1.74,1.74,0,0,1,0-1.2,2.27,2.27,0,0,0,.2-.87.77.77,0,0,1,0-.25c0-.06.06-.06.1,0s.11,0,.2-.17a5.37,5.37,0,0,0,.27-.58,1.57,1.57,0,0,0,.14-.58,11.9,11.9,0,0,0-1.58-2.32,7.79,7.79,0,0,1-1.58-2.53.85.85,0,0,0-.3-.7,11.58,11.58,0,0,1-1.38-2.49q-3.09-6.37-3.5-6.38c-.09,0-.13.19-.13.58s-.05.5-.14.5-.31,1.16-.53,3.48a8.69,8.69,0,0,1-.27,1.53,11.56,11.56,0,0,0-.34,1.7c-.13,1.11-.25,1.85-.33,2.24,0,.11,0,.26,0,.45a2.09,2.09,0,0,1-.07.42c0,.08-.05.12-.1.12S737.8,238.67,737.8,239Z" transform="translate(-367 -131.87)"/><path d="M773.69,205.54c0-.66.14-1,.41-1q.06,0,.27-.21t.33-.33c.09-.08.16-.07.21,0s.2.1.47,0,.44-.13.53,0,.21.19.21-.08.25-.55.77-.67.79-.22.84-.33.31-.21.4-.12.11.29.07.62c-.05.17-.06.26,0,.29s.05,0,.1-.12a3.14,3.14,0,0,0,.13-.5,1.92,1.92,0,0,1,.13-.46c.05-.08.16-.07.34,0s.3.07.51-.12.34-.26.43-.21.14,0,.14-.16q0-.51.33,0a.77.77,0,0,1,.27.49c0,.11,0,.17.07.17,0,.22.07.19.07-.08v-.34c0-.33,0-.52.13-.58a.44.44,0,0,1,.3,0,.6.6,0,0,0,.44-.12c.09-.11.2-.1.34,0s.22.21.26.21.18-.06.14-.17l.33,0,.81-.12c.27-.06.4-.14.4-.25s.36-.21,1.08-.29a14.35,14.35,0,0,1,2.18-.09q1.11,0,1.11.21c0,.17,0,.14.14-.08s.44-.17,1-.17a1.91,1.91,0,0,1,1.18.25c.09.06.16,0,.23-.16s.19-.09.37.24.34.39.34.17.07-.43.2-.46.22.07.27.29c.09.39.21.45.37.17s.28-.33.37-.17.24.17.6.17a1.2,1.2,0,0,1,.74.17,14.77,14.77,0,0,1,3.9,3.15,2.65,2.65,0,0,1,.27,2.15,3.77,3.77,0,0,1-1.08,1.74,4.19,4.19,0,0,1-1.07.62,14,14,0,0,1-1.62.58l-1.41.46a6.23,6.23,0,0,1-1.14.33,4.77,4.77,0,0,0-1.48.58,4.43,4.43,0,0,1-1.54.25,6.11,6.11,0,0,0-1.79.33,5.79,5.79,0,0,1-1.64.33,5.06,5.06,0,0,0-1.62.33c-.53.12-.86.32-1,.63a8.44,8.44,0,0,0-.1,2.36,15.16,15.16,0,0,1-.4,3.31c-.41,1.72-.5,2.71-.27,3s.66.11,1.58-.17a4.22,4.22,0,0,0,1.58-.66c.27-.22,1.15-.12,2.65.29a9.91,9.91,0,0,1,2.79,1,1,1,0,0,1,.34.66.3.3,0,0,1-.34.33q-.27,0-.27.33c0,.11-.18.37-.54.79s-.51.69-.47.83,0,.29-.2.45-.24.31-.2.42-.13.43-.54.79-.6.59-.6.7,0,.11-.14.17l-.3.16-.3.17c-.27.28-.36.41-.27.41H787c.27,0,.23.11-.13.33l-2,1.33c-.09.17-.43.33-1,.5-1.84.61-2.8.94-2.89,1a4.55,4.55,0,0,0-.13,1.58,16,16,0,0,1-.31,2,10,10,0,0,0-.23,2c0,.94-.09,1.46-.27,1.57l-.13-.33c-.05-.28-.12-.22-.21.16a3.37,3.37,0,0,1-.06.59,3.13,3.13,0,0,1-.34,1.49c0,.05-.08.05-.1,0a.69.69,0,0,1,0-.33,1,1,0,0,0-.13-.75c-.09-.11-.16-.05-.2.17v.82c0,.94.2,1.51.47,1.7s.74.13,1.41-.2a5,5,0,0,1,1.24-.58l1.55-.42a14.58,14.58,0,0,0,1.65-.5,8.6,8.6,0,0,1,2.08-.41c0,.06.29,0,.74-.25s.72-.3.81-.25a.32.32,0,0,0,.33,0c0-.11.44-.2,1.18-.29a4.57,4.57,0,0,0,1.18-.2c.35-.34,1.38-.31,3.09.08a10.28,10.28,0,0,1,2.65.91c.74.39,1.11.77,1.11,1.16a1.08,1.08,0,0,1,0,.37.23.23,0,0,1-.17.05.22.22,0,0,0-.2.08c0,.11-.15.15-.31.12s-.23.1-.23.38a.55.55,0,0,1-.44.37.52.52,0,0,0-.43.37c-.23.33-.34.4-.34.21s-.12-.22-.37-.08-.37.15-.37,0-.06-.25-.17-.25-.14.14-.1.41a.63.63,0,0,1-.13.67c-.18.22-.34.27-.47.16s-.09.07-.14.21a2.15,2.15,0,0,1-.2.45c-.09.17-.18.23-.27.17s-.31.08-.4.41-.27.58-.41.42a1,1,0,0,1-.06-.33c0-.28-.11-.2-.34.25s-.26.51-.37.37-.3-.13-.57,0c-.27.33-.4.44-.4.33l-.41.33a.27.27,0,0,0,0,.25c.09.11,0,.2-.13.25s-.13,0-.13-.16a.25.25,0,0,1-.07-.17c0-.33-.07-.39-.2-.17a.33.33,0,0,0-.1.42.33.33,0,0,1-.11.41q-.33.33-.33,0c0-.22-.07-.15-.2.21s-.32.54-.54.54-.34.05-.34.16-.29.25-.87.42a36.77,36.77,0,0,0-5.71,2.24,13,13,0,0,1-3.37,1.07l-.43.25a2.45,2.45,0,0,1-.61.25c-.2.06-.32.06-.37,0s-.22-.08-.27.09a1.75,1.75,0,0,1-.84.16c-.38,0-1.13-.06-2.25-.16-.18,0-.32-.14-.43-.42s-.26-.39-.44-.33-.4,0-.4-.17-.25-.26-.74-.29-.77-.09-.81-.2-.19-.17-.44-.17-.37-.07-.37-.21-.11-.2-.33-.2-.65-.31-1.15-.92a3.92,3.92,0,0,1-.87-1.57,6.42,6.42,0,0,1-.2-1.62c0-.58.07-.92.2-1a2.57,2.57,0,0,1,1.48-.25q1.21,0,2.22-.09c.67-.05,1-.22,1-.49,0-.11.13-.17.4-.17.49,0,.54-.52.13-1.57a4.66,4.66,0,0,1-.4-1.49c0-.5-.09-1.63-.13-3.4a17.85,17.85,0,0,0-.21-4.11.42.42,0,0,1-.06-.49c.09-.14,0-.4-.31-.79a2,2,0,0,0-1.41-.71,4.16,4.16,0,0,1-2.18-1.28,6.93,6.93,0,0,1-1.51-1.66,4.15,4.15,0,0,1-.44-1.82c-.09-.83-.05-1.33.13-1.49a3.14,3.14,0,0,1,1.68-.25,5.72,5.72,0,0,0,2.29-.46q.67-.37.81-.21c.13.17.37.12.7-.16a1.45,1.45,0,0,0,.57-.75c.05-1.21.07-1.79.07-1.74.09-.22.22-.22.4,0s.2.17.2,0a.86.86,0,0,0-.06-.25c-.18-1-.23-1.49-.14-1.49s.14,0,.14-.25v-.41c0-.17,0-.82.1-2s.1-2.13.1-3-.09-1.29-.27-1.29-.25.19-.34.58-.2.2-.33-.25a2.16,2.16,0,0,0-.2-.41c-.05-.06-.08-.06-.1,0a.42.42,0,0,1-.21.16.89.89,0,0,1-.43.09c-.41,0-.61-.11-.61-.34s-.15-.19-.47.09-.29.19-.33.08a.44.44,0,0,0-.34-.17c-.13,0-.25-.1-.34-.33s-.26-.44-.4-.33-.12,0-.23-.21a2.88,2.88,0,0,1-.31-.82,10.07,10.07,0,0,1-.2-1.12,4,4,0,0,1,1.14-3.9c1.57-1.44,2.49-2.07,2.76-1.91a.16.16,0,0,0,.24,0,2.18,2.18,0,0,0,.2-.33c.06-.14.13-.19.2-.16s.17.2.3.53Z" transform="translate(-367 -131.87)"/><path d="M840.05,209.77c0,.22-.4.35-1.18.37s-1.18.21-1.18.54a.68.68,0,0,1-.3.5c-.2.16-.37.22-.5.16-.27.23-.5.41-.68.54a1,1,0,0,1-.33.21c-.27,0-.43.06-.47.17s-.22.19-.51.24l-.9.17a3.92,3.92,0,0,1-.61.08A5.11,5.11,0,0,1,832,213c-.74.09-1.62.16-2.63.21s-1.55.08-1.64.08c-.58.06-1.76.14-3.53.25l-3.73.25-1.75.17-.34,1.49a47.64,47.64,0,0,0-1.07,5.47.39.39,0,0,0,.34.5,14.36,14.36,0,0,0,2.62-.17,12.22,12.22,0,0,1,6.11,1.41,6.65,6.65,0,0,0,1.82.75.41.41,0,0,1,.43.33q.1.33,1.11,1a11.58,11.58,0,0,1,3.13,3.44,16.76,16.76,0,0,1,2.65,11.65,11.3,11.3,0,0,0-.26,1.66,13,13,0,0,1-1.05,2.65,14.1,14.1,0,0,1-1.44,2.57q-3.63,4.39-5.18,5a6.59,6.59,0,0,0-.77.37c-.47.25-.93.49-1.38.71s-.68.32-.7.29-.22,0-.57.12a13,13,0,0,1-1.55.21,13,13,0,0,0-1.55.21.77.77,0,0,1-.8-.13,1.11,1.11,0,0,0-.88-.2c-.27.11-.45.11-.53,0s0-.31.2-.42a.48.48,0,0,1,.2-.08c.18.05.27.07.27,0a1.46,1.46,0,0,0-.14-.29c-.13-.28-.26-.33-.37-.17s-.19.25-.23.25q-.54-.08-.54.42c0,.27-.13.21-.4-.21s-.56-.59-.88-.54a1.42,1.42,0,0,0-.37.25l-.2.21s-.08,0-.17-.13-.22-.25-.27-.08-.19.32-.3.29-.17-.15-.17-.37-.07-.2-.23-.09-.28.09-.37-.08a.29.29,0,0,0-.3-.16,2.42,2.42,0,0,1-.47,0c-.16,0-.24-.07-.24-.12s-.16-.12-.47-.21-.62-.15-.91-.2-.46-.06-.5,0-.05,0-.14-.17a.6.6,0,0,1-.1-.54c.07-.14.06-.23,0-.29s-.46.17-.7.5-.42.41-.51.25,0-.17.13-.33c.32-.34.32-.53,0-.58a.72.72,0,0,0-.47.12c-.09.08-.13,0-.13-.21v-.16q.06-.58-.27-.54a1.93,1.93,0,0,0-.67.21c-.23.11-.36,0-.4-.25s-.11-.32-.31-.29-.41-.24-.64-.79a2.4,2.4,0,0,0-.37-.66c-.06-.06-.14,0-.23.24s-.27.32-.27.29a1.87,1.87,0,0,1,.07-.29c.09-.27,0-.41-.14-.41a1,1,0,0,1-.33-.21c-.18-.13-.35-.27-.51-.41s-.24-.18-.27-.13-.06,0-.13-.12l-.2-.42q-.11-.2-.24-.12c-.13.06-.46-.18-1-.7a8.45,8.45,0,0,1-1.18-1.45,7.54,7.54,0,0,1-.54-1.5l-.2-.91c.27-.27.66-.73,1.18-1.37s.91-1.09,1.18-1.36l.06.83a2.35,2.35,0,0,0,.64,1.32,1.32,1.32,0,0,1,.5.83,2.2,2.2,0,0,0,.74,1.2,3.2,3.2,0,0,0,1.35,1,14.26,14.26,0,0,1,1.48.41,12.86,12.86,0,0,0,2.85,0,10.77,10.77,0,0,0,3.13-.54l1.18-.37.9-.29a7.28,7.28,0,0,0,.81-.33c.36-.17.78-.39,1.28-.66q1.68-1.08,1.74-1.08a9.31,9.31,0,0,0,2.39-1.91,25.32,25.32,0,0,0,2.86-3,8.19,8.19,0,0,0,1.75-4.81c0-1.49-.34-2.49-1-3s-2-.75-4.1-.75c-.81,0-2.33.28-4.57.66-1.71.33-2.67.83-2.89,1.49a1.13,1.13,0,0,1-.61.67,9.17,9.17,0,0,1-1.88.33,2.9,2.9,0,0,1-2.15-.91,10,10,0,0,1-2.09-2.24,4.09,4.09,0,0,1-.6-2.16,1.9,1.9,0,0,1,.27-1.16.56.56,0,0,0,.2-.45,3.52,3.52,0,0,0-.1-.75c-.07-.3-.12-.54-.17-.7a6.82,6.82,0,0,0-.27-1.58A24.38,24.38,0,0,1,808,217c0-1.6-.09-2.57-.13-2.9a1.45,1.45,0,0,0-.4-.83,7.65,7.65,0,0,0-1.21-.66,5,5,0,0,1-1.15-.67,1.15,1.15,0,0,0-.67-.24c-.13,0-.52-.36-1.14-1.08a9.23,9.23,0,0,1-1.35-1.91,4.66,4.66,0,0,1-.37-1.86c-.06-1,0-1.51.11-1.62a2.41,2.41,0,0,1,1.44-.17,3.19,3.19,0,0,1,1.65.5,2.26,2.26,0,0,0,1.14.42,14.85,14.85,0,0,0,1.88-.25,3.65,3.65,0,0,0,1.28-.33,1.46,1.46,0,0,0,.33-.75,8.7,8.7,0,0,0-.2-3.81,6,6,0,0,1-.27-2.16q.08-.33,1.65-.33a5.4,5.4,0,0,1,1.85.17,4.3,4.3,0,0,1,.84.41,2.1,2.1,0,0,0,.77.33,7.15,7.15,0,0,1,1.68,1.58,5.48,5.48,0,0,1,1.28,2.07,1.68,1.68,0,0,0,.74,1A47.13,47.13,0,0,0,824,204q5.81-.09,11.93-.33a17.22,17.22,0,0,1,2.82.08,6.62,6.62,0,0,1,3,.83,4.4,4.4,0,0,1,2.15,2.82,1.52,1.52,0,0,1,0,.74,2.77,2.77,0,0,1-.57.75,2.43,2.43,0,0,1-.81.66,3.37,3.37,0,0,1-1.14,0C840.47,209.47,840.05,209.55,840.05,209.77Z" transform="translate(-367 -131.87)"/><path d="M848.91,205.54c0-.66.13-1,.4-1q.08,0,.27-.21l.34-.33c.09-.08.15-.07.2,0s.2.1.47,0,.45-.13.54,0,.2.19.2-.08.26-.55.77-.67.8-.22.84-.33.32-.21.41-.12.11.29.06.62c0,.17,0,.26,0,.29s.06,0,.1-.12a4.38,4.38,0,0,0,.14-.5,1.54,1.54,0,0,1,.13-.46c0-.08.16-.07.34,0s.3.07.5-.12.35-.26.44-.21.13,0,.13-.16c0-.34.11-.34.34,0a.87.87,0,0,1,.27.49c0,.11,0,.17.06.17,0,.22.07.19.07-.08v-.34c0-.33,0-.52.13-.58a.46.46,0,0,1,.31,0,.58.58,0,0,0,.43-.12c.09-.11.21-.1.34,0s.22.21.27.21.18-.06.13-.17l.34,0,.81-.12c.27-.06.4-.14.4-.25s.36-.21,1.08-.29a14.3,14.3,0,0,1,2.18-.09q1.11,0,1.11.21c0,.17,0,.14.13-.08s.44-.17,1-.17a1.91,1.91,0,0,1,1.18.25c.09.06.17,0,.24-.16s.19-.09.37.24.33.39.33.17.07-.43.2-.46.23.07.27.29c.09.39.22.45.37.17s.28-.33.37-.17.25.17.61.17a1.24,1.24,0,0,1,.74.17,14.52,14.52,0,0,1,3.89,3.15,2.58,2.58,0,0,1,.27,2.15,3.76,3.76,0,0,1-1.07,1.74,4.46,4.46,0,0,1-1.08.62,13.8,13.8,0,0,1-1.61.58l-1.41.46a6.18,6.18,0,0,1-1.15.33,4.59,4.59,0,0,0-1.47.58,4.51,4.51,0,0,1-1.55.25,6,6,0,0,0-1.78.33,5.85,5.85,0,0,1-1.65.33,5,5,0,0,0-1.61.33c-.54.12-.86.32-1,.63a8.87,8.87,0,0,0-.1,2.36,14.57,14.57,0,0,1-.4,3.31c-.4,1.72-.49,2.71-.27,3s.66.11,1.58-.17a4.13,4.13,0,0,0,1.58-.66c.27-.22,1.15-.12,2.66.29a9.91,9.91,0,0,1,2.79,1,1,1,0,0,1,.33.66.29.29,0,0,1-.33.33q-.27,0-.27.33c0,.11-.18.37-.54.79s-.52.69-.47.83,0,.29-.2.45-.25.31-.2.42-.14.43-.54.79-.61.59-.61.7,0,.11-.13.17l-.3.16a2.88,2.88,0,0,0-.31.17c-.27.28-.36.41-.27.41h.14c.27,0,.22.11-.14.33l-1.94,1.33c-.09.17-.43.33-1,.5-1.84.61-2.8.94-2.89,1a4.42,4.42,0,0,0-.14,1.58,14.26,14.26,0,0,1-.3,2,9.38,9.38,0,0,0-.24,2c0,.94-.09,1.46-.26,1.57l-.14-.33c0-.28-.11-.22-.2.16a2.68,2.68,0,0,1-.07.59,3.32,3.32,0,0,1-.33,1.49c0,.05-.08.05-.11,0a.62.62,0,0,1,0-.33,1,1,0,0,0-.14-.75c-.09-.11-.15-.05-.2.17v.82c.05.94.2,1.51.47,1.7s.74.13,1.41-.2a5.07,5.07,0,0,1,1.25-.58l1.54-.42a14.58,14.58,0,0,0,1.65-.5,8.68,8.68,0,0,1,2.08-.41c.05.06.3,0,.74-.25s.72-.3.81-.25a.34.34,0,0,0,.34,0c0-.11.43-.2,1.17-.29a4.57,4.57,0,0,0,1.18-.2c.36-.34,1.39-.31,3.09.08a10.36,10.36,0,0,1,2.66.91c.74.39,1.1.77,1.1,1.16a1.08,1.08,0,0,1,0,.37s-.08.05-.17.05a.23.23,0,0,0-.2.08q-.06.17-.3.12c-.16,0-.24.1-.24.38a.54.54,0,0,1-.43.37.55.55,0,0,0-.44.37c-.22.33-.34.4-.34.21s-.12-.22-.37-.08-.36.15-.36,0-.06-.25-.17-.25-.15.14-.1.41a.66.66,0,0,1-.14.67c-.18.22-.33.27-.47.16s-.09.07-.13.21a4.18,4.18,0,0,1-.2.45c-.1.17-.18.23-.27.17s-.32.08-.41.41-.27.58-.4.42a.78.78,0,0,1-.07-.33c0-.28-.11-.2-.33.25s-.26.51-.37.37-.31-.13-.58,0c-.26.33-.4.44-.4.33l-.4.33c-.05.11-.05.2,0,.25s0,.2-.14.25-.13,0-.13-.16a.25.25,0,0,1-.07-.17c0-.33-.06-.39-.2-.17a.34.34,0,0,0-.1.42.33.33,0,0,1-.1.41c-.22.22-.34.22-.34,0s-.06-.15-.2.21-.31.54-.54.54-.33.05-.33.16-.29.25-.88.42a37.17,37.17,0,0,0-5.71,2.24,13.09,13.09,0,0,1-3.36,1.07l-.44.25a2.55,2.55,0,0,1-.6.25c-.2.06-.33.06-.37,0s-.23-.08-.27.09a1.78,1.78,0,0,1-.84.16c-.38,0-1.13-.06-2.25-.16-.18,0-.33-.14-.44-.42s-.26-.39-.44-.33-.4,0-.4-.17-.25-.26-.74-.29-.76-.09-.81-.2-.19-.17-.43-.17-.37-.07-.37-.21-.11-.2-.34-.2-.65-.31-1.14-.92a3.8,3.8,0,0,1-.87-1.57,6,6,0,0,1-.21-1.62c0-.58.07-.92.21-1a2.53,2.53,0,0,1,1.47-.25q1.21,0,2.22-.09c.67-.05,1-.22,1-.49,0-.11.13-.17.4-.17.5,0,.54-.52.14-1.57a4.69,4.69,0,0,1-.41-1.49c0-.5-.09-1.63-.13-3.4a19,19,0,0,0-.2-4.11.41.41,0,0,1-.07-.49c.09-.14,0-.4-.3-.79a2,2,0,0,0-1.41-.71A4.18,4.18,0,0,1,844,231a7.16,7.16,0,0,1-1.51-1.66,4.3,4.3,0,0,1-.44-1.82c-.09-.83,0-1.33.14-1.49a3.14,3.14,0,0,1,1.68-.25,5.66,5.66,0,0,0,2.28-.46q.68-.37.81-.21c.13.17.37.12.71-.16a1.57,1.57,0,0,0,.57-.75q.06-1.81.06-1.74c.09-.22.23-.22.41,0s.2.17.2,0a.68.68,0,0,0-.07-.25c-.18-1-.22-1.49-.13-1.49s.13,0,.13-.25v-.41c0-.17,0-.82.1-2s.1-2.13.1-3-.09-1.29-.26-1.29-.25.19-.34.58-.2.2-.34-.25a1.67,1.67,0,0,0-.2-.41c0-.06-.08-.06-.1,0a.38.38,0,0,1-.2.16.93.93,0,0,1-.44.09c-.4,0-.6-.11-.6-.34s-.16-.19-.47.09-.3.19-.34.08a.42.42,0,0,0-.34-.17c-.13,0-.24-.1-.33-.33s-.27-.44-.4-.33-.13,0-.24-.21a3.25,3.25,0,0,1-.3-.82,8.19,8.19,0,0,1-.2-1.12,4,4,0,0,1,1.14-3.9c1.57-1.44,2.49-2.07,2.75-1.91a.16.16,0,0,0,.24,0,1.59,1.59,0,0,0,.2-.33c.07-.14.14-.19.2-.16s.17.2.31.53Z" transform="translate(-367 -131.87)"/><path d="M932.66,201.48a32.8,32.8,0,0,1,5.24,1.12,10.05,10.05,0,0,1,3.57,1.45c.17.22.23.4.16.54s-.28.21-.64.21-.5.07-.57.2-.58.35-1.54.63a7.47,7.47,0,0,0-2,.82c-.41.28-.65.31-.74.09s-.18-.17-.27.16-.33.38-.84.46a1.7,1.7,0,0,0-1,.37.89.89,0,0,1-.67.42c-.62,0-.94.24-.94.74a18.48,18.48,0,0,1-1,3.57,10.3,10.3,0,0,0-.37,1.11q-.16.63-.3,1.08a3.68,3.68,0,0,1-.47,1,8.58,8.58,0,0,0-.77,1.7,12.37,12.37,0,0,1-.84,1.86,8.18,8.18,0,0,0-.81,2,.37.37,0,0,1-.27.41c0,.06-.2.38-.47,1s-.53,1.17-.77,1.78a7.93,7.93,0,0,0-.37,1c-.63,1.11-1.71,3.32-3.26,6.64s-2.57,5.6-3.06,6.87c-.31.95-.53,1.41-.64,1.41s-.26.29-.44.87-.36,1.19-.57,1.83a3.1,3.1,0,0,1-.5,1.12,1.87,1.87,0,0,0-.2.54,4.9,4.9,0,0,1-.3.78q-.18.33-.24.33t-.84.63a4.9,4.9,0,0,1-.77.7c-.09,0-.18.17-.27.5a1.67,1.67,0,0,1-.81.91c-.36.22-.49.4-.4.54s0,.32-.2.54a2.1,2.1,0,0,1-.81.33,4.23,4.23,0,0,0-1,.33,3.74,3.74,0,0,1-3.16.25,2.75,2.75,0,0,0-2,.29,5.19,5.19,0,0,1-1.61.54c-.36-.06-.85-.51-1.48-1.37a2.07,2.07,0,0,1-.47-2.2,2.94,2.94,0,0,0-.13-1.9c-.09-.33-.23-.84-.41-1.54s-.36-1.31-.53-1.86-.34-1-.47-1.41a3.32,3.32,0,0,1-.41-1.37c0-.36-.06-.59-.2-.7a3.06,3.06,0,0,1-.4-1.08q-.27-1-.51-2.07c-.16-.72-.26-1.13-.3-1.25a4,4,0,0,1-.27-1.36c0-.42,0-.67-.13-.75a2.63,2.63,0,0,1-.31-1c-.11-.58-.28-1.67-.5-3.28,0-.44-.18-1.61-.4-3.52s-.38-3.08-.47-3.52a18.65,18.65,0,0,1-.21-3.15c0-1.77-.07-3.61-.23-5.52a18.19,18.19,0,0,0-.44-3.35,20.61,20.61,0,0,1-1.88-4.06c0-.17.2-.31.61-.42a12,12,0,0,1,1.41-.29c.53-.08.85-.12.94-.12a5,5,0,0,1,2.08.16c1.08.22,1.64.42,1.68.58s.21.33.37.33.3.12.44.34a7.42,7.42,0,0,1,1.28,2.07,3,3,0,0,0,.6,1.08,14.76,14.76,0,0,1,1.48,3.15,11.86,11.86,0,0,1,.87,3,10.16,10.16,0,0,0,.17,1.7,35.21,35.21,0,0,1,.24,4q.27,6,.6,9,.74,6.22,1.14,6.22a40.62,40.62,0,0,0,2-4.81c.09-.22.32-.73.68-1.53s.58-1.34.67-1.62c0,0,.36-1,1.07-2.9a5.24,5.24,0,0,1,.91-1.78.6.6,0,0,0,.3-.5,2.75,2.75,0,0,1,.14-.74,7.46,7.46,0,0,1,.4-1c.18-.38.29-.63.34-.74s.67-1.47,1.75-3.74a35,35,0,0,1,1.74-3.23c.63-1,.85-1.6.67-1.82h-.2c-.18.11-.35,0-.5-.33a2.85,2.85,0,0,0-.91-1,6.43,6.43,0,0,1-1.85-2.53,6,6,0,0,1-.43-3.1c.09-.67.24-1.05.47-1.16a3.5,3.5,0,0,1,1.68.08,6.4,6.4,0,0,0,3-.25,52.52,52.52,0,0,1,6.86-1.49A24.3,24.3,0,0,1,932.66,201.48Z" transform="translate(-367 -131.87)"/><path d="M939.18,205.54c0-.66.14-1,.4-1q.07,0,.27-.21l.34-.33c.09-.08.16-.07.2,0s.2.1.47,0,.45-.13.54,0,.2.19.2-.08.26-.55.77-.67.8-.22.84-.33.32-.21.41-.12.11.29.06.62c0,.17,0,.26,0,.29s.06,0,.1-.12a3,3,0,0,0,.14-.5,1.54,1.54,0,0,1,.13-.46c0-.08.16-.07.34,0s.3.07.5-.12.35-.26.44-.21.13,0,.13-.16c0-.34.11-.34.34,0a.87.87,0,0,1,.27.49c0,.11,0,.17.06.17,0,.22.07.19.07-.08v-.34c0-.33,0-.52.13-.58a.47.47,0,0,1,.31,0,.57.57,0,0,0,.43-.12c.09-.11.21-.1.34,0s.22.21.27.21.18-.06.13-.17l.34,0,.81-.12c.27-.06.4-.14.4-.25s.36-.21,1.08-.29a14.3,14.3,0,0,1,2.18-.09q1.11,0,1.11.21c0,.17,0,.14.13-.08s.44-.17,1-.17a1.9,1.9,0,0,1,1.17.25c.09.06.17,0,.24-.16s.19-.09.37.24.33.39.33.17.07-.43.2-.46.23.07.27.29c.09.39.22.45.37.17s.28-.33.37-.17.25.17.61.17a1.22,1.22,0,0,1,.74.17,14.77,14.77,0,0,1,3.9,3.15,2.61,2.61,0,0,1,.26,2.15,3.76,3.76,0,0,1-1.07,1.74,4.46,4.46,0,0,1-1.08.62,13.16,13.16,0,0,1-1.61.58l-1.41.46a6.23,6.23,0,0,1-1.14.33,4.56,4.56,0,0,0-1.48.58,4.51,4.51,0,0,1-1.55.25,6,6,0,0,0-1.78.33,5.78,5.78,0,0,1-1.65.33,5.05,5.05,0,0,0-1.61.33c-.54.12-.86.32-1,.63a8.61,8.61,0,0,0-.09,2.36,14.61,14.61,0,0,1-.41,3.31c-.4,1.72-.49,2.71-.27,3s.66.11,1.58-.17a4.13,4.13,0,0,0,1.58-.66c.27-.22,1.16-.12,2.66.29a9.91,9.91,0,0,1,2.79,1,1,1,0,0,1,.33.66.29.29,0,0,1-.33.33q-.27,0-.27.33c0,.11-.18.37-.54.79s-.52.69-.47.83,0,.29-.2.45-.25.31-.2.42-.14.43-.54.79-.61.59-.61.7,0,.11-.13.17l-.3.16a2.88,2.88,0,0,0-.31.17c-.27.28-.36.41-.27.41h.14c.27,0,.22.11-.14.33l-1.94,1.33c-.09.17-.43.33-1,.5-1.84.61-2.8.94-2.89,1a4.42,4.42,0,0,0-.14,1.58,14.26,14.26,0,0,1-.3,2,9.38,9.38,0,0,0-.24,2c0,.94-.09,1.46-.26,1.57l-.14-.33c0-.28-.11-.22-.2.16a2.68,2.68,0,0,1-.07.59,3.32,3.32,0,0,1-.33,1.49c-.05.05-.08.05-.1,0a.5.5,0,0,1,0-.33,1,1,0,0,0-.13-.75c-.1-.11-.16-.05-.21.17v.82c.05.94.21,1.51.47,1.7s.74.13,1.41-.2a5.07,5.07,0,0,1,1.25-.58l1.54-.42a14.58,14.58,0,0,0,1.65-.5,8.71,8.71,0,0,1,2.09-.41c0,.06.29,0,.74-.25s.71-.3.8-.25a.34.34,0,0,0,.34,0c0-.11.43-.2,1.17-.29a4.45,4.45,0,0,0,1.18-.2c.36-.34,1.39-.31,3.09.08a10.36,10.36,0,0,1,2.66.91c.74.39,1.11.77,1.11,1.16a1,1,0,0,1,0,.37s-.08.05-.17.05a.23.23,0,0,0-.2.08q-.06.17-.3.12c-.16,0-.24.1-.24.38a.54.54,0,0,1-.43.37.55.55,0,0,0-.44.37c-.22.33-.34.4-.34.21s-.12-.22-.36-.08-.37.15-.37,0-.06-.25-.17-.25-.15.14-.1.41a.64.64,0,0,1-.14.67c-.18.22-.33.27-.47.16s-.09.07-.13.21a4.18,4.18,0,0,1-.2.45c-.09.17-.18.23-.27.17s-.32.08-.41.41-.26.58-.4.42a.78.78,0,0,1-.07-.33c0-.28-.11-.2-.33.25s-.26.51-.37.37-.31-.13-.57,0c-.27.33-.41.44-.41.33l-.4.33c-.05.11-.05.2,0,.25s0,.2-.14.25-.13,0-.13-.16a.31.31,0,0,1-.07-.17c0-.33-.06-.39-.2-.17a.34.34,0,0,0-.1.42.33.33,0,0,1-.1.41c-.22.22-.34.22-.34,0s-.06-.15-.2.21-.31.54-.54.54-.33.05-.33.16-.29.25-.87.42a36.9,36.9,0,0,0-5.72,2.24,13.09,13.09,0,0,1-3.36,1.07l-.44.25a2.55,2.55,0,0,1-.6.25c-.2.06-.33.06-.37,0s-.23-.08-.27.09a1.78,1.78,0,0,1-.84.16c-.38,0-1.13-.06-2.25-.16-.18,0-.33-.14-.44-.42s-.26-.39-.44-.33-.4,0-.4-.17-.25-.26-.74-.29-.76-.09-.8-.2-.2-.17-.44-.17-.37-.07-.37-.21-.11-.2-.34-.2-.65-.31-1.14-.92a3.92,3.92,0,0,1-.87-1.57,6,6,0,0,1-.21-1.62c0-.58.07-.92.21-1a2.53,2.53,0,0,1,1.47-.25q1.21,0,2.22-.09c.68-.05,1-.22,1-.49,0-.11.14-.17.4-.17.5,0,.54-.52.14-1.57a4.42,4.42,0,0,1-.4-1.49c-.05-.5-.09-1.63-.14-3.4a19,19,0,0,0-.2-4.11c-.13-.19-.16-.36-.07-.49s0-.4-.3-.79a2,2,0,0,0-1.41-.71,4.18,4.18,0,0,1-2.19-1.28,7.16,7.16,0,0,1-1.51-1.66,4.45,4.45,0,0,1-.44-1.82c-.09-.83,0-1.33.14-1.49a3.14,3.14,0,0,1,1.68-.25,5.66,5.66,0,0,0,2.28-.46q.68-.37.81-.21c.14.17.37.12.71-.16a1.57,1.57,0,0,0,.57-.75c0-1.21.07-1.79.07-1.74.08-.22.22-.22.4,0s.2.17.2,0a.68.68,0,0,0-.07-.25c-.18-1-.22-1.49-.13-1.49s.13,0,.13-.25v-.41c0-.17,0-.82.1-2s.11-2.13.11-3-.1-1.29-.27-1.29-.25.19-.34.58-.2.2-.34-.25a1.67,1.67,0,0,0-.2-.41c0-.06-.08-.06-.1,0a.38.38,0,0,1-.2.16.93.93,0,0,1-.44.09c-.4,0-.6-.11-.6-.34s-.16-.19-.47.09-.29.19-.34.08a.42.42,0,0,0-.34-.17c-.13,0-.24-.1-.33-.33s-.27-.44-.4-.33-.13,0-.24-.21a3.25,3.25,0,0,1-.3-.82,8.19,8.19,0,0,1-.2-1.12,4,4,0,0,1,1.14-3.9c1.57-1.44,2.49-2.07,2.76-1.91a.15.15,0,0,0,.23,0,1.59,1.59,0,0,0,.2-.33c.07-.14.14-.19.2-.16s.17.2.31.53Z" transform="translate(-367 -131.87)"/><path d="M973.66,239a4.61,4.61,0,0,1-.4,1.2,4.05,4.05,0,0,0-.4,1.37c0,.44-.05.66-.14.66s-.29.34-.47,1a4,4,0,0,0-.2,1.45,2.86,2.86,0,0,1-.37,1.65,4.75,4.75,0,0,1-1,1.58c-.23.16-.34.3-.34.41a1.4,1.4,0,0,1-.37.71q-.37.45-.57.45a.38.38,0,0,0-.41.34c-.22.77-.71.58-1.47-.59a6.44,6.44,0,0,1-1.15-2.32,25.24,25.24,0,0,1-.2-4,50.53,50.53,0,0,0-.33-7c-.09-.55,0-.83.13-.83s.41-.18.44-.54a1.33,1.33,0,0,0-.31-1,2.36,2.36,0,0,1-.26-.45s0-.09.13-.17a.48.48,0,0,0,.13-.37c0-.11,0-.14-.13-.09v-.66c.13-.61.25-.91.34-.91s.2-.33-.07-.83a1.65,1.65,0,0,1-.14-1.24c0-.39.12-.58.21-.58s.17,0,.27-.25a1,1,0,0,0-.11-.67,2.16,2.16,0,0,1-.2-.49c0-.11.1-.28.37-.5s.45-.44.41-.66-.14-.11-.27,0-.27,0-.27-.17a4.37,4.37,0,0,0,.27-.58c.22-.55.29-.88.2-1a5.44,5.44,0,0,1,0-1.83c0-.22.12-.95.23-2.19s.24-2.42.37-3.53a20.73,20.73,0,0,1,.34-2.15,21.23,21.23,0,0,0,.44-2.12c.2-1.13.32-1.8.37-2a12.85,12.85,0,0,0,.2-2.57,5.47,5.47,0,0,0-.2-2c-.27-.39.14-.76,1.24-1.12a8.88,8.88,0,0,1,2.32-.54,4.52,4.52,0,0,1,1.14.33,6,6,0,0,1,1.45,1.57,4.39,4.39,0,0,1,1,1.83,1.73,1.73,0,0,0,.47.91,3.45,3.45,0,0,0,1.08.91,6,6,0,0,1,2.11,2.24,14.09,14.09,0,0,1,1.65,3.56c.22.67.58,1.74,1.08,3.24s.83,2.57,1,3.23q.62,2.07,2.19,6c1,2.62,1.67,3.94,1.85,3.94s.26-.42.5-1.25.52-1.79.81-2.9.48-1.79.57-2.07a68.22,68.22,0,0,0,1.75-7.88,36.85,36.85,0,0,0,.33-5.18c.05-2.45,0-4.1-.06-4.93a14,14,0,0,0-.17-1.74,1.88,1.88,0,0,0-.51-.83c-.36-.44-.62-.66-.8-.66s-.49-.19-.78-.58a1.78,1.78,0,0,1-.43-1c0-.44.44-1,1.34-1.65a4.2,4.2,0,0,1,3.53-.29,4.75,4.75,0,0,1,2.66,1.78,14.4,14.4,0,0,0,1.34,1.16,11.31,11.31,0,0,1,1.24,1.2,15.08,15.08,0,0,1,1,1.45,6.26,6.26,0,0,1,.8,1.7q.35,1,.21,1.2c-.09.11-.07.39.06.83a27,27,0,0,1,.17,4.81q0,4.23-.23,5.88-.75,5.81-.88,6.22c-.09.22-.38,1.29-.87,3.19a32.65,32.65,0,0,1-.94,3.28,13.36,13.36,0,0,0-.54,1.28,14.24,14.24,0,0,1-.64,1.45,6.67,6.67,0,0,1-.7,1.08,7.51,7.51,0,0,0-.61,1.24c-.36.72-.69,1.14-1,1.25,0-.34-.09-.39-.27-.17a1.24,1.24,0,0,0-.2.5c-.09.38-.26.55-.5.49s-.39.06-.44.34-.18.49-.27.49-.16.11-.2.34-.08.38-.1.49-.12.09-.3-.08-.24-.14-.31-.08a1.72,1.72,0,0,0-.23.66c-.18.55-.43.83-.74.83a1,1,0,0,0-.5.21,1.83,1.83,0,0,0-.51.49c-.13.2-.16.32-.07.38a10.55,10.55,0,0,1-1.68,1.4c-.09,0-.14,0-.16.09a1.4,1.4,0,0,1-.1.16q-.08.26-.21,0c-.13-.22-.2-.22-.2,0s-.05.28-.17,0-.16-.25-.16.09-.5.72-1.35.83a2.19,2.19,0,0,1-1.88-.42,2.87,2.87,0,0,1-.67-1.24,1.74,1.74,0,0,1,0-1.2,2.27,2.27,0,0,0,.2-.87.77.77,0,0,1,0-.25c0-.06.06-.06.1,0s.11,0,.2-.17a5.37,5.37,0,0,0,.27-.58,1.57,1.57,0,0,0,.14-.58,11.9,11.9,0,0,0-1.58-2.32,8,8,0,0,1-1.58-2.53.85.85,0,0,0-.3-.7,12.09,12.09,0,0,1-1.38-2.49q-3.09-6.37-3.5-6.38c-.09,0-.13.19-.13.58s0,.5-.13.5-.32,1.16-.54,3.48a8.69,8.69,0,0,1-.27,1.53,11.56,11.56,0,0,0-.34,1.7c-.13,1.11-.24,1.85-.33,2.24,0,.11,0,.26,0,.45a3.72,3.72,0,0,1-.06.42c0,.08-.06.12-.11.12S973.66,238.67,973.66,239Z" transform="translate(-367 -131.87)"/><path d="M1041.69,209.77c0,.22-.4.35-1.18.37s-1.18.21-1.18.54a.68.68,0,0,1-.3.5c-.2.16-.37.22-.5.16-.27.23-.5.41-.68.54a.93.93,0,0,1-.33.21c-.27,0-.43.06-.47.17s-.22.19-.51.24l-.9.17a3.92,3.92,0,0,1-.61.08,5.11,5.11,0,0,1-1.44.29c-.74.09-1.62.16-2.63.21s-1.55.08-1.64.08c-.58.06-1.76.14-3.53.25l-3.73.25-1.75.17-.33,1.49a46.44,46.44,0,0,0-1.08,5.47.39.39,0,0,0,.34.5,14.33,14.33,0,0,0,2.62-.17,12.22,12.22,0,0,1,6.11,1.41,6.65,6.65,0,0,0,1.82.75.43.43,0,0,1,.44.33c.06.22.43.55,1.1,1a11.58,11.58,0,0,1,3.13,3.44,16.76,16.76,0,0,1,2.65,11.65,13,13,0,0,0-.26,1.66,13,13,0,0,1-1,2.65,14.1,14.1,0,0,1-1.44,2.57q-3.63,4.39-5.18,5a6.59,6.59,0,0,0-.77.37c-.47.25-.93.49-1.38.71s-.68.32-.7.29-.22,0-.57.12a13,13,0,0,1-1.55.21,13,13,0,0,0-1.55.21.77.77,0,0,1-.8-.13,1.11,1.11,0,0,0-.88-.2c-.27.11-.45.11-.53,0s0-.31.2-.42a.48.48,0,0,1,.2-.08c.18.05.27.07.27,0a1.46,1.46,0,0,0-.14-.29c-.13-.28-.26-.33-.37-.17s-.19.25-.23.25q-.54-.08-.54.42c0,.27-.13.21-.4-.21s-.56-.59-.88-.54a1.42,1.42,0,0,0-.37.25l-.2.21s-.08,0-.17-.13-.22-.25-.26-.08-.2.32-.31.29-.17-.15-.17-.37-.07-.2-.23-.09-.28.09-.37-.08-.15-.16-.3-.16a2.42,2.42,0,0,1-.47,0c-.16,0-.24-.07-.24-.12s-.16-.12-.47-.21-.61-.15-.91-.2-.46-.06-.5,0-.05,0-.13-.17a.58.58,0,0,1-.11-.54c.07-.14.06-.23,0-.29s-.46.17-.7.5-.42.41-.51.25,0-.17.14-.33c.31-.34.31-.53,0-.58a.73.73,0,0,0-.48.12c-.09.08-.13,0-.13-.21v-.16c0-.39,0-.57-.27-.54a1.93,1.93,0,0,0-.67.21c-.23.11-.36,0-.4-.25s-.1-.32-.31-.29-.41-.24-.63-.79a2.6,2.6,0,0,0-.38-.66c-.06-.06-.14,0-.23.24s-.27.32-.27.29a1.87,1.87,0,0,1,.07-.29c.09-.27,0-.41-.14-.41a1,1,0,0,1-.33-.21c-.18-.13-.35-.27-.51-.41s-.24-.18-.26-.13-.07,0-.14-.12l-.2-.42q-.11-.2-.24-.12c-.13.06-.46-.18-1-.7a8.45,8.45,0,0,1-1.18-1.45,7,7,0,0,1-.53-1.5l-.21-.91c.27-.27.66-.73,1.18-1.37s.91-1.09,1.18-1.36l.06.83a2.35,2.35,0,0,0,.64,1.32,1.35,1.35,0,0,1,.51.83,2.14,2.14,0,0,0,.74,1.2,3.12,3.12,0,0,0,1.34,1,14.26,14.26,0,0,1,1.48.41,12.86,12.86,0,0,0,2.85,0A10.77,10.77,0,0,0,1017,244l1.18-.37.9-.29a7.28,7.28,0,0,0,.81-.33c.36-.17.78-.39,1.28-.66,1.12-.72,1.7-1.08,1.75-1.08a9.56,9.56,0,0,0,2.38-1.91,25.32,25.32,0,0,0,2.86-3,8.19,8.19,0,0,0,1.75-4.81c0-1.49-.34-2.49-1-3s-2-.75-4.1-.75c-.81,0-2.33.28-4.57.66-1.71.33-2.67.83-2.89,1.49a1.13,1.13,0,0,1-.61.67,9.17,9.17,0,0,1-1.88.33,2.9,2.9,0,0,1-2.15-.91,10,10,0,0,1-2.09-2.24,4.09,4.09,0,0,1-.6-2.16,1.9,1.9,0,0,1,.27-1.16.56.56,0,0,0,.2-.45,3.52,3.52,0,0,0-.1-.75c-.07-.3-.12-.54-.17-.7a6.82,6.82,0,0,0-.27-1.58,24.38,24.38,0,0,1-.27-4.06c0-1.6-.09-2.57-.13-2.9a1.45,1.45,0,0,0-.4-.83,7.65,7.65,0,0,0-1.21-.66,5,5,0,0,1-1.15-.67,1.12,1.12,0,0,0-.67-.24q-.19,0-1.14-1.08a8.77,8.77,0,0,1-1.34-1.91,4.44,4.44,0,0,1-.38-1.86c-.06-1,0-1.51.11-1.62a2.41,2.41,0,0,1,1.44-.17,3.19,3.19,0,0,1,1.65.5,2.26,2.26,0,0,0,1.14.42,14.85,14.85,0,0,0,1.88-.25,3.65,3.65,0,0,0,1.28-.33,1.46,1.46,0,0,0,.33-.75,8.7,8.7,0,0,0-.2-3.81,6,6,0,0,1-.27-2.16q.08-.33,1.65-.33a5.4,5.4,0,0,1,1.85.17,4.3,4.3,0,0,1,.84.41,2.1,2.1,0,0,0,.77.33,7.15,7.15,0,0,1,1.68,1.58,5.48,5.48,0,0,1,1.28,2.07,1.68,1.68,0,0,0,.74,1,47.13,47.13,0,0,0,6.22.09q5.81-.09,11.93-.33a17.22,17.22,0,0,1,2.82.08,6.62,6.62,0,0,1,3,.83,4.4,4.4,0,0,1,2.15,2.82,1.52,1.52,0,0,1,0,.74,2.57,2.57,0,0,1-.57.75,2.53,2.53,0,0,1-.8.66,3.45,3.45,0,0,1-1.15,0C1042.11,209.47,1041.69,209.55,1041.69,209.77Z" transform="translate(-367 -131.87)"/><ellipse cx="203" cy="92.63" rx="4" ry="54.5"/></svg>